<?xml version="1.0" encoding="utf-8"?>
<!-- Generator: Adobe Illustrator 24.3.0, SVG Export Plug-In . SVG Version: 6.00 Build 0)  -->
<svg version="1.1" id="Layer_1" xmlns="http://www.w3.org/2000/svg" xmlns:xlink="http://www.w3.org/1999/xlink" x="0px" y="0px"
	 viewBox="0 0 512 512" style="enable-background:new 0 0 512 512;" xml:space="preserve">
<style type="text/css">
	.st0{fill:#231F20;}
	.st1{opacity:0.2;}
	.st2{fill:#FFFFFF;}
	.st3{fill:#E70A0A;}
	.st4{fill:#D00B0B;}
	.st5{fill:#262626;}
	.st6{fill:#00F0FF;}
	.st7{fill:#0169E3;}
	.st8{fill:#D0D1D3;}
	.st9{fill:#EDEEF0;}
</style>
<g>
	<path class="st0" d="M656.73,406.53l19.51-39.81h16.87l19.38,39.81h-11.9l-3.68-7.54h-24.54l-3.68,7.54H656.73z M693.04,391.01
		l-8.34-17.11l-8.4,17.11H693.04z"/>
	<path class="st0" d="M717.14,406.53v-39.81h10.73v39.81H717.14z"/>
	<path class="st0" d="M760.51,391.32h-25.76v-10.06h25.76V391.32z"/>
	<path class="st0" d="M766.64,406.53l19.51-39.81h16.87l19.38,39.81h-11.9l-3.68-7.54h-24.54l-3.68,7.54H766.64z M802.96,391.01
		l-8.34-17.11l-8.4,17.11H802.96z"/>
	<path class="st0" d="M825.96,397.35v-30.62h10.73v24.92c0,1.59,0.59,2.94,1.78,4.04c1.19,1.1,2.64,1.65,4.35,1.65h14.29
		c1.72,0,3.17-0.55,4.35-1.65c1.19-1.1,1.78-2.45,1.78-4.04v-24.92h10.73v30.62c0,2.53-1.04,4.7-3.13,6.49
		c-2.09,1.8-4.62,2.69-7.61,2.69h-26.56c-2.9,0-5.42-0.9-7.54-2.69C827.02,402.04,825.96,399.88,825.96,397.35z"/>
	<path class="st0" d="M929.31,381.11v10.72c0,4.04-1.04,7.5-3.13,10.38c-2.09,2.88-4.62,4.32-7.61,4.32h-38.95v-39.81h38.95
		c2.94,0,5.47,1.42,7.58,4.26C928.26,373.82,929.31,377.2,929.31,381.11z M918.58,391.64v-10.52c0-1.22-0.5-2.24-1.5-3.06
		c-1-0.81-2.24-1.22-3.71-1.22h-23v19.57h22.82c1.47,0,2.74-0.47,3.8-1.41C918.05,394.07,918.58,392.95,918.58,391.64z"/>
	<path class="st0" d="M935.57,406.53v-39.81h10.73v39.81H935.57z"/>
	<path class="st0" d="M980.47,406.53h-12.21v-29.07h-16.62v-10.73h45.39v10.73h-16.56V406.53z"/>
	<path class="st0" d="M1002.12,393.77l10.73,0.31c0,1.23,0.3,2.28,0.89,3.16c0.59,0.88,1.32,1.32,2.18,1.32h14.72
		c1.47,0,2.73-0.38,3.77-1.14c1.04-0.76,1.56-1.67,1.56-2.73c0-0.98-0.37-1.82-1.1-2.51c-0.74-0.69-1.64-1.04-2.7-1.04l-19.32-0.67
		c-3.68,0-6.39-0.89-8.13-2.66c-1.74-1.77-2.61-4.09-2.61-6.94v-6.18c0-2.2,1.04-4.08,3.13-5.63c2.09-1.55,4.62-2.33,7.61-2.33
		h24.23c2.33,0,4.31,0.78,5.95,2.33c1.64,1.55,2.45,3.43,2.45,5.64v3.8h-10.73c0-1.14-0.35-2.06-1.04-2.76
		c-0.7-0.69-1.78-1.04-3.25-1.04h-14.72c-0.78,0-1.45,0.33-2.02,0.98c-0.57,0.65-0.86,1.45-0.86,2.39c0,1.19,0.11,2.03,0.34,2.55
		c0.22,0.51,0.87,0.77,1.93,0.77l20.86,0.67c3.27,0,5.88,0.83,7.82,2.48c1.94,1.66,2.91,4.63,2.91,8.92c0,5.11-1.1,8.57-3.31,10.37
		c-2.21,1.8-5.54,2.7-10,2.7h-20.55c-2.94,0-5.47-0.79-7.58-2.36c-2.11-1.57-3.16-3.44-3.16-5.61V393.77z"/>
</g>
<path class="st1" d="M936.98,232.92c-3.43-0.77-7.33-1.63-7.86-2.11c-0.77-0.69-1.48-1.57-2.11-2.62c-1.4-3.56-2.47-7.16-3.21-10.73
	c-0.16-1.41-0.24-2.86-0.25-4.34c-0.07-8.12,2.04-15.38,5.38-18.55c0.31-0.08,0.91-0.23,1.71-0.43c13.44-3.33,16.38-4.4,16.76-5.06
	c0.07-0.12,0.09-0.26,0.06-0.38c-0.03-0.1-0.1-0.25-0.28-0.35c-0.82-0.46-4.05,0.38-10.99,2.44c-2.23,0.66-4.33,1.29-4.83,1.32
	c-5.73,0.43-10.97-2.89-15.55-9.88c-2.3-3.51-4.05-7.69-4.79-11.45c-0.89-4.52-0.37-8.43,1.49-11.31c0.25-0.39,1.86-1.91,3.56-3.53
	c5.25-4.98,7.6-7.36,7.61-8.29c0-0.21-0.09-0.34-0.16-0.41c-0.07-0.07-0.2-0.16-0.41-0.16c-0.96,0.01-3.62,2.64-8.86,8.15
	c-1.42,1.5-2.66,2.79-3.02,3.08c-5.09,3.97-10.2,4.46-16.59,1.57c-3.47-1.57-7.57-4.76-10.7-8.33c-3.58-4.08-5.53-8.14-5.49-11.46
	c0.01-0.54,0.74-2.99,1.52-5.58c2.06-6.89,2.91-10.1,2.45-10.92c-0.1-0.18-0.25-0.26-0.35-0.28c-0.1-0.03-0.26-0.04-0.43,0.07
	c-0.8,0.47-1.72,3.82-3.37,10.66c-0.45,1.87-0.88,3.64-1.04,4c-2.67,5.95-7.98,6.97-15.77,7.85c-5.28,0.59-18,1.11-22.17-6.92
	c-0.27-0.51-0.82-2.86-1.41-5.34c-1.59-6.7-2.43-9.77-3.23-10.24c-0.18-0.11-0.35-0.1-0.45-0.07c-0.1,0.03-0.24,0.1-0.34,0.28
	c-0.45,0.81,0.41,4.11,2.38,10.77c0.56,1.9,1.09,3.7,1.13,4.09c0.63,7.11-4.89,10.7-10.74,14.49c-4.03,2.62-7.71,4.47-10.92,5.52
	c-4.45,1.44-8.07,1.36-10.78-0.24c-0.51-0.3-2.23-2.13-4.05-4.07c-4.67-4.97-6.77-7.05-7.7-7.07c-0.22-0.01-0.36,0.09-0.43,0.17
	c-0.08,0.08-0.16,0.21-0.16,0.42c0.01,0.93,2.34,3.29,7.54,8.22c1.72,1.63,3.35,3.18,3.64,3.6c4.01,6.02,1.55,13.76-1.22,19.19
	c-3.31,6.5-9.92,13.92-17.65,13.45c-0.45-0.03-2.54-0.65-4.75-1.3c-6.99-2.07-10.24-2.92-11.06-2.46c-0.18,0.1-0.25,0.24-0.28,0.34
	c-0.03,0.1-0.04,0.27,0.07,0.45c0.48,0.8,3.6,1.66,10.41,3.28c2.41,0.57,4.69,1.11,5.15,1.36c5.86,3.08,7.42,11.04,8.12,17.64
	c0.5,4.66,0.71,15.96-8.04,20.05c-0.4,0.19-2.42,0.67-4.55,1.19c-7.29,1.76-10.62,2.68-11.1,3.49c-0.1,0.17-0.09,0.33-0.07,0.43
	c0.03,0.1,0.1,0.25,0.28,0.35c0.36,0.2,1.23,0.28,4.97-0.69c2.3-0.59,4.9-1.37,6.8-1.94c1.13-0.34,2.02-0.6,2.25-0.65
	c6.69-1.34,12.24,1.22,18.02,8.3c5.06,6.2,7.78,16.19,3.2,23.28c-0.24,0.38-1.93,1.98-3.71,3.67c-5.55,5.28-8.03,7.8-8.04,8.73
	c0,0.2,0.08,0.33,0.16,0.41c0.07,0.07,0.21,0.16,0.41,0.16c0.98-0.01,3.78-2.78,8.61-7.89c0.9-0.95,1.68-1.78,1.89-1.95
	c5.56-4.68,10.87-3.57,18.73,0.12c5.63,2.64,15.21,9.14,15.43,16.74c0.01,0.48-0.76,3.08-1.52,5.59c-2.06,6.87-2.9,10.07-2.44,10.88
	c0.1,0.18,0.25,0.26,0.35,0.28c0.1,0.03,0.26,0.04,0.44-0.07c0.82-0.49,1.79-4,3.4-10.73c0.36-1.49,0.64-2.66,0.76-3.01
	c2.72-7.66,9.72-9.05,17.28-9.88c5.04-0.56,17.18-0.8,21.15,8.94c0.15,0.36,0.52,1.91,0.95,3.69c1.69,7.05,2.64,10.5,3.46,10.99
	c0.11,0.07,0.21,0.09,0.3,0.09c0.05,0,0.1-0.01,0.14-0.02c0.1-0.03,0.24-0.1,0.34-0.28c0.46-0.82-0.4-4.12-2.5-11.22
	c-0.64-2.16-1.25-4.2-1.26-4.59c-0.29-6.9,6.48-12.22,11.6-15.62c6.05-4.02,14.73-7.74,21.69-2.58c0.27,0.2,1.36,1.35,2.63,2.68
	c5.03,5.3,7.6,7.83,8.55,7.84c0,0,0.01,0,0.01,0c0.2,0,0.33-0.09,0.4-0.16c0.08-0.08,0.16-0.21,0.16-0.42
	c-0.01-0.95-2.39-3.36-7.72-8.41c-1.63-1.55-3.18-3.01-3.47-3.42c-4.51-6.37-2.85-15.68,0.79-22.07
	c4.28-7.51,11.36-11.37,18.95-10.32c0.39,0.05,1.9,0.5,3.65,1.03c6.82,2.03,10.44,2.98,11.29,2.51c0.18-0.1,0.26-0.25,0.28-0.35
	c0.03-0.11,0.04-0.29-0.08-0.49C946.82,235.17,943.08,234.27,936.98,232.92z M926.31,228.52c0.22,0.56,0.45,1.13,0.69,1.69
	c-0.78-0.17-1.67-0.34-2.61-0.5c-2.74-0.5-5.86-1.06-7.47-2.19c-3.77-2.64-4.95-11.83-5.23-14.58c-0.62-6.23,0.35-10.16,3.14-12.76
	c2.4-2.24,5.96-3.41,11.03-4.79c-1.99,2.66-3.21,5.99-3.64,9.93c-0.38,3.49-0.14,7.45,0.71,11.77c0.03,0.16,0.06,0.32,0.1,0.48
	c0.24,2.18,0.65,4.25,1.21,6.12C924.8,225.53,925.49,227.16,926.31,228.52z M789.41,195.13c4.81,1.29,8.63,2.4,11.1,4.63
	c2.62,2.35,3.89,5.96,4.41,12.44c0.99,12.48-4.37,14.92-14.82,17.77c2.14-3,3.56-6.57,4.13-10.39
	C795.32,212.24,793.61,203.59,789.41,195.13z M908.38,261.67c-3.41-3.41-6.35-6.36-7.68-9.73c-1.44-3.66-0.94-7.62,1.63-12.83
	c2.64-5.35,5.96-8.2,10.44-8.97c0.87-0.15,1.77-0.22,2.7-0.22c3.11,0,6.52,0.75,10.03,1.67c-4.52,1.71-8.34,4.27-11.11,7.47
	c-2.66,3.08-4.51,6.85-5.5,11.22C908.1,253.89,907.92,257.8,908.38,261.67z M807.63,163.37c3.45,3.44,6.17,6.16,7.33,9.26
	c1.22,3.25,0.68,6.93-1.75,11.92c-2.03,4.17-7.29,11.06-12.74,11.77c-2.08,0.27-5.16-0.87-7.87-1.88c-0.89-0.33-1.74-0.65-2.52-0.9
	c4.33-2.35,7.92-5.32,10.7-8.84c2.39-3.03,4.28-6.67,5.45-10.54C807.28,170.65,807.76,166.95,807.63,163.37z M814.65,237.76
	c-2.48-4.01-6.34-7.4-10.93-9.64l10.68-2.86c4.65,1.78,9.14,6.07,10.95,10.47c1.23,2.98,1.24,5.83,0.03,8.46
	c-0.93,2.01-3.44,4.11-5.66,5.96c-0.71,0.59-1.38,1.16-1.99,1.7C818.36,246.89,817.3,242.04,814.65,237.76z M898.62,251.92
	c-0.41-0.41-0.83-0.8-1.23-1.19c-2.81-2.71-5.23-5.05-6.38-7.85c-1.26-3.05-0.81-6.35,1.42-10.39c2.18-3.96,4.82-6,8.29-6.41
	c0.47-0.06,0.94-0.08,1.42-0.08c2.79,0,5.85,0.85,9.06,1.75c0.33,0.09,0.67,0.19,1,0.28c-4.71,1.9-8.44,5.17-10.84,9.52
	C899.03,241.76,898.09,246.71,898.62,251.92z M806.01,208c-0.7-3.2-1.79-6.32-3.24-9.3c0.53,0.14,1.05,0.27,1.55,0.4
	c3.99,1.03,7.14,1.84,9.3,3.69c2.27,1.95,3.38,5.04,3.62,10.04c0.21,4.61-0.78,7.67-3.12,9.61c-2.18,1.81-5.39,2.61-9.11,3.55
	c-0.53,0.13-1.06,0.27-1.61,0.41C806.65,221.6,807.58,215.12,806.01,208z M817.39,173.14l7.93,7.93c0.36,3.28-0.59,7.75-2.43,11.43
	c-1.26,2.52-4.05,6.85-8.56,7.54c-2.11,0.32-5.39-0.91-8.28-1.99c-0.93-0.35-1.83-0.68-2.63-0.94c4.29-2.43,7.84-5.9,10.31-10.09
	C816.24,182.77,817.49,177.99,817.39,173.14z M826.67,234.81L826.67,234.81c-1.5-4.19-4.98-7.89-9.65-10.28
	c0.78-0.23,1.56-0.48,2.32-0.72c5.65-1.8,10.98-3.5,14.67,2.84c3.59,6.18-0.5,9.91-4.84,13.85c-0.56,0.51-1.13,1.03-1.68,1.55
	C827.75,239.61,827.47,237.17,826.67,234.81z M888.88,242.18c-0.57-0.54-1.15-1.07-1.72-1.59c-4.41-4.01-8.57-7.8-5.05-14.06
	c1.6-2.85,3.67-4.25,6.5-4.4c0.17-0.01,0.34-0.01,0.5-0.01c2.41,0,5.08,0.85,7.67,1.67c0.7,0.22,1.41,0.45,2.12,0.66
	C892.11,227.44,888.27,234.21,888.88,242.18z M818.86,216.62c0.3-2.36,0.16-4.91-0.43-7.58c-0.5-2.27-1.29-4.6-2.31-6.77
	c1,0.25,1.97,0.45,2.92,0.66c2.86,0.61,5.33,1.13,7.16,2.43c1.99,1.41,2.98,3.63,3.13,6.98c0.15,3.51-0.71,5.84-2.71,7.33
	c-1.84,1.37-4.55,1.97-7.42,2.6c-0.82,0.18-1.67,0.37-2.52,0.58C817.83,221.03,818.56,218.94,818.86,216.62z M879.16,232.48
	c-0.53-0.48-1.12-0.97-1.74-1.49c-3.12-2.62-7-5.88-5.89-9.41c0.41-1.32,1.1-2.2,2.11-2.71c0.71-0.36,1.54-0.5,2.44-0.5
	c2.36,0,5.21,1,7.63,1.85c0.68,0.24,1.33,0.47,1.94,0.67c-2.12,1.07-3.82,2.72-4.96,4.81C879.61,227.7,879.08,230.03,879.16,232.48z
	 M835.38,225.73c-1.2-1.92-2.93-3.54-5.04-4.75l10.81-2.9c2.27,0.93,3.55,2.12,3.81,3.53c0.57,3.11-3.62,6.94-6.68,9.74
	c-0.38,0.35-0.76,0.69-1.1,1.01C837.27,230.04,836.65,227.76,835.38,225.73z M885.52,214.65L885.52,214.65
	c0.33,1.64,0.81,3.26,1.4,4.82c-0.86-0.2-1.78-0.36-2.75-0.53c-4.43-0.78-9.01-1.59-9.5-5.88c-0.56-4.84,4.6-5.78,9.16-6.61
	c0.83-0.15,1.63-0.3,2.37-0.46C884.71,208.9,885.11,212.6,885.52,214.65z M868.5,224.25c-2.25,0.42-4.2,1.87-5.48,3.32l-3.22-12.02
	L868.5,224.25z M861.03,210.96l8.71-8.71c0.34,2.24,1.45,4.26,3.05,5.55L861.03,210.96z M873.13,209.51
	c-0.7,2.11-0.13,4.65,0.45,6.37l-12.11-3.24L873.13,209.51z M872.49,217.39c-1.7,1.19-2.8,3.17-2.99,5.4l-8.47-8.47L872.49,217.39z
	 M871.39,203.71c-0.6-3.26,3.95-7.42,6.96-10.18c0.4-0.37,0.77-0.71,1.1-1.02c0.17,2.4,0.81,4.7,1.88,6.7
	c1.13,2.12,2.73,3.85,4.64,5.06l-10.88,2.92C872.89,206.29,871.65,205.12,871.39,203.71z M865.24,200.57
	c0.5,0.41,1.12,0.62,1.85,0.62c0,0,0.01,0,0.01,0c0.32,0.12,0.64,0.21,0.97,0.26l-8.28,8.28l3.18-11.88
	c0.4,0.53,0.85,1.06,1.36,1.54C864.57,199.88,864.87,200.27,865.24,200.57z M830.85,210.09L830.85,210.09
	c-0.33-1.46-0.8-2.88-1.39-4.25c0.83,0.19,1.71,0.34,2.64,0.51c4.17,0.74,8.9,1.57,9.55,5.61c0.82,5.04-4.63,6.04-9.45,6.92
	c-0.8,0.15-1.57,0.29-2.28,0.44C831.26,216.81,831.6,213.5,830.85,210.09z M858.12,209.27l-3.21-11.97c1.9,0.62,4.22,0.57,6.45-0.13
	L858.12,209.27z M856.44,209.72l-8.93-8.93c2.13-0.57,4.17-1.73,5.67-3.24L856.44,209.72z M843.37,207.78
	c1.7-1.35,2.86-3.34,3.19-5.48l8.65,8.65L843.37,207.78z M843.04,215.77c0.55-1.5,0.62-3.06,0.22-4.66l-0.56-1.71l12.06,3.23
	L843.04,215.77z M855.21,214.32l-8.42,8.42c-0.2-2.05-1.38-3.98-3.24-5.3L855.21,214.32z M856.44,215.55l-3.22,12.02
	c-1.43-1.64-3.46-2.82-5.55-3.25L856.44,215.55z M858.12,216l3.16,11.78c-2.11-0.79-4.51-0.48-6.36,0.2L858.12,216z M861.92,195.11
	c-2.44,1.09-4.34,1.27-5.79,0.54c-2.56-1.29-3.41-5.28-4.23-9.14c-0.17-0.82-0.35-1.66-0.55-2.47c3.88,1.68,8.85,1.62,13.58-0.18
	L861.92,195.11z M844.5,203.42c-0.37,1.39-1.05,2.33-2.07,2.87c-2.59,1.37-6.86-0.14-10.3-1.34c-0.72-0.25-1.41-0.49-2.04-0.69
	c4.03-2.6,6.55-6.94,6.79-11.65c0.59,0.54,1.24,1.08,1.92,1.66C841.92,196.88,845.45,199.85,844.5,203.42z M869.99,199.54
	c-1.08,0.55-2,0.85-2.75,0.88c-0.8-0.32-1.56-0.85-2.24-1.48c-0.78-1.83-0.84-5.84,1.55-14.41c2.07,3.18,5.8,7.51,10.67,7.51
	c0.09,0,0.19,0,0.28,0L869.99,199.54z M846.1,225.88c2.5,0,4.22,0.63,5.13,1.87c1.84,2.5,0.31,7.25-0.92,11.07
	c-0.23,0.71-0.45,1.4-0.64,2.04c-2.85-3.84-7.13-6.34-11.7-6.84L846.1,225.88z M851.35,241.26l2.98-11.12
	c2.27-1.25,4.07-1.54,5.5-0.9c2.72,1.22,3.68,5.69,4.53,9.64c0.16,0.73,0.31,1.44,0.47,2.1c-1.96-1.02-4.27-1.5-6.73-1.39
	C855.85,239.69,853.54,240.27,851.35,241.26z M868.07,226.21c2.92-0.24,5.9,3.06,8.52,5.97c0.55,0.61,1.08,1.2,1.6,1.74
	c-2.21,0.18-4.44,0.94-6.52,2.22c-1.92,1.19-3.67,2.81-5.1,4.7l-2.99-11.16C865.02,227.48,866.49,226.34,868.07,226.21z
	 M849.61,184.25l3.02,11.29c-1.63,2.16-3.22,3.24-4.86,3.32c-2.86,0.14-5.56-2.88-8.18-5.79c-0.61-0.68-1.23-1.37-1.85-2.02
	C842.41,190.09,846.66,187.65,849.61,184.25z M889.31,205.82c1.78-1.45,4.46-2.06,7.57-2.76c0.81-0.18,1.64-0.37,2.48-0.58
	c-1.99,3.16-2.45,7.52-1.37,12.99c0.49,2.49,1.27,5.09,2.28,7.57c-1.12-0.28-2.19-0.5-3.23-0.72c-5.49-1.14-9.11-1.89-9.89-8.68
	C886.72,209.86,887.4,207.37,889.31,205.82z M888.46,203.6c-2.22-0.86-4.38-2.89-5.8-5.44c-1.5-2.7-1.92-5.52-1.15-7.74
	c0.66-1.9,3.45-4.18,5.69-6.01c0.73-0.59,1.42-1.16,2-1.68c0.14,3.74,1.06,7.3,2.69,10.37c1.74,3.28,4.27,5.9,7.35,7.61
	L888.46,203.6z M865.5,181.74c-2.49,1.15-5.5,1.84-8.09,1.83c-2.24-0.01-5.27-0.53-6.99-2.95c-1.12-1.58-1.68-4.67-2.17-7.4
	c-0.16-0.89-0.31-1.74-0.48-2.49c2.86,1.39,6.14,2.09,9.6,2.09c3.62,0,7.43-0.76,11.13-2.29L865.5,181.74z M833.65,198.07
	c-1.69,3.09-3.7,4.65-6.35,4.91c-2.41,0.23-5.13-0.62-8-1.53c-0.82-0.26-1.66-0.52-2.51-0.77c6.44-3.82,10.32-10.5,10.36-17.79
	c0.67,0.64,1.34,1.25,2.01,1.84c2.12,1.91,4.12,3.72,5.14,5.81C835.41,192.82,835.2,195.21,833.65,198.07z M879.78,189.74
	c-2.07,1.09-4.29,0.46-5.81-0.27c-3.24-1.55-6.18-4.97-6.7-7.79c-0.37-2,0.91-5.35,1.93-8.05c0.34-0.88,0.66-1.73,0.9-2.48
	c1.59,2.55,4.01,5.82,7.08,8.2c3.22,2.5,6.54,3.55,9.86,3.12L879.78,189.74z M846.04,170.92l3.02,11.26
	c-2.62,3.58-9.1,8.14-13.22,7.03c-1.82-0.49-4.23-3.48-6.18-5.88c-0.63-0.78-1.2-1.49-1.7-2.04c3.47-0.64,6.9-1.88,9.97-3.61
	C841.14,175.85,843.87,173.58,846.04,170.92z M836.32,235.67c2.32-0.03,5.22,0.79,7.63,2.15c2.76,1.57,4.54,3.63,5.02,5.79
	c0.42,1.91-0.9,5.37-1.96,8.14c-0.34,0.88-0.66,1.73-0.9,2.47c-2.05-2.95-4.73-5.44-7.78-7.26c-3.13-1.85-6.6-2.95-10.1-3.2
	L836.32,235.67z M858.12,251.84c-3.43,0.15-6.99,1.1-10.34,2.75l2.97-11.08c2.47-1.41,5.37-2.21,7.99-2.21c0.03,0,0.05,0,0.08,0
	c2.17,0.01,5.15,0.6,6.99,3.32c1.1,1.62,1.65,4.62,2.13,7.27c0.15,0.84,0.3,1.65,0.46,2.38
	C865.45,252.51,861.91,251.67,858.12,251.84z M870.15,254.18l-2.98-11.13c1.46-2.34,3.69-4.49,5.98-5.79
	c1.92-1.08,4.8-2.1,7.63-0.77c1.76,0.83,3.77,3.2,5.54,5.28c0.57,0.67,1.12,1.32,1.63,1.88c-3.42,0.11-6.88,1.2-10.08,3.17
	C874.92,248.67,872.27,251.19,870.15,254.18z M901.84,200.02c-2.9-1.08-5.91-3.65-8.1-6.9c-2.34-3.49-3.33-7.23-2.74-10.25
	c0.64-3.21,3.47-5.78,6.22-8.26c0.58-0.53,1.18-1.07,1.76-1.62c0.11,5.04,1.33,9.88,3.54,14.04c2.38,4.47,5.83,7.95,10.04,10.12
	L901.84,200.02z M858.1,160.34c4.65-0.14,9.47-1.23,13.98-3.16l-3,11.2c-5.36,2.54-17.47,5.21-21.95,0.05
	c-1.34-1.55-1.96-5.28-2.45-8.27c-0.16-0.99-0.32-1.95-0.49-2.76C848.23,159.48,853.01,160.49,858.1,160.34z M847.16,256.89
	c3.07-1.78,7.45-3.14,11.2-3.46c3.41-0.3,8.04,0.05,10.73,3.41c1.32,1.65,1.89,5.07,2.4,8.1c0.16,0.95,0.31,1.86,0.48,2.66
	c-3.92-2.5-8.68-3.7-13.82-3.48c-4.66,0.2-9.47,1.52-13.95,3.83L847.16,256.89z M912.04,226.2c-4.14-1.07-7.13-1.84-9.18-3.67
	c-2.13-1.9-3.19-4.93-3.57-10.13c-0.72-9.95,4.22-11.19,11.7-13.06c0.52-0.13,1.06-0.26,1.6-0.4c-1.5,2.15-2.41,4.8-2.73,7.9
	c-0.29,2.8-0.09,5.98,0.6,9.45c0.68,3.43,1.74,6.9,3.16,10.33C913.08,226.47,912.55,226.33,912.04,226.2z M896.66,172.86l-7.09,7.09
	c-2.76,1.51-5.92,0.8-8.09-0.07c-4.47-1.79-8.68-5.89-9.81-9.53c-0.97-3.13,0.19-6.76,1.31-10.27c0.24-0.75,0.48-1.51,0.7-2.27
	c2.11,3.46,5.38,7.96,9.57,11.2c3.54,2.73,7.14,4.11,10.75,4.11C894.9,173.11,895.78,173.03,896.66,172.86z M845.47,168.8
	c-1.41,1.97-4.61,5.18-8.49,7.76c-4.31,2.87-8.05,4.02-10.54,3.24c-1.91-0.6-4.39-3.63-6.38-6.06c-0.67-0.82-1.32-1.61-1.88-2.24
	c4.68-0.8,9.31-2.44,13.43-4.77c4.28-2.41,8.02-5.57,10.85-9.17L845.47,168.8z M826.53,245.46c5.79-0.16,15.58,3.47,18.01,9.64
	c1.13,2.87-0.08,6.54-1.26,10.09c-0.27,0.82-0.53,1.61-0.76,2.37c-5.58-8.3-14.66-13.59-24.06-14.03L826.53,245.46z M873.73,267.52
	l-2.98-11.1c3.29-5.35,12.31-13.48,18.97-10.99c1.96,0.73,4.21,3.46,6.19,5.87c0.63,0.77,1.24,1.5,1.79,2.12
	c-4.63,0.03-9.33,1.43-13.65,4.1C880.07,259.99,876.51,263.44,873.73,267.52z M925.9,193.58c-0.17,0.05-0.34,0.09-0.51,0.14
	c-8.94,2.43-13.87,3.77-20.12-5.34c-2.86-4.17-6.17-12.62-4.18-17.51c0.79-1.94,3.35-4.05,5.6-5.91c0.75-0.62,1.46-1.21,2.08-1.76
	c0.04,5.31,0.94,10.17,2.67,14.47c1.42,3.52,3.54,6.87,6.15,9.67C920,189.94,922.86,192.09,925.9,193.58z M875.51,144.37
	c-2.57,9.66-3.43,12.92-15.14,14.07c-6.18,0.61-13.88-0.09-16.96-3.89c-0.51-0.62-0.91-1.6-1.24-2.73
	c-0.11-0.56-0.26-1.14-0.44-1.73c-0.26-1.19-0.48-2.43-0.67-3.57c-0.15-0.89-0.3-1.74-0.45-2.47c3.55,1.91,7.46,3.13,11.65,3.62
	c7.46,0.87,15.74-0.49,23.4-3.85C875.61,144,875.56,144.19,875.51,144.37z M802.65,229.94c3.82,0.63,6.99,3.12,10.28,8.1
	c3.28,4.97,4.11,9.21,2.61,13.34c-1.28,3.51-4.14,6.7-7.54,10.15c0.68-4.58,0.31-9.03-1.09-12.96c-1.37-3.83-3.72-7.35-6.98-10.45
	c-2.7-2.57-5.98-4.78-9.55-6.43C795.24,230.38,799.11,229.36,802.65,229.94z M856.98,265.88c1.07-0.09,2.08-0.14,3.04-0.14
	c4.74,0,7.99,1.15,10.32,3.61c2.51,2.64,3.83,6.63,5.18,11.56c-3.4-2.26-7.29-3.75-11.34-4.33c-3.97-0.57-8.2-0.36-12.58,0.64
	c-3.69,0.84-7.47,2.25-10.98,4.1C843.34,271.16,844.63,266.94,856.98,265.88z M896.94,162.63c3.26,1.03,6.41,1.22,9.41,0.56
	c-0.27,0.28-0.54,0.56-0.81,0.83c-5.56,5.71-9.58,9.84-18.6,5.27c-4.51-2.28-11.74-9.31-12.49-14.35c-0.29-1.97,0.96-5.39,1.97-8.13
	c0.32-0.86,0.62-1.68,0.85-2.4c3.25,5.42,6.62,9.61,10.27,12.79C890.42,159.72,893.67,161.59,896.94,162.63z M838.9,144.18
	c0.23,0.74,0.54,1.58,0.85,2.46c0.42,1.17,0.87,2.42,1.23,3.6c0.14,0.63,0.29,1.24,0.46,1.82c0.16,0.82,0.23,1.56,0.16,2.18
	c-0.48,4.08-5.75,7.81-9.68,10.27c-2.52,1.58-11.09,6.6-15.64,5.12c-1.77-0.58-4.34-3.68-6.22-5.95c-0.62-0.75-1.18-1.42-1.66-1.96
	c4.61-0.75,9.02-2.09,13.14-3.99C828.54,154.48,834.67,149.69,838.9,144.18z M809.68,262.29c6.36-6.45,8.99-9.12,19.25-4.3
	c2.63,1.23,5.54,3.14,7.8,5.09c2.9,2.52,4.65,5.03,5.06,7.28c0.34,1.89-0.96,5.4-2,8.23c-0.33,0.88-0.62,1.68-0.85,2.36
	c-2.63-4.03-5.79-7.45-9.4-10.16c-6.05-4.55-13.6-7.25-20.87-7.48C809.02,262.96,809.36,262.62,809.68,262.29z M882.98,260.33
	c2.51-1.84,5.5-3.43,8.2-4.36c1.93-0.66,3.73-0.99,5.33-0.99c1.25,0,2.37,0.2,3.36,0.6c1.86,0.76,4.15,3.5,5.99,5.71
	c0.57,0.68,1.12,1.34,1.62,1.9c-4.1-0.05-8.39,0.78-12.18,2.35c-3.67,1.52-7.18,3.76-10.44,6.64c-2.88,2.54-5.42,5.46-7.56,8.69
	c-0.04-0.16-0.09-0.33-0.13-0.49C874.58,270.8,873.61,267.21,882.98,260.33z"/>
<g>
	<g>
		<g>
			<path class="st2" d="M856.44,170.78c-19.46,0-35.24,3.87-35.24,31.67c0,10.93,8.86,19.8,19.8,19.8h30.88
				c10.93,0,19.8-8.86,19.8-19.8C891.68,174.65,875.9,170.78,856.44,170.78z"/>
			<path class="st3" d="M856.44,170.78c-19.46,0-35.24,3.87-35.24,31.67c0,10.93,8.86,19.8,19.8,19.8h30.88
				c10.93,0,19.8-8.86,19.8-19.8C891.68,174.65,875.9,170.78,856.44,170.78z"/>
			<path class="st4" d="M875.93,208.87h-38.97c-11.69,0-12.99-6.36-15.15-14.95c-0.39,2.56-0.6,5.39-0.6,8.54
				c0,10.93,8.86,19.8,19.8,19.8h30.88c10.93,0,19.8-8.86,19.8-19.8c0-3.15-0.21-5.98-0.6-8.54
				C888.92,202.5,887.62,208.87,875.93,208.87z"/>
			<path d="M873.23,205.57H840.3c-9.15,0-12.61-3.57-12.61-8.96c0-5.39,5.3-10.54,15.35-10.54h27.45c10.04,0,15.35,5.16,15.35,10.54
				C885.84,202,882.38,205.57,873.23,205.57z"/>
			<path class="st5" d="M856.44,197.43c10.93,0,21.03-0.79,29.28-2.12c-0.79-4.88-6-9.24-15.23-9.24h-27.45
				c-9.29,0-14.52,4.41-15.25,9.34C835.92,196.68,845.79,197.43,856.44,197.43z"/>
			<g>
				<g>
					<path class="st6" d="M844.48,202.07c-3.48,0-6.3-2.83-6.3-6.3c0-3.48,2.83-6.3,6.3-6.3c3.48,0,6.3,2.83,6.3,6.3
						C850.79,199.25,847.96,202.07,844.48,202.07z M844.48,191.05c-2.6,0-4.72,2.12-4.72,4.72c0,2.6,2.12,4.72,4.72,4.72
						c2.6,0,4.72-2.12,4.72-4.72C849.2,193.17,847.09,191.05,844.48,191.05z"/>
				</g>
				<path d="M847.57,195.77c0,1.7-1.38,3.09-3.09,3.09c-1.71,0-3.09-1.38-3.09-3.09c0-1.7,1.38-3.09,3.09-3.09
					C846.19,192.68,847.57,194.06,847.57,195.77z"/>
				<path class="st2" d="M844.69,194.53c0,0.71-0.58,1.29-1.29,1.29c-0.71,0-1.29-0.58-1.29-1.29c0-0.71,0.58-1.29,1.29-1.29
					C844.11,193.24,844.69,193.82,844.69,194.53z"/>
			</g>
			<g>
				<g>
					<path class="st6" d="M868.4,202.07c-3.48,0-6.3-2.83-6.3-6.3c0-3.48,2.83-6.3,6.3-6.3c3.48,0,6.3,2.83,6.3,6.3
						C874.7,199.25,871.87,202.07,868.4,202.07z M868.4,191.05c-2.6,0-4.72,2.12-4.72,4.72c0,2.6,2.12,4.72,4.72,4.72
						c2.6,0,4.72-2.12,4.72-4.72C873.12,193.17,871,191.05,868.4,191.05z"/>
				</g>
				<path d="M865.31,195.77c0,1.7,1.38,3.09,3.09,3.09c1.7,0,3.09-1.38,3.09-3.09c0-1.7-1.38-3.09-3.09-3.09
					C866.69,192.68,865.31,194.06,865.31,195.77z"/>
				<path class="st2" d="M868.19,194.53c0,0.71,0.58,1.29,1.29,1.29c0.72,0,1.29-0.58,1.29-1.29c0-0.71-0.58-1.29-1.29-1.29
					C868.77,193.24,868.19,193.82,868.19,194.53z"/>
			</g>
			<g>
				<path class="st7" d="M856.44,211c-3.9,0-7.44,1.44-9.23,3.77c-0.4,0.52-0.3,1.27,0.21,1.66c0.52,0.4,1.26,0.31,1.67-0.21
					c1.33-1.73,4.22-2.84,7.35-2.84c3.13,0,6.01,1.12,7.35,2.84c0.4,0.52,1.15,0.62,1.67,0.21c0.52-0.4,0.61-1.15,0.21-1.66
					C863.87,212.44,860.34,211,856.44,211z"/>
			</g>
			<path class="st4" d="M856.44,263.42c-6.8,0-14.09-6.86-16.3-15.32l-2.12-8.15c-2.21-8.46,3.1-15.32,11.84-15.32h13.17
				c8.75,0,14.05,6.86,11.84,15.32l-2.12,8.15C870.53,256.56,863.24,263.42,856.44,263.42z"/>
			<path class="st5" d="M856.44,175.98c8.59,0,16.49-0.42,22.75-1.11c-6.14-3.32-14.08-4.09-22.75-4.09s-16.61,0.78-22.75,4.09
				C839.95,175.57,847.85,175.98,856.44,175.98z"/>
			<path class="st8" d="M864.73,171.35c0,1.18-0.96,2.14-2.14,2.14h-12.3c-1.18,0-2.14-0.96-2.14-2.14l0,0
				c0-1.18,0.96-2.14,2.14-2.14h12.3C863.77,169.21,864.73,170.16,864.73,171.35L864.73,171.35z"/>
			<g>
				<rect x="855.65" y="159.26" class="st8" width="1.58" height="9.95"/>
			</g>
			<path class="st5" d="M860.57,159.26c0,2.28-1.85,4.13-4.13,4.13c-2.28,0-4.13-1.85-4.13-4.13c0-2.28,1.85-4.13,4.13-4.13
				C858.72,155.12,860.57,156.97,860.57,159.26z"/>
			<path class="st7" d="M856.44,161.82c2.01,0,3.69-1.44,4.05-3.35c0.05,0.25,0.08,0.51,0.08,0.78c0,2.28-1.85,4.13-4.13,4.13
				c-2.28,0-4.13-1.85-4.13-4.13c0-0.27,0.03-0.53,0.08-0.78C852.75,160.38,854.43,161.82,856.44,161.82z"/>
			<path class="st9" d="M850.29,170.27h12.3c1,0,1.83,0.69,2.06,1.61c0.04-0.17,0.07-0.35,0.07-0.53c0-1.18-0.96-2.14-2.14-2.14
				h-12.3c-1.18,0-2.14,0.96-2.14,2.14c0,0.18,0.03,0.36,0.07,0.53C848.46,170.95,849.29,170.27,850.29,170.27z"/>
		</g>
	</g>
	<g>
		<path class="st5" d="M874.47,237.48c-1.27,0-2.46-0.79-2.91-2.06c-0.56-1.6,0.27-3.35,1.87-3.92c0.14-0.05,5.56-2.17,11.02-9.74
			c1-1.38,2.92-1.69,4.3-0.7c1.38,1,1.69,2.92,0.7,4.3c-6.73,9.33-13.67,11.84-13.96,11.95
			C875.16,237.42,874.81,237.48,874.47,237.48z"/>
	</g>
	<path class="st5" d="M840.58,227.34c3.49,1,8.85,1.64,14.87,1.64c6.02,0,11.38-0.64,14.87-1.64c-2.11-1.71-4.95-2.71-8.29-2.71
		h-13.17C845.53,224.62,842.69,225.63,840.58,227.34z"/>
</g>
<path class="st0" d="M860.12,105.47c-59.37,0-107.5,48.13-107.5,107.5c0,19.55,5.22,37.88,14.34,53.67l-0.01-0.02l-14.4,10.04
	c-3.47-3.19-8.8-3.69-12.83-0.86l-55.54,38.17c-0.07,0.04-0.14,0.1-0.2,0.14l-0.5,0.34l0.01,0.01c-3.67,2.76-6.05,7.14-6.05,12.09
	c0,8.34,6.77,15.11,15.12,15.11c3.14,0,6.05-0.95,8.46-2.59l0.01,0.02l56-38.51c4.01-2.83,5.4-8,3.6-12.35l14.16-9.88l-0.02-0.04
	c19.65,25.63,50.57,42.16,85.36,42.16c59.37,0,107.5-48.13,107.5-107.5C967.62,153.6,919.49,105.47,860.12,105.47z M860.12,304.03
	c-50.29,0-91.05-40.77-91.05-91.05c0-50.29,40.76-91.05,91.05-91.05c50.29,0,91.05,40.77,91.05,91.05
	C951.18,263.26,910.41,304.03,860.12,304.03z"/>
<g>
	<g>
		<path class="st0" d="M61.01,406.53l19.51-39.81h16.87l19.38,39.81h-11.9l-3.68-7.54H76.65l-3.68,7.54H61.01z M97.32,391.01
			l-8.34-17.11l-8.4,17.11H97.32z"/>
		<path class="st0" d="M121.42,406.53v-39.81h10.73v39.81H121.42z"/>
		<path class="st0" d="M164.79,391.32h-25.76v-10.06h25.76V391.32z"/>
		<path class="st0" d="M170.92,406.53l19.51-39.81h16.87l19.38,39.81h-11.9l-3.68-7.54h-24.54l-3.68,7.54H170.92z M207.24,391.01
			l-8.34-17.11l-8.4,17.11H207.24z"/>
		<path class="st0" d="M230.24,397.35v-30.62h10.73v24.92c0,1.59,0.59,2.94,1.78,4.04c1.19,1.1,2.64,1.65,4.35,1.65h14.29
			c1.72,0,3.17-0.55,4.35-1.65c1.19-1.1,1.78-2.45,1.78-4.04v-24.92h10.73v30.62c0,2.53-1.04,4.7-3.13,6.49
			c-2.09,1.8-4.62,2.69-7.61,2.69h-26.56c-2.9,0-5.42-0.9-7.54-2.69C231.3,402.04,230.24,399.88,230.24,397.35z"/>
		<path class="st0" d="M333.59,381.11v10.72c0,4.04-1.04,7.5-3.13,10.38c-2.09,2.88-4.62,4.32-7.61,4.32h-38.95v-39.81h38.95
			c2.94,0,5.47,1.42,7.58,4.26C332.54,373.82,333.59,377.2,333.59,381.11z M322.86,391.64v-10.52c0-1.22-0.5-2.24-1.5-3.06
			c-1-0.81-2.24-1.22-3.71-1.22h-23v19.57h22.82c1.47,0,2.74-0.47,3.8-1.41C322.33,394.07,322.86,392.95,322.86,391.64z"/>
		<path class="st0" d="M339.85,406.53v-39.81h10.73v39.81H339.85z"/>
		<path class="st0" d="M384.75,406.53h-12.21v-29.07h-16.62v-10.73h45.39v10.73h-16.56V406.53z"/>
		<path class="st0" d="M406.4,393.77l10.73,0.31c0,1.23,0.3,2.28,0.89,3.16c0.59,0.88,1.32,1.32,2.18,1.32h14.72
			c1.47,0,2.73-0.38,3.77-1.14c1.04-0.76,1.56-1.67,1.56-2.73c0-0.98-0.37-1.82-1.1-2.51c-0.74-0.69-1.64-1.04-2.7-1.04l-19.32-0.67
			c-3.68,0-6.39-0.89-8.13-2.66c-1.74-1.77-2.61-4.09-2.61-6.94v-6.18c0-2.2,1.04-4.08,3.13-5.63c2.09-1.55,4.62-2.33,7.61-2.33
			h24.23c2.33,0,4.31,0.78,5.95,2.33c1.64,1.55,2.45,3.43,2.45,5.64v3.8h-10.73c0-1.14-0.35-2.06-1.04-2.76
			c-0.7-0.69-1.78-1.04-3.25-1.04h-14.72c-0.78,0-1.45,0.33-2.02,0.98c-0.57,0.65-0.86,1.45-0.86,2.39c0,1.19,0.11,2.03,0.34,2.55
			c0.22,0.51,0.87,0.77,1.93,0.77l20.86,0.67c3.27,0,5.88,0.83,7.82,2.48c1.94,1.66,2.91,4.63,2.91,8.92c0,5.11-1.1,8.57-3.31,10.37
			c-2.21,1.8-5.54,2.7-10,2.7h-20.55c-2.94,0-5.47-0.79-7.58-2.36c-2.11-1.57-3.16-3.44-3.16-5.61V393.77z"/>
	</g>
	<path class="st1" d="M341.26,232.92c-3.43-0.77-7.33-1.63-7.86-2.11c-0.77-0.69-1.48-1.57-2.11-2.62
		c-1.4-3.56-2.47-7.16-3.21-10.73c-0.16-1.41-0.24-2.86-0.25-4.34c-0.07-8.12,2.04-15.38,5.38-18.55c0.31-0.08,0.91-0.23,1.71-0.43
		c13.44-3.33,16.38-4.4,16.76-5.06c0.07-0.12,0.09-0.26,0.06-0.38c-0.03-0.1-0.1-0.25-0.28-0.35c-0.82-0.46-4.05,0.38-10.99,2.44
		c-2.23,0.66-4.33,1.29-4.83,1.32c-5.73,0.43-10.97-2.89-15.55-9.88c-2.3-3.51-4.05-7.69-4.79-11.45
		c-0.89-4.52-0.37-8.43,1.49-11.31c0.25-0.39,1.86-1.91,3.56-3.53c5.25-4.98,7.6-7.36,7.61-8.29c0-0.21-0.09-0.34-0.16-0.41
		c-0.07-0.07-0.2-0.16-0.41-0.16c-0.96,0.01-3.62,2.64-8.86,8.15c-1.42,1.5-2.66,2.79-3.02,3.08c-5.09,3.97-10.2,4.46-16.59,1.57
		c-3.47-1.57-7.57-4.76-10.7-8.33c-3.58-4.08-5.53-8.14-5.49-11.46c0.01-0.54,0.74-2.99,1.52-5.58c2.06-6.89,2.91-10.1,2.45-10.92
		c-0.1-0.18-0.25-0.26-0.35-0.28c-0.1-0.03-0.26-0.04-0.43,0.07c-0.8,0.47-1.72,3.82-3.37,10.66c-0.45,1.87-0.88,3.64-1.04,4
		c-2.67,5.95-7.98,6.97-15.77,7.85c-5.28,0.59-18,1.11-22.17-6.92c-0.27-0.51-0.82-2.86-1.41-5.34c-1.59-6.7-2.43-9.77-3.23-10.24
		c-0.18-0.11-0.35-0.1-0.45-0.07c-0.1,0.03-0.24,0.1-0.35,0.28c-0.45,0.81,0.41,4.11,2.38,10.77c0.56,1.9,1.09,3.7,1.13,4.09
		c0.63,7.11-4.89,10.7-10.74,14.49c-4.03,2.62-7.71,4.47-10.92,5.52c-4.45,1.44-8.07,1.36-10.78-0.24c-0.51-0.3-2.23-2.13-4.05-4.07
		c-4.67-4.97-6.77-7.05-7.7-7.07c-0.22-0.01-0.36,0.09-0.43,0.17c-0.08,0.08-0.16,0.21-0.16,0.42c0.01,0.93,2.34,3.29,7.54,8.22
		c1.72,1.63,3.35,3.18,3.64,3.6c4.01,6.02,1.55,13.76-1.22,19.19c-3.31,6.5-9.92,13.92-17.65,13.45c-0.45-0.03-2.54-0.65-4.75-1.3
		c-6.99-2.07-10.24-2.92-11.06-2.46c-0.18,0.1-0.25,0.24-0.28,0.34c-0.03,0.1-0.04,0.27,0.07,0.45c0.48,0.8,3.6,1.66,10.41,3.28
		c2.41,0.57,4.69,1.11,5.15,1.36c5.86,3.08,7.42,11.04,8.12,17.64c0.5,4.66,0.71,15.96-8.04,20.05c-0.4,0.19-2.42,0.67-4.55,1.19
		c-7.29,1.76-10.62,2.68-11.1,3.49c-0.1,0.17-0.09,0.33-0.07,0.43c0.03,0.1,0.1,0.25,0.28,0.35c0.36,0.2,1.23,0.28,4.97-0.69
		c2.3-0.59,4.9-1.37,6.8-1.94c1.13-0.34,2.02-0.6,2.25-0.65c6.69-1.34,12.24,1.22,18.02,8.3c5.06,6.2,7.78,16.19,3.2,23.28
		c-0.24,0.38-1.93,1.98-3.71,3.67c-5.55,5.28-8.03,7.8-8.04,8.73c0,0.2,0.08,0.33,0.16,0.41c0.07,0.07,0.21,0.16,0.41,0.16
		c0.98-0.01,3.78-2.78,8.61-7.89c0.9-0.95,1.68-1.78,1.89-1.95c5.56-4.68,10.87-3.57,18.73,0.12c5.63,2.64,15.21,9.14,15.43,16.74
		c0.01,0.48-0.76,3.08-1.52,5.59c-2.06,6.87-2.9,10.07-2.44,10.88c0.1,0.18,0.25,0.26,0.35,0.28c0.1,0.03,0.26,0.04,0.44-0.07
		c0.82-0.49,1.79-4,3.4-10.73c0.36-1.49,0.64-2.66,0.76-3.01c2.72-7.66,9.72-9.05,17.28-9.88c5.04-0.56,17.18-0.8,21.15,8.94
		c0.15,0.36,0.52,1.91,0.95,3.69c1.69,7.05,2.64,10.5,3.46,10.99c0.11,0.07,0.21,0.09,0.3,0.09c0.05,0,0.1-0.01,0.14-0.02
		c0.1-0.03,0.24-0.1,0.34-0.28c0.46-0.82-0.4-4.12-2.5-11.22c-0.64-2.16-1.25-4.2-1.26-4.59c-0.29-6.9,6.48-12.22,11.6-15.62
		c6.05-4.02,14.73-7.74,21.69-2.58c0.27,0.2,1.36,1.35,2.63,2.68c5.03,5.3,7.6,7.83,8.55,7.84c0,0,0.01,0,0.01,0
		c0.2,0,0.33-0.09,0.4-0.16c0.08-0.08,0.16-0.21,0.16-0.42c-0.01-0.95-2.39-3.36-7.72-8.41c-1.63-1.55-3.18-3.01-3.47-3.42
		c-4.51-6.37-2.85-15.68,0.79-22.07c4.28-7.51,11.36-11.37,18.95-10.32c0.39,0.05,1.9,0.5,3.65,1.03
		c6.82,2.03,10.44,2.98,11.29,2.51c0.18-0.1,0.26-0.25,0.28-0.35c0.03-0.11,0.04-0.29-0.08-0.49
		C351.1,235.17,347.36,234.27,341.26,232.92z M330.59,228.52c0.22,0.56,0.45,1.13,0.69,1.69c-0.78-0.17-1.67-0.34-2.61-0.5
		c-2.74-0.5-5.86-1.06-7.47-2.19c-3.77-2.64-4.95-11.83-5.23-14.58c-0.62-6.23,0.35-10.16,3.14-12.76c2.4-2.24,5.96-3.41,11.03-4.79
		c-1.99,2.66-3.21,5.99-3.64,9.93c-0.38,3.49-0.14,7.45,0.71,11.77c0.03,0.16,0.06,0.32,0.1,0.48c0.24,2.18,0.65,4.25,1.21,6.12
		C329.08,225.53,329.77,227.16,330.59,228.52z M193.69,195.13c4.81,1.29,8.63,2.4,11.1,4.63c2.62,2.35,3.89,5.96,4.41,12.44
		c0.99,12.48-4.37,14.92-14.82,17.77c2.14-3,3.56-6.57,4.13-10.39C199.6,212.24,197.89,203.59,193.69,195.13z M312.66,261.67
		c-3.41-3.41-6.35-6.36-7.68-9.73c-1.44-3.66-0.94-7.62,1.63-12.83c2.64-5.35,5.96-8.2,10.44-8.97c0.87-0.15,1.77-0.22,2.7-0.22
		c3.11,0,6.52,0.75,10.03,1.67c-4.52,1.71-8.34,4.27-11.11,7.47c-2.66,3.08-4.51,6.85-5.5,11.22
		C312.38,253.89,312.2,257.8,312.66,261.67z M211.91,163.37c3.45,3.44,6.17,6.16,7.33,9.26c1.22,3.25,0.68,6.93-1.75,11.92
		c-2.03,4.17-7.29,11.06-12.74,11.77c-2.08,0.27-5.16-0.87-7.87-1.88c-0.89-0.33-1.74-0.65-2.52-0.9c4.33-2.35,7.92-5.32,10.7-8.84
		c2.39-3.03,4.28-6.67,5.45-10.54C211.56,170.65,212.04,166.95,211.91,163.37z M218.93,237.76c-2.48-4.01-6.34-7.4-10.93-9.64
		l10.68-2.86c4.65,1.78,9.14,6.07,10.95,10.47c1.23,2.98,1.24,5.83,0.03,8.46c-0.93,2.01-3.44,4.11-5.66,5.96
		c-0.71,0.59-1.38,1.16-1.99,1.7C222.64,246.89,221.58,242.04,218.93,237.76z M302.9,251.92c-0.41-0.41-0.83-0.8-1.23-1.19
		c-2.81-2.71-5.23-5.05-6.38-7.85c-1.26-3.05-0.81-6.35,1.42-10.39c2.18-3.96,4.82-6,8.29-6.41c0.47-0.06,0.94-0.08,1.42-0.08
		c2.79,0,5.85,0.85,9.06,1.75c0.33,0.09,0.67,0.19,1,0.28c-4.71,1.9-8.44,5.17-10.84,9.52C303.31,241.76,302.37,246.71,302.9,251.92
		z M210.29,208c-0.7-3.2-1.79-6.32-3.24-9.3c0.53,0.14,1.05,0.27,1.55,0.4c3.99,1.03,7.14,1.84,9.3,3.69
		c2.27,1.95,3.38,5.04,3.62,10.04c0.21,4.61-0.78,7.67-3.12,9.61c-2.18,1.81-5.39,2.61-9.11,3.55c-0.53,0.13-1.06,0.27-1.61,0.41
		C210.93,221.6,211.86,215.12,210.29,208z M221.67,173.14l7.93,7.93c0.36,3.28-0.59,7.75-2.43,11.43c-1.26,2.52-4.05,6.85-8.56,7.54
		c-2.11,0.32-5.39-0.91-8.28-1.99c-0.93-0.35-1.83-0.68-2.63-0.94c4.29-2.43,7.84-5.9,10.31-10.09
		C220.52,182.77,221.77,177.99,221.67,173.14z M230.95,234.81L230.95,234.81c-1.5-4.19-4.98-7.89-9.65-10.28
		c0.78-0.23,1.56-0.48,2.32-0.72c5.65-1.8,10.98-3.5,14.67,2.84c3.59,6.18-0.5,9.91-4.84,13.85c-0.56,0.51-1.13,1.03-1.68,1.55
		C232.03,239.61,231.75,237.17,230.95,234.81z M293.16,242.18c-0.57-0.54-1.15-1.07-1.72-1.59c-4.41-4.01-8.57-7.8-5.05-14.06
		c1.6-2.85,3.67-4.25,6.5-4.4c0.17-0.01,0.34-0.01,0.5-0.01c2.41,0,5.08,0.85,7.67,1.67c0.7,0.22,1.41,0.45,2.12,0.66
		C296.39,227.44,292.55,234.21,293.16,242.18z M223.14,216.62c0.3-2.36,0.16-4.91-0.43-7.58c-0.5-2.27-1.29-4.6-2.31-6.77
		c1,0.25,1.97,0.45,2.92,0.66c2.86,0.61,5.33,1.13,7.16,2.43c1.99,1.41,2.98,3.63,3.13,6.98c0.15,3.51-0.71,5.84-2.71,7.33
		c-1.84,1.37-4.55,1.97-7.42,2.6c-0.82,0.18-1.67,0.37-2.52,0.58C222.11,221.03,222.84,218.94,223.14,216.62z M283.44,232.48
		c-0.53-0.48-1.12-0.97-1.74-1.49c-3.12-2.62-7-5.88-5.89-9.41c0.41-1.32,1.1-2.2,2.11-2.71c0.71-0.36,1.54-0.5,2.44-0.5
		c2.36,0,5.21,1,7.63,1.85c0.68,0.24,1.33,0.47,1.94,0.67c-2.12,1.07-3.82,2.72-4.96,4.81C283.89,227.7,283.36,230.03,283.44,232.48
		z M239.66,225.73c-1.2-1.92-2.93-3.54-5.04-4.75l10.81-2.9c2.27,0.93,3.55,2.12,3.81,3.53c0.57,3.11-3.62,6.94-6.68,9.74
		c-0.38,0.35-0.76,0.69-1.1,1.01C241.55,230.04,240.93,227.76,239.66,225.73z M289.8,214.65L289.8,214.65
		c0.33,1.64,0.81,3.26,1.4,4.82c-0.86-0.2-1.78-0.36-2.75-0.53c-4.43-0.78-9.01-1.59-9.5-5.88c-0.56-4.84,4.6-5.78,9.16-6.61
		c0.83-0.15,1.63-0.3,2.37-0.46C288.99,208.9,289.39,212.6,289.8,214.65z M272.78,224.25c-2.25,0.42-4.2,1.87-5.48,3.32l-3.22-12.02
		L272.78,224.25z M265.31,210.96l8.71-8.71c0.34,2.24,1.45,4.26,3.05,5.55L265.31,210.96z M277.41,209.51
		c-0.7,2.11-0.13,4.65,0.45,6.37l-12.11-3.24L277.41,209.51z M276.77,217.39c-1.7,1.19-2.8,3.17-2.99,5.4l-8.47-8.47L276.77,217.39z
		 M275.67,203.71c-0.6-3.26,3.95-7.42,6.96-10.18c0.4-0.37,0.77-0.71,1.1-1.02c0.17,2.4,0.81,4.7,1.88,6.7
		c1.13,2.12,2.73,3.85,4.64,5.06l-10.88,2.92C277.18,206.29,275.93,205.12,275.67,203.71z M269.52,200.57
		c0.5,0.41,1.12,0.62,1.85,0.62c0,0,0.01,0,0.01,0c0.32,0.12,0.64,0.21,0.97,0.26l-8.28,8.28l3.18-11.88
		c0.4,0.53,0.85,1.06,1.36,1.54C268.85,199.88,269.15,200.27,269.52,200.57z M235.13,210.09L235.13,210.09
		c-0.33-1.46-0.8-2.88-1.39-4.25c0.83,0.19,1.71,0.34,2.64,0.51c4.17,0.74,8.9,1.57,9.55,5.61c0.82,5.04-4.63,6.04-9.45,6.92
		c-0.8,0.15-1.57,0.29-2.28,0.44C235.54,216.81,235.88,213.5,235.13,210.09z M262.4,209.27l-3.21-11.97
		c1.9,0.62,4.22,0.57,6.45-0.13L262.4,209.27z M260.72,209.72l-8.93-8.93c2.13-0.57,4.17-1.73,5.67-3.24L260.72,209.72z
		 M247.65,207.78c1.7-1.35,2.86-3.34,3.19-5.48l8.65,8.65L247.65,207.78z M247.32,215.77c0.55-1.5,0.62-3.06,0.22-4.66l-0.56-1.71
		l12.06,3.23L247.32,215.77z M259.49,214.32l-8.42,8.42c-0.2-2.05-1.38-3.98-3.24-5.3L259.49,214.32z M260.72,215.55l-3.22,12.02
		c-1.43-1.64-3.46-2.82-5.55-3.25L260.72,215.55z M262.4,216l3.16,11.78c-2.11-0.79-4.51-0.48-6.36,0.2L262.4,216z M266.2,195.11
		c-2.44,1.09-4.34,1.27-5.79,0.54c-2.56-1.29-3.41-5.28-4.23-9.14c-0.17-0.82-0.35-1.66-0.55-2.47c3.88,1.68,8.85,1.62,13.58-0.18
		L266.2,195.11z M248.78,203.42c-0.37,1.39-1.05,2.33-2.07,2.87c-2.59,1.37-6.86-0.14-10.3-1.34c-0.72-0.25-1.41-0.49-2.04-0.69
		c4.03-2.6,6.55-6.94,6.79-11.65c0.59,0.54,1.24,1.08,1.92,1.66C246.2,196.88,249.73,199.85,248.78,203.42z M274.27,199.54
		c-1.08,0.55-2,0.85-2.75,0.88c-0.8-0.32-1.56-0.85-2.24-1.48c-0.78-1.83-0.84-5.84,1.55-14.41c2.07,3.18,5.8,7.51,10.67,7.51
		c0.09,0,0.19,0,0.28,0L274.27,199.54z M250.38,225.88c2.5,0,4.22,0.63,5.13,1.87c1.84,2.5,0.31,7.25-0.92,11.07
		c-0.23,0.71-0.45,1.4-0.64,2.04c-2.85-3.84-7.13-6.34-11.7-6.84L250.38,225.88z M255.63,241.26l2.98-11.12
		c2.27-1.25,4.07-1.54,5.5-0.9c2.72,1.22,3.68,5.69,4.53,9.64c0.16,0.73,0.31,1.44,0.47,2.1c-1.96-1.02-4.27-1.5-6.73-1.39
		C260.13,239.69,257.82,240.27,255.63,241.26z M272.35,226.21c2.92-0.24,5.9,3.06,8.52,5.97c0.55,0.61,1.08,1.2,1.6,1.74
		c-2.21,0.18-4.44,0.94-6.52,2.22c-1.92,1.19-3.67,2.81-5.1,4.7l-2.99-11.16C269.3,227.48,270.77,226.34,272.35,226.21z
		 M253.89,184.25l3.02,11.29c-1.63,2.16-3.22,3.24-4.86,3.32c-2.86,0.14-5.56-2.88-8.18-5.79c-0.61-0.68-1.23-1.37-1.85-2.02
		C246.69,190.09,250.94,187.65,253.89,184.25z M293.59,205.82c1.78-1.45,4.46-2.06,7.57-2.76c0.81-0.18,1.64-0.37,2.48-0.58
		c-1.99,3.16-2.45,7.52-1.37,12.99c0.49,2.49,1.27,5.09,2.28,7.57c-1.12-0.28-2.19-0.5-3.23-0.72c-5.49-1.14-9.11-1.89-9.89-8.68
		C291,209.86,291.68,207.37,293.59,205.82z M292.74,203.6c-2.22-0.86-4.38-2.89-5.8-5.44c-1.5-2.7-1.92-5.52-1.15-7.74
		c0.66-1.9,3.45-4.18,5.69-6.01c0.73-0.59,1.42-1.16,2-1.68c0.14,3.74,1.06,7.3,2.69,10.37c1.74,3.28,4.27,5.9,7.35,7.61
		L292.74,203.6z M269.78,181.74c-2.49,1.15-5.5,1.84-8.09,1.83c-2.24-0.01-5.27-0.53-6.99-2.95c-1.12-1.58-1.68-4.67-2.17-7.4
		c-0.16-0.89-0.31-1.74-0.48-2.49c2.86,1.39,6.14,2.09,9.6,2.09c3.62,0,7.43-0.76,11.13-2.29L269.78,181.74z M237.93,198.07
		c-1.69,3.09-3.7,4.65-6.35,4.91c-2.41,0.23-5.13-0.62-8-1.53c-0.82-0.26-1.66-0.52-2.51-0.77c6.44-3.82,10.32-10.5,10.36-17.79
		c0.67,0.64,1.34,1.25,2.01,1.84c2.12,1.91,4.12,3.72,5.14,5.81C239.69,192.82,239.48,195.21,237.93,198.07z M284.06,189.74
		c-2.07,1.09-4.29,0.46-5.81-0.27c-3.24-1.55-6.18-4.97-6.7-7.79c-0.37-2,0.91-5.35,1.93-8.05c0.34-0.88,0.66-1.73,0.9-2.48
		c1.59,2.55,4.01,5.82,7.08,8.2c3.22,2.5,6.54,3.55,9.86,3.12L284.06,189.74z M250.32,170.92l3.02,11.26
		c-2.62,3.58-9.1,8.14-13.22,7.03c-1.82-0.49-4.23-3.48-6.18-5.88c-0.63-0.78-1.2-1.49-1.7-2.04c3.47-0.64,6.9-1.88,9.97-3.61
		C245.42,175.85,248.15,173.58,250.32,170.92z M240.6,235.67c2.32-0.03,5.22,0.79,7.63,2.15c2.76,1.57,4.54,3.63,5.02,5.79
		c0.42,1.91-0.9,5.37-1.96,8.14c-0.34,0.88-0.66,1.73-0.9,2.47c-2.05-2.95-4.73-5.44-7.78-7.26c-3.13-1.85-6.6-2.95-10.1-3.2
		L240.6,235.67z M262.4,251.84c-3.43,0.15-6.99,1.1-10.34,2.75l2.97-11.08c2.47-1.41,5.37-2.21,7.99-2.21c0.03,0,0.05,0,0.08,0
		c2.17,0.01,5.15,0.6,6.99,3.32c1.1,1.62,1.65,4.62,2.13,7.27c0.15,0.84,0.3,1.65,0.46,2.38
		C269.73,252.51,266.19,251.67,262.4,251.84z M274.43,254.18l-2.98-11.13c1.46-2.34,3.69-4.49,5.98-5.79
		c1.92-1.08,4.8-2.1,7.63-0.77c1.76,0.83,3.77,3.2,5.54,5.28c0.57,0.67,1.12,1.32,1.63,1.88c-3.42,0.11-6.88,1.2-10.08,3.17
		C279.2,248.67,276.55,251.19,274.43,254.18z M306.12,200.02c-2.9-1.08-5.91-3.65-8.1-6.9c-2.34-3.49-3.33-7.23-2.74-10.25
		c0.64-3.21,3.47-5.78,6.22-8.26c0.58-0.53,1.18-1.07,1.76-1.62c0.11,5.04,1.33,9.88,3.54,14.04c2.38,4.47,5.83,7.95,10.04,10.12
		L306.12,200.02z M262.38,160.34c4.65-0.14,9.47-1.23,13.98-3.16l-3,11.2c-5.36,2.54-17.47,5.21-21.95,0.05
		c-1.34-1.55-1.96-5.28-2.45-8.27c-0.16-0.99-0.32-1.95-0.49-2.76C252.51,159.48,257.29,160.49,262.38,160.34z M251.44,256.89
		c3.07-1.78,7.45-3.14,11.2-3.46c3.41-0.3,8.04,0.05,10.73,3.41c1.32,1.65,1.89,5.07,2.4,8.1c0.16,0.95,0.31,1.86,0.48,2.66
		c-3.92-2.5-8.68-3.7-13.82-3.48c-4.66,0.2-9.47,1.52-13.95,3.83L251.44,256.89z M316.32,226.2c-4.14-1.07-7.13-1.84-9.18-3.67
		c-2.13-1.9-3.19-4.93-3.57-10.13c-0.72-9.95,4.22-11.19,11.7-13.06c0.52-0.13,1.06-0.26,1.6-0.4c-1.5,2.15-2.41,4.8-2.73,7.9
		c-0.29,2.8-0.09,5.98,0.6,9.45c0.68,3.43,1.74,6.9,3.16,10.33C317.36,226.47,316.83,226.33,316.32,226.2z M300.94,172.86
		l-7.09,7.09c-2.76,1.51-5.92,0.8-8.09-0.07c-4.47-1.79-8.68-5.89-9.81-9.53c-0.97-3.13,0.19-6.76,1.31-10.27
		c0.24-0.75,0.48-1.51,0.7-2.27c2.11,3.46,5.38,7.96,9.57,11.2c3.54,2.73,7.14,4.11,10.75,4.11
		C299.18,173.11,300.06,173.03,300.94,172.86z M249.75,168.8c-1.41,1.97-4.61,5.18-8.49,7.76c-4.31,2.87-8.05,4.02-10.54,3.24
		c-1.91-0.6-4.39-3.63-6.38-6.06c-0.67-0.82-1.32-1.61-1.88-2.24c4.68-0.8,9.31-2.44,13.43-4.77c4.28-2.41,8.02-5.57,10.85-9.17
		L249.75,168.8z M230.81,245.46c5.79-0.16,15.58,3.47,18.01,9.64c1.13,2.87-0.08,6.54-1.26,10.09c-0.27,0.82-0.53,1.61-0.76,2.37
		c-5.58-8.3-14.66-13.59-24.06-14.03L230.81,245.46z M278.01,267.52l-2.98-11.1c3.29-5.35,12.31-13.48,18.97-10.99
		c1.96,0.73,4.21,3.46,6.19,5.87c0.63,0.77,1.24,1.5,1.79,2.12c-4.63,0.03-9.33,1.43-13.65,4.1
		C284.35,259.99,280.79,263.44,278.01,267.52z M330.18,193.58c-0.17,0.05-0.34,0.09-0.51,0.14c-8.94,2.43-13.87,3.77-20.12-5.34
		c-2.86-4.17-6.17-12.62-4.18-17.51c0.79-1.94,3.35-4.05,5.6-5.91c0.75-0.62,1.46-1.21,2.08-1.76c0.04,5.31,0.94,10.17,2.67,14.47
		c1.42,3.52,3.54,6.87,6.15,9.67C324.28,189.94,327.14,192.09,330.18,193.58z M279.79,144.37c-2.57,9.66-3.43,12.92-15.14,14.07
		c-6.18,0.61-13.88-0.09-16.96-3.89c-0.51-0.62-0.91-1.6-1.24-2.73c-0.11-0.56-0.26-1.14-0.44-1.73c-0.26-1.19-0.48-2.43-0.67-3.57
		c-0.15-0.89-0.3-1.74-0.45-2.47c3.55,1.91,7.46,3.13,11.65,3.62c7.46,0.87,15.74-0.49,23.4-3.85
		C279.89,144,279.84,144.19,279.79,144.37z M206.93,229.94c3.82,0.63,6.99,3.12,10.28,8.1c3.28,4.97,4.11,9.21,2.61,13.34
		c-1.28,3.51-4.14,6.7-7.54,10.15c0.68-4.58,0.31-9.03-1.09-12.96c-1.37-3.83-3.72-7.35-6.98-10.45c-2.7-2.57-5.98-4.78-9.55-6.43
		C199.52,230.38,203.39,229.36,206.93,229.94z M261.26,265.88c1.07-0.09,2.08-0.14,3.04-0.14c4.74,0,7.99,1.15,10.32,3.61
		c2.51,2.64,3.83,6.63,5.18,11.56c-3.4-2.26-7.29-3.75-11.34-4.33c-3.97-0.57-8.2-0.36-12.58,0.64c-3.69,0.84-7.47,2.25-10.98,4.1
		C247.62,271.16,248.91,266.94,261.26,265.88z M301.22,162.63c3.26,1.03,6.41,1.22,9.41,0.56c-0.27,0.28-0.54,0.56-0.81,0.83
		c-5.56,5.71-9.58,9.84-18.6,5.27c-4.51-2.28-11.74-9.31-12.49-14.35c-0.29-1.97,0.96-5.39,1.97-8.13c0.31-0.86,0.62-1.68,0.85-2.4
		c3.25,5.42,6.62,9.61,10.27,12.79C294.7,159.72,297.95,161.59,301.22,162.63z M243.18,144.18c0.23,0.74,0.54,1.58,0.85,2.46
		c0.42,1.17,0.87,2.42,1.23,3.6c0.14,0.63,0.29,1.24,0.46,1.82c0.16,0.82,0.23,1.56,0.16,2.18c-0.48,4.08-5.75,7.81-9.68,10.27
		c-2.52,1.58-11.09,6.6-15.64,5.12c-1.77-0.58-4.34-3.68-6.22-5.95c-0.62-0.75-1.18-1.42-1.66-1.96c4.61-0.75,9.02-2.09,13.14-3.99
		C232.82,154.48,238.95,149.69,243.18,144.18z M213.96,262.29c6.36-6.45,8.99-9.12,19.25-4.3c2.63,1.23,5.54,3.14,7.8,5.09
		c2.9,2.52,4.65,5.03,5.06,7.28c0.34,1.89-0.96,5.4-2,8.23c-0.33,0.88-0.62,1.68-0.85,2.36c-2.63-4.03-5.79-7.45-9.4-10.16
		c-6.05-4.55-13.6-7.25-20.87-7.48C213.3,262.96,213.64,262.62,213.96,262.29z M287.26,260.33c2.51-1.84,5.5-3.43,8.2-4.36
		c1.93-0.66,3.73-0.99,5.33-0.99c1.25,0,2.37,0.2,3.36,0.6c1.86,0.76,4.15,3.5,5.99,5.71c0.57,0.68,1.12,1.34,1.62,1.9
		c-4.1-0.05-8.39,0.78-12.18,2.35c-3.67,1.52-7.18,3.76-10.44,6.64c-2.88,2.54-5.42,5.46-7.56,8.69c-0.04-0.16-0.09-0.33-0.13-0.49
		C278.86,270.8,277.89,267.21,287.26,260.33z"/>
	<g>
		<g>
			<g>
				<path class="st2" d="M260.72,170.78c-19.46,0-35.24,3.87-35.24,31.67c0,10.93,8.86,19.8,19.8,19.8h30.88
					c10.93,0,19.8-8.86,19.8-19.8C295.96,174.65,280.18,170.78,260.72,170.78z"/>
				<path class="st3" d="M260.72,170.78c-19.46,0-35.24,3.87-35.24,31.67c0,10.93,8.86,19.8,19.8,19.8h30.88
					c10.93,0,19.8-8.86,19.8-19.8C295.96,174.65,280.18,170.78,260.72,170.78z"/>
				<path class="st4" d="M280.21,208.87h-38.97c-11.69,0-12.99-6.36-15.15-14.95c-0.39,2.56-0.6,5.39-0.6,8.54
					c0,10.93,8.86,19.8,19.8,19.8h30.88c10.93,0,19.8-8.86,19.8-19.8c0-3.15-0.21-5.98-0.6-8.54
					C293.2,202.5,291.9,208.87,280.21,208.87z"/>
				<path d="M277.51,205.57h-32.92c-9.15,0-12.61-3.57-12.61-8.96c0-5.39,5.3-10.54,15.35-10.54h27.45
					c10.04,0,15.35,5.16,15.35,10.54C290.12,202,286.66,205.57,277.51,205.57z"/>
				<path class="st5" d="M260.72,197.43c10.93,0,21.03-0.79,29.28-2.12c-0.79-4.88-6-9.24-15.23-9.24h-27.45
					c-9.29,0-14.52,4.41-15.25,9.34C240.2,196.68,250.07,197.43,260.72,197.43z"/>
				<g>
					<g>
						<path class="st6" d="M248.76,202.07c-3.48,0-6.3-2.83-6.3-6.3c0-3.48,2.83-6.3,6.3-6.3c3.48,0,6.3,2.83,6.3,6.3
							C255.07,199.25,252.24,202.07,248.76,202.07z M248.76,191.05c-2.6,0-4.72,2.12-4.72,4.72c0,2.6,2.12,4.72,4.72,4.72
							c2.6,0,4.72-2.12,4.72-4.72C253.48,193.17,251.37,191.05,248.76,191.05z"/>
					</g>
					<path d="M251.85,195.77c0,1.7-1.38,3.09-3.09,3.09c-1.71,0-3.09-1.38-3.09-3.09c0-1.7,1.38-3.09,3.09-3.09
						C250.47,192.68,251.85,194.06,251.85,195.77z"/>
					<path class="st2" d="M248.97,194.53c0,0.71-0.58,1.29-1.29,1.29c-0.71,0-1.29-0.58-1.29-1.29c0-0.71,0.58-1.29,1.29-1.29
						C248.39,193.24,248.97,193.82,248.97,194.53z"/>
				</g>
				<g>
					<g>
						<path class="st6" d="M272.68,202.07c-3.48,0-6.3-2.83-6.3-6.3c0-3.48,2.83-6.3,6.3-6.3c3.48,0,6.3,2.83,6.3,6.3
							C278.98,199.25,276.15,202.07,272.68,202.07z M272.68,191.05c-2.6,0-4.72,2.12-4.72,4.72c0,2.6,2.12,4.72,4.72,4.72
							c2.6,0,4.72-2.12,4.72-4.72C277.4,193.17,275.28,191.05,272.68,191.05z"/>
					</g>
					<path d="M269.59,195.77c0,1.7,1.38,3.09,3.09,3.09c1.7,0,3.09-1.38,3.09-3.09c0-1.7-1.38-3.09-3.09-3.09
						C270.97,192.68,269.59,194.06,269.59,195.77z"/>
					<path class="st2" d="M272.47,194.53c0,0.71,0.58,1.29,1.29,1.29c0.72,0,1.29-0.58,1.29-1.29c0-0.71-0.58-1.29-1.29-1.29
						C273.05,193.24,272.47,193.82,272.47,194.53z"/>
				</g>
				<g>
					<path class="st7" d="M260.72,211c-3.9,0-7.44,1.44-9.23,3.77c-0.4,0.52-0.3,1.27,0.21,1.66c0.52,0.4,1.26,0.31,1.67-0.21
						c1.33-1.73,4.22-2.84,7.35-2.84c3.13,0,6.01,1.12,7.35,2.84c0.4,0.52,1.15,0.62,1.67,0.21c0.52-0.4,0.61-1.15,0.21-1.66
						C268.15,212.44,264.62,211,260.72,211z"/>
				</g>
				<path class="st4" d="M260.72,263.42c-6.8,0-14.09-6.86-16.3-15.32l-2.12-8.15c-2.21-8.46,3.1-15.32,11.84-15.32h13.17
					c8.75,0,14.05,6.86,11.84,15.32l-2.12,8.15C274.81,256.56,267.52,263.42,260.72,263.42z"/>
				<path class="st5" d="M260.72,175.98c8.59,0,16.49-0.42,22.75-1.11c-6.14-3.32-14.08-4.09-22.75-4.09s-16.61,0.78-22.75,4.09
					C244.23,175.57,252.13,175.98,260.72,175.98z"/>
				<path class="st8" d="M269.01,171.35c0,1.18-0.96,2.14-2.14,2.14h-12.3c-1.18,0-2.14-0.96-2.14-2.14l0,0
					c0-1.18,0.96-2.14,2.14-2.14h12.3C268.05,169.21,269.01,170.16,269.01,171.35L269.01,171.35z"/>
				<g>
					<rect x="259.93" y="159.26" class="st8" width="1.58" height="9.95"/>
				</g>
				<path class="st5" d="M264.85,159.26c0,2.28-1.85,4.13-4.13,4.13c-2.28,0-4.13-1.85-4.13-4.13c0-2.28,1.85-4.13,4.13-4.13
					C263,155.12,264.85,156.97,264.85,159.26z"/>
				<path class="st7" d="M260.72,161.82c2.01,0,3.69-1.44,4.05-3.35c0.05,0.25,0.08,0.51,0.08,0.78c0,2.28-1.85,4.13-4.13,4.13
					c-2.28,0-4.13-1.85-4.13-4.13c0-0.27,0.03-0.53,0.08-0.78C257.03,160.38,258.71,161.82,260.72,161.82z"/>
				<path class="st9" d="M254.57,170.27h12.3c1,0,1.83,0.69,2.06,1.61c0.04-0.17,0.07-0.35,0.07-0.53c0-1.18-0.96-2.14-2.14-2.14
					h-12.3c-1.18,0-2.14,0.96-2.14,2.14c0,0.18,0.03,0.36,0.07,0.53C252.74,170.95,253.57,170.27,254.57,170.27z"/>
			</g>
		</g>
		<g>
			<path class="st5" d="M278.75,237.48c-1.27,0-2.46-0.79-2.91-2.06c-0.56-1.6,0.27-3.35,1.87-3.92c0.14-0.05,5.56-2.17,11.02-9.74
				c1-1.38,2.92-1.69,4.3-0.7c1.38,1,1.69,2.92,0.7,4.3c-6.73,9.33-13.67,11.84-13.96,11.95
				C279.44,237.42,279.09,237.48,278.75,237.48z"/>
		</g>
		<path class="st5" d="M244.86,227.34c3.49,1,8.85,1.64,14.87,1.64c6.02,0,11.38-0.64,14.87-1.64c-2.11-1.71-4.95-2.71-8.29-2.71
			h-13.17C249.81,224.62,246.97,225.63,244.86,227.34z"/>
	</g>
	<path class="st7" d="M264.4,105.47c-59.37,0-107.5,48.13-107.5,107.5s48.13,107.5,107.5,107.5c59.37,0,107.5-48.13,107.5-107.5
		S323.77,105.47,264.4,105.47z M264.4,304.03c-50.29,0-91.05-40.77-91.05-91.05c0-50.29,40.76-91.05,91.05-91.05
		c50.29,0,91.05,40.77,91.05,91.05C355.46,263.26,314.69,304.03,264.4,304.03z"/>
	<path class="st7" d="M179.07,278.36l-14.16,9.88c1.81,4.35,0.41,9.52-3.6,12.35l-56,38.51l-0.01-0.02
		c-2.41,1.64-5.32,2.59-8.46,2.59c-8.35,0-15.12-6.77-15.12-15.11c0-4.95,2.38-9.34,6.05-12.09l-0.01-0.01l0.5-0.34
		c0.07-0.04,0.13-0.1,0.2-0.14l55.54-38.17c4.04-2.83,9.37-2.32,12.83,0.86l14.4-10.04L179.07,278.36z"/>
</g>
</svg>
