<svg xmlns="http://www.w3.org/2000/svg" xmlns:xlink="http://www.w3.org/1999/xlink" viewBox="0,0,256,256" width="50px" height="50px" fill-rule="nonzero"><g fill="#ffffff" fill-rule="nonzero" stroke="none" stroke-width="1" stroke-linecap="butt" stroke-linejoin="miter" stroke-miterlimit="10" stroke-dasharray="" stroke-dashoffset="0" font-family="none" font-weight="none" font-size="none" text-anchor="none" style="mix-blend-mode: normal"><g transform="scale(5.12,5.12)"><path d="M21.36133,2c-5.45129,0 -8.95455,2.51761 -10.04883,5.2207c-4.29347,0.91294 -7.3125,5.61003 -7.3125,10.77734c0,2.12705 0.61708,4.25657 1.68555,6.62109c-0.87275,1.06772 -1.68555,2.40668 -1.68555,4.38086c0,2.58744 1.69422,5.08032 4.71289,6.46875c-0.94805,2.20587 -0.7448,4.33366 0.38477,5.84766c1.17325,1.57255 3.14477,2.39083 5.26172,2.55273c0.64175,1.68559 1.79762,2.85661 3.07813,3.41406c1.45837,0.63488 2.95048,0.7168 3.92383,0.7168c1.48811,0 2.79282,-0.70138 3.64063,-1.78906c0.84728,1.08134 2.1481,1.77835 3.62891,1.78906h0.00195c0.92016,0.0066 2.40627,-0.07729 3.87695,-0.71094c1.26914,-0.54681 2.42302,-1.69803 3.08398,-3.33984c1.59865,-0.05162 3.25254,-0.2884 4.6543,-1.07812c1.57493,-0.88731 2.75195,-2.56693 2.75195,-4.87109c0,-0.90093 -0.32477,-1.73248 -0.70898,-2.56836c1.28414,-0.63839 2.29596,-1.4556 2.84961,-2.46484c0.69789,-1.27218 0.85938,-2.66677 0.85938,-3.9668c0,-1.9933 -0.9414,-3.19232 -1.85547,-4.17187c1.08443,-2.36421 1.89081,-4.6494 1.85547,-6.8457c-0.09297,-5.83438 -4.02486,-9.93006 -8.28906,-10.77734c-0.95024,-2.49788 -3.65232,-5.20508 -9.07227,-5.20508c-1.36408,0 -2.68945,0.35043 -3.52539,1.42773c-0.04122,0.05313 -0.07474,0.11269 -0.11328,0.16797c-0.03854,-0.05528 -0.07206,-0.11484 -0.11328,-0.16797c-0.83594,-1.0773 -2.16131,-1.42773 -3.52539,-1.42773zM21.36133,4c1.07892,0 1.57251,0.1719 1.94531,0.65234c0.37281,0.48045 0.69336,1.55898 0.69336,3.5332v5.64648c-0.01785,0.10799 -0.01785,0.21818 0,0.32617v3.8418h-3v-5h-4.1875c-0.41736,-1.15733 -1.51934,-2 -2.8125,-2c-1.64501,0 -3,1.35499 -3,3c0,1.64501 1.35499,3 3,3c1.29316,0 2.39514,-0.84267 2.8125,-2h2.1875v5h5v8h-7v6.1875c-1.15733,0.41736 -2,1.51934 -2,2.8125c0,1.64501 1.35499,3 3,3c1.64501,0 3,-1.35499 3,-3c0,-1.29316 -0.84267,-2.39514 -2,-2.8125v-4.1875h5v6.83203c-0.01785,0.10799 -0.01785,0.21818 0,0.32617v6.17383c0,1.63648 -1.05969,2.66797 -2.63867,2.66797c-0.84266,0 -2.08187,-0.09667 -3.125,-0.55078c-1.04313,-0.45412 -1.88916,-1.16518 -2.26562,-2.68945l-0.1875,-0.75977h-0.7832c-1.83389,0 -3.46636,-0.76312 -4.29883,-1.87891c-0.83246,-1.11578 -1.05282,-2.57412 0.1582,-4.60937l0.63281,-1.06445l-1.17383,-0.39453c-3.05174,-1.02569 -4.31836,-3.07675 -4.31836,-5.05273c0,-1.71967 0.63829,-2.58704 1.54102,-3.57422l0.38867,-0.42578h3.25781c0.41736,1.15733 1.51934,2 2.8125,2c1.64501,0 3,-1.35499 3,-3c0,-1.64501 -1.35499,-3 -3,-3c-1.29316,0 -2.39514,0.84267 -2.8125,2h-4.05469c-0.75798,-1.84651 -1.13281,-3.43873 -1.13281,-5.00195c0,-4.58985 2.87546,-8.60717 6.12109,-9.00586l0.66016,-0.08008l0.17969,-0.63867c0.44769,-1.57434 3.27824,-4.27344 8.40039,-4.27344zM28.63867,4c5.12215,0 6.87611,2.43269 7.40039,4.27344l0.18164,0.63867l0.6582,0.08008c3.37176,0.41418 7.03846,3.83753 7.12109,9.02344c0.02961,1.8402 -0.72319,4.08402 -1.90234,6.55273l-0.30273,0.63477l0.49219,0.49805c1.04245,1.05754 1.71289,1.62016 1.71289,3.29883c0,1.12697 -0.15367,2.16609 -0.61328,3.00391c-0.29282,0.53379 -0.73525,1.00487 -1.38672,1.41211v-4.41602h-9v-3.1875c1.15733,-0.41736 2,-1.51934 2,-2.8125c0,-1.64501 -1.35499,-3 -3,-3c-1.64501,0 -3,1.35499 -3,3c0,1.29316 0.84267,2.39514 2,2.8125v5.1875h9v3.85742c-0.03454,0.22833 0.01101,0.46159 0.12891,0.66016c0.00065,0.00065 0.0013,0.0013 0.00195,0.00195c0.51824,1.05789 0.86914,1.95502 0.86914,2.48047c0,1.69583 -0.64685,2.51622 -1.73437,3.12891c-1.08752,0.61269 -2.69013,0.87109 -4.26562,0.87109h-0.7832l-0.1875,0.75977c-0.3738,1.51347 -1.24673,2.23501 -2.31055,2.69336c-1.06382,0.45835 -2.30843,0.55232 -3.07227,0.54688c-1.58748,-0.01148 -2.64648,-1.03149 -2.64648,-2.66797v-5.33203h4.1875c0.41736,1.15733 1.51934,2 2.8125,2c1.64501,0 3,-1.35499 3,-3c0,-1.64501 -1.35499,-3 -3,-3c-1.29316,0 -2.39514,0.84267 -2.8125,2h-4.1875v-6.83203c0.01785,-0.10799 0.01785,-0.21818 0,-0.32617v-9.67383c0.01785,-0.10799 0.01785,-0.21818 0,-0.32617v-3.8418h8.1875c0.41736,1.15733 1.51934,2 2.8125,2c1.64501,0 3,-1.35499 3,-3c0,-1.64501 -1.35499,-3 -3,-3c-1.29316,0 -2.39514,0.84267 -2.8125,2h-8.1875v-4.81445c0,-1.97423 0.32055,-3.05276 0.69336,-3.5332c0.37281,-0.48045 0.8664,-0.65234 1.94531,-0.65234zM14,13c0.54383,0 0.95843,0.40881 0.98828,0.94336c-0.00221,0.03838 -0.00221,0.07686 0,0.11524c-0.03079,0.53357 -0.44512,0.94141 -0.98828,0.94141c-0.56413,0 -1,-0.43587 -1,-1c0,-0.56413 0.43587,-1 1,-1zM37,13c0.56413,0 1,0.43587 1,1c0,0.56413 -0.43587,1 -1,1c-0.54383,0 -0.95843,-0.40881 -0.98828,-0.94336c0.00221,-0.03838 0.00221,-0.07686 0,-0.11524c0.03079,-0.53357 0.44512,-0.94141 0.98828,-0.94141zM32,22c0.56413,0 1,0.43587 1,1c0,0.54383 -0.40881,0.95843 -0.94336,0.98828c-0.02406,-0.00152 -0.04816,-0.00217 -0.07227,-0.00195c-0.01434,0.00034 -0.02866,0.00099 -0.04297,0.00195c-0.53356,-0.03079 -0.94141,-0.44512 -0.94141,-0.98828c0,-0.56413 0.43587,-1 1,-1zM14,23c0.56413,0 1,0.43587 1,1c0,0.56413 -0.43587,1 -1,1c-0.54383,0 -0.95843,-0.40881 -0.98828,-0.94336c0.00221,-0.03838 0.00221,-0.07686 0,-0.11523c0.03079,-0.53356 0.44512,-0.94141 0.98828,-0.94141zM33,36c0.56413,0 1,0.43587 1,1c0,0.56413 -0.43587,1 -1,1c-0.54383,0 -0.95843,-0.40881 -0.98828,-0.94336c0.00221,-0.03838 0.00221,-0.07686 0,-0.11523c0.03079,-0.53357 0.44512,-0.94141 0.98828,-0.94141zM17.94336,36.01172c0.03838,0.00221 0.07686,0.00221 0.11523,0c0.53356,0.03079 0.94141,0.44512 0.94141,0.98828c0,0.56413 -0.43587,1 -1,1c-0.56413,0 -1,-0.43587 -1,-1c0,-0.54383 0.40881,-0.95843 0.94336,-0.98828z"></path></g></g></svg>