<svg xmlns="http://www.w3.org/2000/svg" xmlns:xlink="http://www.w3.org/1999/xlink" width="111" height="60" viewBox="0 0 111 60"><defs><clipPath id="i0"><path d="M111 0V60H0V0H111z"/></clipPath><clipPath id="i1"><path d="M45.58582.0V20H24.41411V0H45.58582zM21.17171.0V20H0V0H21.17171zM70 0V20H48.82829V0H70zM61.71396 2.70457839c-2.7125-.25746194-4.22191.32180988-4.22191.32180988-5.1650876 1.5883244-5.4631735 6.09755446-5.4761826 6.86320408L52.01595 10.0007368C52.17737 15.0917327 56.41552 16.6431707 56.41552 16.6431707 61.4572 18.639641 65.80931 16.0475487 65.80931 16.0475487V13.2971478C62.56488 15.3711585 60.17333 15.0823998 60.17333 15.0823998 54.9823588 14.8329074 54.6785968 10.8231137 54.6657357 10.1090681L54.6658604 10.0052828C54.8932122 5.05805955 59.6711436 4.88223414 60.1916965 4.87775867L60.23759 4.87781259C62.9219458 4.90793775 65.3666251 6.31556809 65.65309 6.4860793L65.68107 6.50293145V3.84719294C63.33523 2.86527281 61.71403 2.70450822 61.71396 2.70457839zm-26.70668.11206506H29.97862V17.1913569L35.7681206 17.1911192C36.1438633 17.1851847 40.55884 17.0325385 40.55884 13.135471 40.55877 13.135471 40.67266 10.3655623 37.42816 9.54482778 37.42816 9.54482778 37.4382922 9.54049963 37.4570489 9.53163414L37.5376848 9.49121655C37.9344108 9.28249951 39.272323 8.44605789 39.25831 6.66376621 39.25831 6.66376621 39.2601815 6.64091643 39.2611536 6.59871992L39.2615909 6.521353C39.2549266 5.86917776 38.9842271 3.18365858 35.00728 2.81664345zm-24.41418.0H5.56423V17.1913569L11.3540802 17.1911192C11.7298175 17.1851847 16.14473 17.0325385 16.14473 13.135471c0 0 .11347-2.7699087-3.13068-3.59064322.0.0 1.84688-.78880612 1.83029-2.88106157C14.84434 6.66376621 14.8462101 6.64091643 14.8471796 6.59871992L14.8476123 6.521353C14.8409083 5.86917776 14.5700471 3.18365858 10.5931 2.81664345zM35.22932 11.0430752c2.6081427-.0175345 2.6969035 1.6593026 2.6980824 1.8626199L37.92719 12.9257964c0 1.892878-2.0465632 2.0392806-2.5747085 2.0455468L35.2615593 14.9710818C35.2510544 14.9708714 35.2429945 14.970632 35.237561 14.9704452L32.53152 14.9701242v-3.927049h2.6978zm-24.41432.0C13.59162 11.0244094 13.51287 12.9257964 13.51287 12.9257964c0 1.892878-2.0465632 2.0392806-2.5747085 2.0455468L10.8472393 14.9710818C10.8367344 14.9708714 10.8286745 14.970632 10.823241 14.9704452L8.11699 14.9701242v-3.927049H10.815zM34.58728 5.05401508c1.9138869.10135291 2.0471126 1.39250857 2.054195 1.65855959L36.64143 6.76032321c0 1.9117047-2.2004857 2.00771701-2.3522433 2.01206541L32.53152 8.7725823V5.05401508h2.05576zm-24.41411.0c1.9139497.10135291 2.0470131 1.39250857 2.0540612 1.65855959L12.22718 6.76032321c0 1.9117047-2.2003552 2.00771701-2.35210383 2.01206541L8.11699 8.7725823V5.05401508h2.05618z"/></clipPath></defs><g clip-path="url(#i0)"><g transform="translate(20.0 20.0)"><g clip-path="url(#i1)"><polygon points="0,0 70,0 70,20 0,20 0,0" stroke="none" fill="#000"/></g></g></g></svg>