<svg xmlns="http://www.w3.org/2000/svg" xmlns:xlink="http://www.w3.org/1999/xlink" width="111" height="60" viewBox="0 0 111 60"><defs><clipPath id="i0"><path d="M111 0V60H0V0H111z"/></clipPath><clipPath id="i1"><path d="M8.46524272 15.6V26H6.5112233V15.6H8.46524272zm5.20881558.0 7.3716116 6.605625V15.756h1.7452427V26l-7.3667184-6.71775V25.844H13.6740583V15.6zm26.6981359.0V26H38.4189903V15.6H40.3721942zm9.2285825.0c3.0949515.0 5.0962718 2.03125 5.0962718 5.1975625C54.6970485 23.9663125 52.6957282 26 49.6007767 26H45.5801942V15.6h4.0205825zm14.8647379.0v1.5575625H59.7378641v2.5025h4.2399611V21.19975H59.7370485v3.2264375H64.4655146V26H57.9534757V15.6H64.4655146zm8.9048155.0C75.4776699 15.6 76.8412427 16.6814375 76.8412427 18.7175625c0 1.7411875-.756815500000002 2.741375-2.3691262 2.998125L78.1395728 26H76.1773981L72.6265631 21.7806875H71.4L71.3991845 26H69.6743301V15.6h3.696zm-43.1433786.0c1.177631.0 2.2508737.2949375 3.0892427.817375v1.7590625C32.4443883 17.5345625 31.4902136 17.0925625 30.264466 17.0925625c-1.055301.0-1.8439223.3924375-1.8439223 1.210625.0.739374999999999.4950291 1.035125 1.3668349 1.3325L31.4747184 20.2255625c1.6351457.572812500000001 2.3854369 1.460875 2.3854369 2.92175C33.8601553 24.9851875 32.2372427 26 30.1078835 26 28.7084272 26 27.5185631 25.61 26.7862136 25.117625V23.32525C27.7387573 24.064625 28.8821359 24.492 30.1078835 24.492 31.3018252 24.492 32.1393786 24.0825 32.1393786 23.1781875 32.1393786 22.3900625 31.6052039 22.0813125 30.6697864 21.736L29.1553398 21.2119375c-1.3961942-.494-2.4580194-1.2155-2.4580194-2.8738125.0-1.7736875 1.6074175-2.738125 3.5296311-2.738125zM49.535534 17.1575625H47.3580583v7.268625H49.535534c2.2019417.0 3.3787573-1.40725 3.3787573-3.628625.0-2.237625-1.1776311-3.64-3.3787573-3.64zM73.3377087 17.1250625H71.3991845V20.30925H73.3377087C74.485165 20.30925 75.1318835 19.682 75.1318835 18.7175625S74.485165 17.1250625 73.3377087 17.1250625zM13.0868738.1811875v6.235125c0 2.055625.848970900000001 3.014375 2.4123495 3.014375s2.413165-.95875 2.413165-3.014375V.1811875h1.7672622v6.44475c0 2.9258125-1.6824466 4.4240625-4.1804272 4.4240625-2.4808544.0-4.1796116-1.49825-4.1796116-4.4419375V.1811875h1.7672621zM27.2730874.0073125c1.1727378.0 2.243534.313625 3.0761942.8701875V2.7421875C29.4823689 2.062125 28.5306408 1.5925 27.3073398 1.5925c-1.0536699.0-1.8349515.417625-1.8349515 1.288625.0.7840625.492582600000002 1.0976875 1.3594952 1.4105l1.6816311.62725c1.6318835.609375 2.3789126 1.55025 2.3789126 3.1005.0 1.95-1.6139418 3.030625-3.7384078 3.030625-1.392932.0-2.5827961-.417625000000001-3.3135145-.940875v-1.898C24.792233 8.994375 25.9307184 9.44775 27.1540194 9.44775 28.3438835 9.44775 29.1765437 9.01225 29.1765437 8.0543125 29.1765437 7.21825 28.6497087 6.88675 27.7151068 6.521125L26.2022913 5.96375c-1.3929321-.5224375-2.446602-1.288625-2.446602-3.0476875.0-1.8809375 1.5976311-2.90875 3.5173981-2.90875zM80.3806602.0C81.5533981.0 82.6241942.313625 83.4560388.871V2.734875C82.5899417 2.055625 81.6373981 1.5851875 80.4140971 1.5851875c-1.0528544.0-1.8349515.417625-1.8349515 1.288625.0.7840625.493398099999993 1.0976875 1.3594952 1.4113125L81.6210874 4.9115625C83.2521553 5.52175 84 6.4618125 84 8.0120625c0 1.9508125-1.6139417 3.030625-3.7384078 3.030625-1.392932.0-2.5827961-.417624999999999-3.3135145-.940875v-1.898C77.8998058 8.987875 79.0382913 9.4404375 80.2615922 9.4404375 81.4514563 9.4404375 82.2841165 9.0049375 82.2841165 8.047 82.2841165 7.2109375 81.7572816 6.8794375 80.8226796 6.5138125l-1.5128155-.557375C77.916932 5.434 76.8632621 4.6678125 76.8632621 2.90875 76.8632621 1.0278125 78.4600777.0 80.3806602.0zM69.707767.0C70.8805049.0 71.951301.313625 72.7839612.871V2.734875C71.9170485 2.055625 70.9653204 1.5851875 69.7420194 1.5851875 68.6883495 1.5851875 67.907068 2.0028125 67.907068 2.8738125 67.907068 3.657875 68.3996505 3.9715 69.2665631 4.285125L70.9490097 4.9115625C72.5800777 5.52175 73.3279223 6.4618125 73.3279223 8.0120625c0 1.9508125-1.61475729999999 3.030625-3.7384077 3.030625C68.195767 11.0426875 67.0067184 10.6250625 66.276 10.1018125v-1.898C67.2269126 8.987875 68.3653981 9.4404375 69.588699 9.4404375 70.7793786 9.4404375 71.6112233 9.0049375 71.6112233 8.047 71.6112233 7.2109375 71.0843883 6.8794375 70.1497864 6.5138125l-1.5128155-.557375C67.2440388 5.434 66.1903689 4.6678125 66.1903689 2.90875 66.1903689 1.0278125 67.788.0 69.707767.0zM42.2487379.0l7.1718058 7.00375V.1649375H51.1184854v10.863125L43.9515728 3.904875v6.9574375H42.2487379V0zM62.1616311.183625V1.7850625H57.5734369v2.574h4.1143689V5.942625H57.5734369V9.2600625h4.5881942v1.6185H55.8412427V.183625h6.3203884zM3.65359223.1811875c2.17502913.0 3.53452427.992875 3.53452427 2.90875.0 1.1496875-.5953398 1.98575-1.35949514 2.2644375.98516505.3306875 1.69875728 1.3235625 1.69875728 2.4561875.0 2.0028125-1.35949514 3.0655625-3.53452427 3.0655625H0V.1811875zm33.55351457.0v10.694125H35.4406602V.1811875H37.2071068zM1.716 6.173 1.71669903 9.3088125H3.95941748c1.18904854.0 1.83495145-.6101875 1.83495145-1.568125.0-.9758125-.64508738-1.5673125-1.83576699-1.5673125L1.716 6.173zM3.63728155 1.7493125H1.7158835V4.675125H3.63728155c1.20617476.0 1.85207767-.4704375 1.85207767-1.480375.0-1.0099375-.64508738-1.4454375-1.85207767-1.4454375z"/></clipPath></defs><g clip-path="url(#i0)"><g transform="translate(13.0 17.0)"><g clip-path="url(#i1)"><polygon points="0,0 84,0 84,26 0,26 0,0" stroke="none" fill="#111"/></g></g></g></svg>