<svg xmlns="http://www.w3.org/2000/svg" width="50" height="50" viewBox="0 0 32 32"><path d="M14.253 30.18c-.015.0-.029.0-.047-.003-3.431-.237-6.265-1.631-8.425-4.143-3.521-4.1-5.069-11.008-4.363-19.451.029-.361.321-.66.703-.609 4.747.277 9.948 3.045 13.576 7.224 3.303 3.801 4.924 8.252 4.572 12.539-.031.364-.339.628-.72.609-.367-.031-.64-.355-.611-.719.323-3.924-1.187-8.028-4.249-11.556-3.232-3.724-7.772-6.251-11.995-6.712-.532 7.676.947 14.14 4.095 17.807 1.917 2.232 4.444 3.472 7.505 3.68.367.027.644.344.62.711-.019.352-.312.623-.661.623zm3.495 1.181c-.305.0-.58-.211-.649-.521-1.608-7.159-9.288-16.467-12.544-19.611-.265-.253-.273-.675-.019-.941.256-.264.68-.271.943-.019 3.347 3.236 11.245 12.827 12.919 20.277.081.361-.145.713-.504.8-.048.011-.097.015-.145.015zm1.923-7.072c-.309.0-.585-.216-.652-.531-.076-.36.156-.713.516-.789C29.578 20.868 29.646 7.181 29.3 2.026c-5.8.629-11.848 5.075-14.577 10.795-.159.333-.559.472-.889.315-.332-.159-.473-.556-.315-.888C16.547 5.9 23.426 1.019 29.875.641c.355-.035.675.251.703.609 1.072 12.781-2.955 21.388-10.771 23.025-.047.008-.091.013-.136.013zm-1.924-6.232c-.115.0-.231-.028-.336-.091-.317-.188-.424-.593-.237-.915 3.067-5.233 7.295-10.143 9.389-12.169.267-.252.688-.249.943.019.255.261.249.688-.016.943-2.041 1.972-6.167 6.765-9.167 11.887-.125.207-.348.327-.576.327z"/></svg>