<svg xmlns="http://www.w3.org/2000/svg" xmlns:xlink="http://www.w3.org/1999/xlink" width="111" height="60" viewBox="0 0 111 60"><defs><clipPath id="i0"><path d="M111 0V60H0V0H111z"/></clipPath><clipPath id="i1"><path d="M39.242118.0C39.3139291.967551293 39.3139291 1.93906849 39.242118 2.90661979V5.77360385L39.6530261 5.60184904C40.3064084 5.30522894 41.0161157 5.15203516 41.7340766 5.15264417 42.1080958 5.10467222 42.4867408 5.10467222 42.86076 5.15264417 44.9570646 5.60482606 46.5459858 7.31526931 46.8372897 9.4333024 46.9778333 10.3556939 47.008976 11.2913671 46.9300753 12.221015 46.8393317 12.9073304 46.6703414 13.5810889 46.4263816 14.229225 45.592407 16.2872448 43.6842614 17.7162335 41.4689746 17.9417712 40.4896437 18.0194096 39.5056736 18.0194096 38.5263427 17.9417712 38.035904 17.8889236 36.5380778 17.6378973 36.0078739 17.5189902L35.6499862 17.4397187V5.83966339C35.7039501 4.82444029 35.6551011 3.80638071 35.5041801 2.80092452 35.4446846 2.45191681 35.2724772 2.13181976 35.0137415 1.88930286 34.8648951 1.80412598 34.7040311 1.74177156 34.5365579 1.70433615c-.5964794-.13211908-.5964794-.11890718-.5964794-.39635725C33.9009851 1.21043509 33.9009851 1.10164883 33.9400785 1.00410502 34.0196091.964469293 39.0830568.0 39.242118.0zM15.5817665 5.56221332C17.5599336 4.63591782 19.8616254 4.69964537 21.7851528 5.73396813c1.6194707 1.03567569 2.6366824 2.78784754 2.7305504 4.70343927C24.586379 11.3188371 24.5552464 12.2054414 24.4229175 13.079789c-.378003 2.2482771-2.0258485 4.0761111-4.2283766 4.6902274C19.9286442 17.8430686 19.6586547 17.9004199 19.3859799 17.9417712 18.6449876 18.0035342 17.9001156 18.0035342 17.1591233 17.9417712 16.004775 17.7916077 14.9304023 17.2723971 14.0971955 16.4620375 13.4281952 15.7980323 12.9400608 14.9750001 12.6788999 14.0706822 12.1807286 12.416007 12.1807286 10.6519846 12.6788999 8.99730943 13.1612126 7.51940088 14.2025617 6.28712437 15.5817665 5.56221332zm35.6297058-.11890717c1.5725334-.74795904 3.3906223-.79122027 4.9971723-.11890718 1.6581944.93528608 2.6854223 2.68546636 2.690785 4.58453212C58.9156424 10.1729222 58.9156424 10.4376545 58.8994296 10.7016456V10.9658837H51.5561049V11.4811482C51.571768 12.3992543 51.793709 13.3021843 52.2056047 14.1235298c.1696703.337324900000001.3986272.641606.676009999999998.8984097.726144099999999.7737803 1.762769 1.1812581 2.8233361 1.1098003C56.4940021 16.1609578 57.2725148 15.9438693 57.9318074 15.5107801 58.0618891 15.4163942 58.2046852 15.3407809 58.3559706 15.2861777 58.5135272 15.3738431 58.6284109 15.5217511 58.6740929 15.6957469 58.3218071 16.2445532 57.8392236 16.6983372 57.2690525 17.0169377 56.5797499 17.4438134 55.8148807 17.7353105 55.0156857 17.8757117 54.2455158 17.9724278 53.4662133 17.9724278 52.6960434 17.8757117 50.273899 17.445486 48.3758496 15.5588911 47.9374629 13.1458486 47.848642 12.6666597 47.8086733 12.1797453 47.818167 11.6925387 47.7678776 10.7970777 47.8893422 9.90027108 48.1760546 9.05015706c.4547703-1.575923 1.5575635-2.88632282 3.0354177-3.60685091zm13.003252-.50205251C65.5948344 4.85056646 66.9790788 5.03932486 68.2840396 5.49615378L68.4563559 5.57542523V8.86519035L68.2177641 8.95767371C67.8333663 9.11621661 67.8068561 9.11621661 67.5947745 8.52168074 67.3300261 7.32693559 66.4291545 6.37319553 65.248622 6.03784201 64.6783232 5.87942111 64.0668456 6.04702952 63.6580101 6.47383498 63.3619627 6.76789596 63.1951055 7.16704836 63.1940817 7.58363526 63.1188981 8.01485653 63.2628506 8.45520227 63.5784795 8.75949509 64.2693087 9.35853332 65.0771801 9.80838749 65.9511422 10.0806859 67.0911631 10.4110293 68.0684072 11.1498089 68.6949477 12.1549555 68.9382154 12.6790548 69.038789 13.2577469 68.9865599 13.8328678 68.9872661 14.2411071 68.9061484 14.6453741 68.7479681 15.0219395 68.2498417 16.3938342 67.0592064 17.3995593 65.6197647 17.6643212 65.0625631 17.811334 64.4847033 17.8649133 63.909857 17.8228641H62.5843471C61.6467387 17.7157137 60.7227878 17.5120442 59.8272865 17.2151163H59.6019499V13.4629344H59.7345009C59.8399499 13.4188762 59.9518538 13.3921067 60.0658783 13.3836629H60.3044701L60.4767864 13.806444C60.8027769 15.0801918 61.726011 16.1185215 62.9554899 16.5941566 63.418318 16.6955049 63.8977023 16.6955049 64.3605304 16.5941566 65.1538064 16.3967935 65.7041851 15.6781467 65.6860402 14.8633966c0-.9380454-.596479399999993-1.4533099-2.65101969999999-2.2592363C62.1863649 12.3550718 61.4124065 11.9012857 60.7816537 11.2829695 60.2108952 10.7044042 59.887749 9.92759106 59.8803069 9.11621661 59.8235771 8.04198239 60.2456093 6.99759258 61.0335005 6.26244445 61.8917594 5.44242046 63.0262191 4.97126916 64.2147243 4.94125364zM33.4496398 4.88840601C33.9733396 4.81897113 34.4968144 5.01774033 34.8414252 5.41688233c0 .14533099-1.3255099 3.34261276-1.3255099 3.34261276C33.3351666 8.71779892 33.1611625 8.65109231 32.9989664 8.56131646 32.5310853 8.32065561 32.0142671 8.18961271 31.4878852 8.17817113 30.9294491 8.15503156 30.3805859 8.32803811 29.9370386 8.66701173 29.7912325 8.7859189 29.8177427 8.89161417 29.7912325 10.6091622 29.7647223 12.3267103 29.8177427 14.5727347 29.9237835 15.3390253 29.8613483 15.8818458 30.1405767 16.406975 30.6263037 16.6602161 31.0620466 16.7571549 31.5056879 16.8146404 31.9518136 16.8319709 31.9775207 16.9584009 31.9775207 17.0886864 31.9518136 17.2151163V17.5982616H24.5422134C24.4941301 17.4750428 24.4941301 17.3383351 24.5422134 17.2151163V16.8451829H24.7145296L25.165203 16.7526995C25.6220049 16.6888786 25.9886418 16.3446214 26.0798048 15.8939255 26.2687596 14.4354754 26.3308479 12.9634719 26.2653762 11.4943601 26.2653762 8.23101876 26.1991007 7.46472809 25.8677232 7.02873512 25.6925528 6.79406228 25.4188059 6.65276244 25.1254377 6.64558979L24.6084889 6.53989452C24.5024481 6.52668261 24.5024481 6.48704689 24.5024481 6.24923254 24.5024481 6.0114182 24.4494277 5.99820629 24.6084889 5.93214675 24.76755 5.86608721 29.6719366 4.88840601 29.8309978 4.88840601H29.8972733V7.53078763L30.0695896 7.21370184C30.5046577 6.32075193 31.2282609 5.59950658 32.1241299 5.16585608 32.5363096 4.96600557 32.9916241 4.87070107 33.4496398 4.88840601zM14.2562566.303873887V5.32439897H13.8320935c-.5434591.22460244-.5434591.22460244-.7687958-.40956915-.3182616-1.21015883-1.0983439-2.24845986-2.1738362-2.89340788-.8572597-.35983139-1.79705512-.47863658-2.71729524-.34350961H6.66108499L6.5948095 1.94215049C6.56422081 2.22417392 6.52480846 3.38129081 6.49693474 4.59405242L6.48644891 5.08018238C6.47178806 5.80800172 6.46225851 6.51651961 6.46225851 7.02873512V8.4556212H7.98659488C8.31006915 8.50516841 8.64054137 8.48260708 8.9542171 8.38956166 9.61105681 8.03184951 10.0586499 7.38470909 10.1604311 6.64558979L10.279727 6.07747774H11.0220125V11.930353H10.2134515L10.0941556 11.5207839C9.99390472 10.7991837 9.57595174 10.1597647 8.9542171 9.77681201 8.31322548 9.61641613 7.65303578 9.54527683 6.99246246 9.56542148H6.46225851V10.6091622c0 1.3211908.0662754899999998 2.9198317.19882648 3.7918177-.0826946099999999.8379692.28533435 1.6570549.96762222 2.153541C7.8628752 16.6225347 8.10228168 16.6711437 8.34448255 16.6998519 8.56836802 16.7275366 8.78989121 16.7716969 9.00723749 16.8319709 9.12768282 17.0686434 9.12768282 17.3483772 9.00723749 17.5850497H.0335355593c-.0447140791-.119284-.0447140791-.2506494.0-.369933400000001.0-.356721499999999.0-.343509599999997.8085610307-.4888406C1.27859436 16.7099485 1.68372963 16.4958778 1.9422698 16.1449517c.51694885-.6738073.63624474-1.9949981.63624474-7.39866852L2.57836656 8.4057907C2.57406422 3.61531309 2.47337751 2.66219949 1.9422698 1.81003141c-.32483813-.39619964-.8121783-.62450317-1.325509891-.62095968H.0335355593V.303873887H14.2562566zM18.4810331 5.9573932 18.3388271 5.95857056c-1.0471528.0-1.7231629 1.09658838-1.9882648 3.26334131-.1216945 1.41107223-.1216945 2.82995023.0 4.24102253C16.6819397 16.1581636 17.6760721 17.4397187 19.001582 17.0433615V16.9773019C19.4544381 16.8282829 19.8395803 16.523982 20.0885001 16.1185279 20.6522357 14.7283168 20.8880543 13.2276117 20.7777653 11.7321744c0-2.64238161-.437418299999997-4.39956539-1.3255099-5.28476324C19.1824904 6.11428404 18.7675085 5.93209001 18.3388271 5.95857056zm21.9672989.68819659C40.1889726 6.6085511 39.9256405 6.6085511 39.6662812 6.64558979L39.2818833 6.73807314V8.54810456C39.2799435 8.71728143 39.2788554 8.90506186 39.2785046 9.1078849L39.2787523 9.5325327C39.2853436 12.0405677 39.3768632 16.1758193 39.3870117 16.7545956L39.3879241 16.818759H39.4409445L39.4414364 16.8570529C39.4448796 16.9430336 39.4724253 17.0037258 39.6927914 17.0037258 39.9603038 17.0501001 40.2338399 17.0501001 40.5013524 17.0037258 40.854869 16.9400245 41.1819902 16.7747007 41.4424644 16.5280971 42.3601853 15.4675663 42.9007204 14.1345656 42.9800559 12.7362794 43.0766181 11.7742114 43.0766181 10.8049396 42.9800559 9.84287155 42.90326 8.6306636 42.2730747 7.52047686 41.2701481 6.8305565 41.0236811 6.68145704 40.7351624 6.61651994 40.448332 6.64558979zm13.1225479-.71344304c-.927856900000002.0-1.6833976 1.18907173-1.9882649 3.18406986v.77950257H52.510472L54.2734001 9.86929537H55.0687061V9.26154759C54.8963898 7.10800657 54.4987368 5.93214675 53.5708799 5.93214675z"/></clipPath></defs><g clip-path="url(#i0)"><g transform="translate(21.0 21.0)"><g clip-path="url(#i1)"><polygon points="1.34709567e-18,0 69,0 69,18 1.34709567e-18,18 1.34709567e-18,0" stroke="none" fill="#33619a"/></g></g></g></svg>