<svg xmlns="http://www.w3.org/2000/svg" xmlns:xlink="http://www.w3.org/1999/xlink" width="34" height="50" viewBox="0 0 34 50"><defs><clipPath id="i0"><path d="M7.93461481 21.7160442c-1.9296875-2.1265625-2.9-5.2203125-2.6-8.2734375.0546875-.5546875.542187500000001-1.0140625 1.0890625-.9375C10.2861773 12.7097942 13.5127398 14.0926067 15.5064898 16.4035442L15.623 16.544V12.375L15.544 12.376 15.1892629 12.3721413C12.2380195 12.2915227 9.73599702 11.2052269 7.93461481 9.21604425c-1.9296875-2.1265625-2.9-5.2203125-2.6-8.273437501.0546875-.5546875.542187500000001-.9953125 1.0890625-.93749999995C10.2861773.209794249 13.5127398 1.59260675 15.5064898 3.90354425L15.711 4.149 15.7165292 4.13585906C15.8805106 3.7750998 16.2441981 3.52385675 16.6658648 3.52385675c.574999999999999.0 1.0421875.4671875 1.0421875 1.0421875L17.708 9.238 17.7110064 9.26706964C17.7399493 9.60840265 17.7529803 9.95590021 17.7499377 10.3090313L17.748 10.355 17.9111773 10.1597942c1.9984375-2.31093745 5.2203125-3.69374995 9.0828125-3.89374995.556249999999999-.0703125 1.0359375.3875 1.0875.9328125C28.3830523 10.2504192 27.4127398 13.3426067 25.4814898 15.4738567c-1.86875 2.0625-4.4984375 3.1546875-7.6046875 3.1546875L17.708 18.624v3.114L17.7110064 21.7670696C17.7592445 22.335958 17.763283 22.9219701 17.7223731 23.5226476L17.708 23.691v3.792L32.2908648 27.4832317c.3125.0.610937499999999.137499999999999.810937500000001.3828125C33.2971148 28.1097942 33.3752398 28.4301067 33.3127398 28.7363567l-3.90625 18.75C29.3049273 47.9691692 28.8768023 48.3160442 28.3861773 48.3160442H4.94711481c-.49375.0-.91875-.345312499999999-1.01875-.829687499999999l-3.9062500006-18.75C-.0419476906 28.4316692.0346148094 28.1097942.233052309 27.8660442c.1984375-.239062499999999.4953125-.3828125.807812501-.3828125H15.6236773L15.623 24.875 15.544 24.876 15.1892629 24.8721413C12.2380195 24.7915227 9.73599702 23.7052269 7.93461481 21.7160442zM30.144 33.733H3.192L5.79711481 46.2332317H27.5393023L30.144 33.733zm.8687398-4.1669558H2.32367731L2.77 31.711 2.79605231 31.7018942C2.89955231 31.6674817 3.01023981 31.6488567 3.12523981 31.6488567H30.2080523C30.3227398 31.6488567 30.4332398 31.6674192 30.5366398 31.7017442L30.565 31.712 31.0127398 29.5660442zM7.36586481 14.6769817C7.39555231 16.8035442 8.15180231 18.8582317 9.47836481 20.3160442c1.46874999 1.61875 3.56406249 2.475 6.06718749 2.475L15.623 22.791V21.81L15.6208913 21.7768813C15.4564303 20.2353728 14.886545 18.8685259 13.9330523 17.7644817c-1.4453125-1.675-3.7515625-2.7515625-6.56718749-3.0875zM26.0580523 8.43010675c-2.8140625.3296875-5.1203125 1.4125-6.5671875 3.08281245-1.15625 1.35-1.75 3.0734375-1.7390625 5.03125 2.6046875-.0437499999999993 4.7-.829687499999999 6.19375-2.475 1.3265625-1.4625 2.0828125-3.5171875 2.1125-5.63906245zM7.36586481 2.17698175C7.39555231 4.30354425 8.15180231 6.35823175 9.47836481 7.81604425c1.46874999 1.61875 3.56406249 2.47499995 6.06718749 2.47499995L15.623 10.291V9.31L15.6208913 9.27688125C15.4564303 7.73537275 14.886545 6.36852587 13.9330523 5.26448175c-1.4453125-1.675-3.7515625-2.7515625-6.56718749-3.0875z"/></clipPath></defs><g transform="translate(0.33413519064162855 0.8417682509501851)"><g clip-path="url(#i0)"><polygon points="6.58678252e-19,1.23197774e-17 33.3338378,1.23197774e-17 33.3338378,48.3160442 6.58678252e-19,48.3160442 6.58678252e-19,1.23197774e-17" stroke="none" fill="#fff"/></g></g></svg>