<svg xmlns="http://www.w3.org/2000/svg" xmlns:xlink="http://www.w3.org/1999/xlink" width="111" height="60" viewBox="0 0 111 60"><defs><clipPath id="i0"><path d="M111 0V60H0V0H111z"/></clipPath><clipPath id="i1"><path d="M69.2721613.0C70.3910465.0 71.0821227.131633561 71.7402905.246812926 72.3984583.361992292 73.0072636.477171657 73.9945153.444263267L74.4716869.427809072 75.5083012 1.46442336 75.3766677 1.92514082C75.1627631 2.6655796 74.8830418 3.88319004 74.6691373 4.96916691l3.7680106-2.3364957H79.0788615l1.0201601 1.0201601L79.8193003 5.23243403h1.9745034L82.3038838 5.74251408C83.1759561 5.11725467 84.2290246 4.73880818 85.446635 4.73880818c1.3656982.0 2.4516751.394900679999999 3.2579307 1.20115624L89.6918174 6.92721613C89.8399051 7.07530388 89.9879929 7.23984583 90.1031723 7.40438779L90.2183516 6.71331159 90.25126 6.6968574l4.5084495-1.95804922H95.3520605L95.9444115 5.33115921C96.6354877 4.91980433 97.2607471 4.73880818 97.8860065 4.73880818 98.5277201 4.73880818 99.0871628 4.95271272 99.4820634 5.3476134L100.469315 6.33486511C100.781945 6.64749481 100.995849 7.05884969 101.094575 7.56892974 102.180551 5.84123925 103.990513 4.73880818 106.113104 4.73880818c1.201156.0 2.15549999999999.3455381 2.86303 1.05306849L109.963386 6.77912837C110.654462 7.45375037 111 8.37518529 111 9.42825378 111 9.77379188 110.967092 10.1522384 110.868366 10.547139L110.901275 10.8104062 108.8445 11.6331159 109.255855 12.0444708 110.522828 14.1012452 110.276015 14.3151497c-1.316335 1.2011563-2.961755 2.4352209-5.183071 2.4352209-1.283427.0-2.270679-.345538099999999-2.97820900000001-1.0530685L101.127483 14.7100504C101.094575 14.677142 101.045212 14.6277794 101.012304 14.5784168L100.666765 16.4871035H89.9879929l-1.0201601-1.0201601L89.0007412 15.3024014C88.0463979 16.190928 86.795879 16.7668248 85.2985473 16.7668248 83.9328491 16.7668248 82.8468722 16.3719241 82.0406167 15.5656685L81.2343611 14.759413 81.1191817 14.8745924C80.3129262 15.6808479 79.0130448 16.7668248 77.2030833 16.7668248 76.3803736 16.7668248 75.6728432 16.5035577 75.1792173 16.0099318L74.1919656 15.0226801C74.1590572 14.9897717 74.1261488 14.9404091 74.0932404 14.9075007 73.2869849 17.0959087 71.016306 18.4780611 67.9393715 18.4780611 66.1787726 18.4780611 65.0434331 18.0008894 64.1219982 17.6059887 63.4802846 17.3262674 62.9866588 17.1288171 62.4601245 17.1452713L62.081678 17.1617255C61.9664987 18.3299733 61.3412393 19.3830418 60.2717166 20.1399348 59.0211977 21.0284613 57.2112363 21.505633 55.0557367 21.505633c-2.1719537.0-3.7351022-.427809100000001-4.5413578-1.2340647L49.5271272 19.2843166C49.1157723 18.889416 48.918322 18.4286985 48.918322 17.9021642 48.918322 17.293359 49.0993181 16.8326416 49.4119478 16.4706493H30.9009784L31.0490661 16.618737C31.460421 17.0136377 31.6578713 17.4743552 31.6578713 17.9844352c0 1.2176105-.773347099999999 3.2743848-5.907056 3.2743848-5.0349837.0-9.2143492-1.6289653-12.4229173-4.8375333C13.1962645 16.2731989 13.0481767 16.1251112 12.9000889 15.9605692 12.7026386 15.7795731 12.5216425 15.6150311 12.3406463 15.434035c-1.0530685-1.0530685-1.9580492-2.3858583-2.61621701-3.8667359H9.59279573L9.00044471 14.9239549C8.98399051 14.9404091 8.98399051 14.9733175 8.98399051 14.9897717H9.0168989L9.39534539 15.0226801l1.02016011 1.0201601L10.037059 18.2806107 9.67506671 18.2477023C8.77008598 18.1818856 7.56892974 18.0996146 6.23613993 18.0996146 5.28179662 18.0996146 4.26163653 18.1489772 2.92884672 18.2477023L2.48458346 18.2806107 1.44796917 17.2439964l.37844648-2.2377705L2.12259117 14.9733175C3.20856804 14.8910465 3.3402016 14.677142 3.50474355 13.7557071L4.59072043 7.56892974C4.14645716 7.91446783 3.60346872 8.09546398 3.02757189 8.09546398c-.60880521.0-1.11888526-.19745034-1.48087755-.55944263L.559442633 6.54876964C.197450341 6.18677735.0 5.6766973.0 5.13370886.0 2.22131634 4.60717462.0164541951 10.7281352.0164541951c2.7149422.0 4.6729914.5758968279 5.8083309 1.7112362849L17.5237178 2.71494219C18.2641565 3.45538097 18.642603 4.39327009 18.642603 5.52860955 18.642603 5.61088052 18.6261488 5.6931515 18.6261488 5.77542247 19.481767 5.13370886 20.5512897 4.73880818 21.7853543 4.73880818c1.3656982.0 2.4516751.394900679999999 3.2579306 1.20115624L26.0305366 6.92721613C26.4418915 7.33857101 26.7545212 7.83219686 26.9684257 8.40809369L27.5607768 5.11725467 26.6887044 4.24518233 27.0177883 2.38585829 31.7895049.230358731H32.3818559L33.402016 1.25051883 33.3032908 1.82641565 36.857397.230358731H37.449748L38.4699081 1.25051883 38.4369997 1.39860658C38.9470798.987251705 39.5723392.773347169 40.2469612.773347169c.625259399999997.0 1.1353394.180996146 1.5137859.559442631L42.7479988 2.32004151C43.0935369 2.64912541 43.2745331 3.14275126 43.2745331 3.70219389c0 .6910762-.2797214 1.31633561-.8062556 1.79350727L42.7479988 5.77542247 42.682182 6.18677735l3.3072932-1.44796917H46.5818263L47.1741773 5.33115921C47.8652535 4.91980433 48.4905129 4.73880818 49.1157723 4.73880818 49.7574859 4.73880818 50.3169286 4.95271272 50.7118292 5.3476134L51.6990809 6.33486511C51.8471687 6.49940706 51.9952564 6.6968574 52.0939816 6.91076193 52.9495998 5.54506374 54.5621109 4.73880818 56.5530685 4.73880818c1.4644233.0 2.5174918.37844649 3.3072932 1.16824785C59.9261785 5.95641862 59.9755411 6.0222354 60.0249036 6.07159798 60.5843463 5.3640676 61.4235102 5.0020753 62.4765787 5.0020753 62.5917581 5.0020753 62.7233916 5.0020753 62.8550252 5.0185295L63.2005633 5.05143789C63.2992885 2.07322858 65.7674177.0 69.2721613.0zM25.0103765 15.4504892C24.1053958 16.2073822 22.9371479 16.6845538 21.5879039 16.6845538 21.1930033 16.6845538 20.8474652 16.6516454 20.5019271 16.5858286c1.266973.5758969 2.5833086.8720724 3.88319.8720724 1.2505188.0 2.023866-.394900700000001 2.1225912-1.0530685h-.5429885zM61.1602431 12.060925C61.0121554 12.2583753 60.8640676 12.4393715 60.6666173 12.6368218 60.2552624 13.0481767 59.7451823 13.3608064 59.1528313 13.5911651 59.7616365 13.7392529 60.1894456 13.9531574 60.4856211 14.2493329L61.0615179 14.8252298C61.0944263 13.9696116 61.1273347 12.9823599 61.1602431 12.060925zm2.8136674-4.22872814L63.7106433 9.31307441 63.3157427 9.21434924C62.8056626 9.09916988 62.4107619 9.13207827 62.24622 9.29662022 62.0158613 9.52697895 61.9664987 9.80670027 61.8842277 10.2180551 61.8513193 10.3332345 61.8348651 10.4648681 61.8019567 10.5965016h1.6947821l1.0201601 1.0201601L64.5498073 11.9292914C64.6320783 12.8013638 64.8788912 13.6076193 65.2408835 14.1999704 65.7180551 14.5126001 66.2610436 14.6442336 66.9521198 14.6442336c1.2176104.0 2.0896827-.7404388 2.1061369-1.7605989.0-.6910761-.279721300000006-1.0366142-1.102431-1.6618737L65.8167803 9.59279573C65.3231545 9.23080344 64.9117996 8.86881115 64.5991699 8.55618144 64.352357 8.32582271 64.1549066 8.07900978 63.9739105 7.83219686zM16.1580196 9.93833383C15.8124815 10.1686926 15.4175808 10.3990513 14.9897717 10.5800474 15.4011266 11.5837533 15.944115 12.5545508 16.6022828 13.4595316c-.345538100000002-.7075304-.5265342-1.5466944-.5265342-2.5174919C16.0757486 10.6129558 16.108657 10.2674177 16.1580196 9.93833383zM51.9788023 11.0572191 51.6826267 12.7026386C51.9129855 12.3735547 52.209161 12.0773792 52.6040617 11.7976579 52.3572487 11.5837533 52.1433442 11.3204862 51.9788023 11.0572191zM85.8579899 8.85235695C85.3808183 9.49407056 84.8871924 10.8762229 84.854284 12.5874592 85.3314557 11.9292914 85.8086273 10.5635932 85.8579899 8.85235695zM22.1967092 8.83590276C21.7195375 9.49407056 21.2259117 10.8597688 21.1930033 12.571005 21.6701749 11.9292914 22.1638008 10.547139 22.1967092 8.83590276zM80.13193 8.73717759H79.1940409L78.6181441 12.060925C78.6839609 11.9951082 78.782686 11.9292914 78.864957 11.8470205L79.2269493 11.5343908 79.8357545 12.143196C79.7699377 11.7647495 79.7370294 11.3698488 79.7370294 10.9584939c0-.7404388.131633500000007-1.49733173.3949006-2.22131631zM70.3252298 3.65283131c-1.2669731.0-1.9909576.54298844-1.9909576 1.49733175.0.29617551.0658166999999992.51008005.1974503.740438780000001l2.106137 1.61251112C71.0821227 7.84865105 71.4770234 8.19418915 71.8554699 8.57263564L72.8427216 9.55988734C73.1882597 9.90542544 73.4844352 10.2674177 73.714794 10.6458642L74.0274237 8.7042692H73.9780611L72.957901 7.6841091 73.2047139 6.33486511H71.9871035l-1.0201601-1.0201601L71.0985769 4.52490365C71.1643937 4.26163653 71.1479395 3.9983694 71.0985769 3.76801067 70.8682182 3.6857397 70.6049511 3.65283131 70.3252298 3.65283131zm-58.8402016.11517936h-.5758969l-.6910762 3.88319004C11.5179366 7.47020457 13.0152683 6.77912837 13.0317225 4.60717462 13.0317225 4.3603617 13.0152683 4.14645716 12.9659057 3.96546101 12.5874592 3.83382745 12.0773792 3.76801067 11.4850282 3.76801067zm26.4089831.77334717L37.5978358 6.20323154l1.3656981-.57589682L38.0091906 4.6729914C37.9762822 4.64008301 37.9269197 4.59072043 37.8940113 4.54135784z"/></clipPath><clipPath id="i2"><path d="M10.5965016.0c2.6820338.0 4.6071747.559442633 5.7260599 1.6783279C17.0465461 2.40231248 17.4085384 3.30729321 17.4085384 4.40972428c0 2.18840795-1.3327898 3.99836941-3.6857397 5.0020753.6910762 1.72769052 1.7935073 3.38956422 3.1427513 4.73880822 2.1390453 2.1390453 4.7717165 3.3237474 7.4043877 3.3237474 1.4150608.0 2.2542248-.493625900000001 2.2542248-1.3163356.0-.641713599999999-.4771717-.9707975-.954343299999998-.9707975H24.9445597L25.2900978 13.2127186H25.553365C25.8659947 13.2127186 26.0963534 13.1469019 26.227987 12.4229173l1.4808775-8.39163951V3.9983694H26.6887044l.2961755-1.69478209L31.6743255.213904536H32.1514972L29.9630892 12.6697302C29.8972725 12.9823599 29.946635 13.0975393 29.9795434 13.1304477 30.028906 13.1798103 30.1440854 13.2127186 30.3250815 13.2127186H30.6377112C30.9503409 13.2127186 31.1806997 13.1469019 31.3123332 12.4229173l1.4808776-8.39163951V3.9983694H31.7730507L32.052772 2.32004151 36.7257634.197450341h.4771717L35.0145271 12.653276C34.9487103 12.9659057 34.9980729 13.0810851 35.0309813 13.1139935 35.0803439 13.1633561 35.1955233 13.1962645 35.3765194 13.1962645H35.7056033C36.018233 13.1962645 36.2485918 13.1304477 36.3802253 12.4064631L37.0877557 8.39163949V8.3587311H36.0675956L36.3637711 6.66394901l4.6565372-1.94159502H41.49748L40.0988734 12.653276C40.0330566 12.9659057 40.0824192 13.0810851 40.1153276 13.1139935 40.1646902 13.1633561 40.2798696 13.1962645 40.4608657 13.1962645H40.7734954C41.0861251 13.1962645 41.3164838 13.1304477 41.4481174 12.4064631L42.1556478 8.39163949V8.3587311H41.1354877L41.4316632 6.66394901l4.4426327-1.94159502H46.3514675l-.1974503 1.20115624C47.1083605 5.23243403 47.9804328 4.72235399 48.9841387 4.72235399c.6088053.0 1.1353395.19745034 1.513786.57589683C51.0573673 5.85769345 51.2712719 6.79558257 51.0902757 7.94737622L50.2511118 12.653276C50.185295 12.9659057 50.2346576 13.0810851 50.267566 13.1139935 50.3169286 13.1633561 50.4321079 13.1962645 50.6131041 13.1962645H50.9750964L50.6295583 15.1707679H29.3707382C29.5352802 15.2859472 29.6669137 15.4011266 29.7985473 15.5327602 30.1769938 15.9112066 30.3744441 16.3390157 30.3744441 16.8161874c0 1.184702-.756893000000002 3.1592054-5.7918767 3.1592054-5.0020753.0-9.1485324-1.6125111-12.3406463-4.8046249-1.2834272-1.2998814-2.35294986-3.0275719-3.01111766-4.886896H8.32582271L7.71701749 13.7392529C7.63474652 14.167062 7.65120071 14.4467833 7.78283427 14.6113252 7.93092203 14.7923214 8.26000593 14.9075007 8.83590276 14.9404091L9.13207827 14.9568633 8.78654017 16.9807293 8.53972725 16.9642751C7.65120071 16.8984583 6.43359028 16.8161874 5.10080047 16.8161874 4.14645716 16.8161874 3.10984287 16.86555 1.77705307 16.9642751L1.43151497 16.9971835l.3290839-2.0403202L1.97450341 14.9404091C3.12629706 14.841684 3.29083902 14.594871 3.47183516 13.6240735L5.33115921 3.09338867c-.60880522.16454196-1.10243107.3619923-1.51378595.59235103.3126297.36199229.427809069999999.88852653.3126297 1.43151497-.14808775.97079751-1.10243107 1.72769048-2.22131633 1.72769048-.55944263.0-1.036614291-.18099614-1.382152387-.52653424C.197450341 5.98932701.0 5.51215535.0 5.0020753.0 2.15549956 4.55781204.0 10.5965016.0zM95.1217017 4.72235399l-.1974503 1.20115624C95.8785947 5.23243403 96.7506671 4.72235399 97.754373 4.72235399c.608805199999992.0 1.13533939999999.19745034 1.5137859.57589683C99.8276015 5.85769345 100.041506 6.79558257 99.8605099 7.94737622L99.021346 12.653276C98.9555292 12.9659057 99.0048918 13.0810851 99.0378002 13.1139935 99.0871628 13.1633561 99.2023421 13.1962645 99.3833383 13.1962645H99.7288764L99.3833383 15.1707679H88.9349244L89.2804625 13.1962645H89.5437296C89.8563593 13.1962645 90.0867181 13.1304477 90.2183516 12.4064631L90.925882 8.39163949V8.3587311H89.9057219L90.2018974 6.66394901l4.4426327-1.94159502H95.1217017zM47.0589979 8.06255559C46.9273644 8.06255559 46.7628224 8.14482656 46.4831011 8.37518529L45.8084791 8.88526534 45.1503113 12.653276C45.0844945 12.9659057 45.1338571 13.0810851 45.1667655 13.1139935 45.2161281 13.1633561 45.3313074 13.1962645 45.5123036 13.1962645H45.8578417C46.1704714 13.1962645 46.4008301 13.1304477 46.5324637 12.4064631L47.2235399 8.55618144C47.2729025 8.29291432 47.2399941 8.14482656 47.1741773 8.09546398 47.1577231 8.07900978 47.1248147 8.06255559 47.0589979 8.06255559zm48.7702342.0C95.6975986 8.06255559 95.5330566 8.14482656 95.2533353 8.37518529L94.5787133 8.88526534 93.9205455 12.653276C93.8547287 12.9659057 93.9040913 13.0810851 93.9369997 13.1139935 93.9863623 13.1633561 94.1015417 13.1962645 94.2825378 13.1962645H94.6280759C94.9407056 13.1962645 95.1710643 13.1304477 95.3026979 12.4064631L95.9937741 8.55618144C96.0431367 8.29291432 96.0102283 8.14482656 95.9444115 8.09546398 95.9279573 8.07900978 95.8950489 8.06255559 95.8292321 8.06255559zM10.3661429 2.51749185c-.2303587.0-.44426327.0-.674621999999999.0164541900000001L8.77008598 7.7005633h.41135487c1.43151495.0 3.83382745-.41135488 3.85028165-3.22502224.0-1.36569819-.8062556-1.95804921-2.6655796-1.95804921z"/></clipPath><clipPath id="i3"><path d="M40.3621405 3.98191521c1.431515.0 2.4516751.3455381 3.2250223 1.11888526C43.6858879 5.19952564 43.7681589 5.28179662 43.8339757 5.38052179 44.3440557 4.64008301 45.1996739 4.24518233 46.2691966 4.24518233c.1316335.0.246812900000002.0.378446400000001.0164542000000001L46.9438186 4.27809072 46.4172843 7.28920842 46.137563 7.22339164C45.9401127 7.17402905 45.7426623 7.15757486 45.5781204 7.15757486 45.2983991 7.15757486 45.0844945 7.22339164 44.952861 7.3550252 44.706048 7.58538393 44.6402312 7.91446783 44.5579603 8.32582271 44.4263267 8.96753632 44.2617848 9.77379188 43.356804 10.6787726 42.5340943 11.5179366 41.2177587 11.978654 39.6875185 11.978654 39.3584346 11.978654 39.0458049 11.9457456 38.7331752 11.896383 38.5850875 11.978654 38.5686333 12.0444708 38.5686333 12.1267418c0 .2139045.592351000000001.2797213 2.2871331.427809L41.2342129 12.5874592 41.6888557 12.6339795C42.6723095 12.7386184 43.6277498 12.8869256 44.2124222 13.4430774 44.5744145 13.8050697 44.7554106 14.2657871 44.7554106 14.8252298c0 1.2834272-.625259399999997 2.4352208-1.7770531 3.2579306-1.2340646.888526500000001-3.0111177 1.349244-5.150163 1.349244-2.1225912.0-3.6692855-.411354899999999-4.4426327-1.1847021C33.0071153 17.8692559 32.809665 17.4249926 32.809665 16.9478209c0-1.3327898.970797499999996-1.9909576 2.4681292-2.5174918C35.1626149 14.1835162 35.1132523 13.920249 35.1132523 13.6405277c0-1.184702.493625899999998-2.0567744 1.5137859-2.6820338C35.6397865 10.1357842 35.2119775 8.93462793 35.4423362 7.60183813 35.8207827 5.39697599 37.7623777 3.98191521 40.3621405 3.98191521zM37.0713015 15.7137563C36.4295879 16.0099318 36.1169582 16.2073822 36.1169582 16.5035577 36.1169582 16.6351912 36.2815001 17.0136377 38.3382745 17.0136377c1.7112363.0 2.41876670000001-.4936258 2.4516751-.658167800000001C40.7734954 16.3225615 40.658316 16.2238363 39.8191521 16.1415654L39.5887934 16.1251112C38.7825378 16.0428402 37.8775571 15.9605692 37.0713015 15.7137563zM5.59442633 3.98191521c1.3163356.0 2.38585828.39490068 3.15920545 1.16824785.82270976.80625556 1.23406463 1.97450341 1.23406463 3.45538097.0 2.92884677-2.13904536 6.08805217-5.59442632 6.08805217-1.31633561.0-2.38585829-.394900700000001-3.15920546-1.1682478C.411354877 12.7026386.0 11.5343908.0 10.0699674.0 7.14112066 2.13904536 3.98191521 5.59442633 3.98191521zM5.54506374 6.43359028c-.75689297.0-1.6783279 2.07322858-1.6783279 4.50844942.0.5265343.0987251699999998.9378891.29617551 1.1682479C4.22872814 12.1925586 4.31099911 12.2254669 4.42617848 12.2254669c.75689297.0 1.67832789-2.0896827 1.67832789-4.50844941.0-.52653424-.0987251699999998-.93788912-.29617551-1.16824785C5.74251408 6.46649867 5.66024311 6.43359028 5.54506374 6.43359028zM40.4279573 6.17032315C40.0330566 6.17032315 39.5229766 6.81203676 39.309072 8.04610139 39.1774385 8.80299437 39.2268011 9.42825378 39.4571598 9.67506671 39.5394308 9.77379188 39.6381559 9.82315446 39.7697895 9.82315446 40.1975986 9.82315446 40.6418618 9.04980729 40.8557664 7.94737622 40.9873999 7.17402905 40.9380374 6.56522384 40.7241328 6.30195672 40.6418618 6.21968574 40.5595909 6.17032315 40.4279573 6.17032315zm-16.3719241-6.17032315C24.6483842-133226763e-23 25.1420101.180996146 25.4875482.526534243 25.8001779.839163949 25.9647198 1.29988141 25.9647198 1.82641565c0 1.31633561-1.184702 2.40231249-2.6491254 2.40231249-.592350999999997.0-1.0695227-.18099615-1.4315149-.52653425-.3126298-.3126297-.4771717-.77334717-.4771717-1.29988141.0-1.3163356 1.184702-2.40231248 2.6491254-2.40231248z"/></clipPath><clipPath id="i4"><path d="M8.19418915.0C9.29662022.0 9.97124222.131633561 10.62941.246812926 11.2053068.361992292 11.7482953.460717462 12.571005.460717462H12.9000889L13.2620812.444263267 13.1633561.789801364C12.8671806 1.79350726 12.4722799 3.65283131 12.2419211 4.91980433L12.2090127 5.13370886H10.0041506L10.11933 4.45908687C10.2345093 3.86673584 10.0864216 3.32374741 9.74088349 2.97820931 9.39534539 2.64912541 8.85235695 2.45167507 8.21064334 2.45167507c-1.3327898.0-2.10613697.59235102-2.10613697 1.61251111.0.72398459.41135488 1.16824785 1.20115624 1.79350727L9.44470798 7.48665876c.42780907.3290839.822709719999999.674622 1.20115622 1.06952268 1.0201601 1.0201601 1.4973318 2.05677436 1.4973318 3.29083906.0 3.1921138-2.56685446 5.3311592-6.36777353 5.3311592-1.74414468.0-2.86302994-.4771717-3.76801067-.855618200000002C1.39860658 16.0592944.904980729 15.8453899.378446487 15.8453899H.296175511L0 15.8618441.0164541951 15.5656685c.0987251709-1.3327898.1480877559-3.208568.1316335609-4.6894456v-.2632671H2.30358731L2.32004151 10.8597688c.11517936 1.2340646.52653424 2.2706789 1.13533946 2.8794841.6417136.625259399999999 1.39860658.9214349 2.38585828.9214349 1.28342722.0 2.22131634-.789801300000001 2.22131634-1.8922324.0-.756893-.329083900000001-1.1353395-1.15179366-1.7605989L4.77171657 9.37889119C4.29454492 9.00044471 3.88319004 8.65490661 3.57056033 8.3422769c-.93788912-.93788911-1.3327898-1.90868662-1.3327898-3.22502223C2.23777053 2.10613697 4.6894456.0 8.19418915.0z"/></clipPath><clipPath id="i5"><path d="M5.84123925.0 5.39697599 2.61621702H8.53972725L7.09175808 4.88689594H4.98562111L4.26163653 9.06626149C4.16291135 9.6915209 4.24518233 9.87251705 4.27809072 9.92187963 4.29454492 9.92187963 4.32745331 9.97124222 4.47554106 9.97124222c.3455381.0.69107619-.197450340000001 1.36569819-.773347170000001l.26326712-.21390454.92143493 1.87577829L6.89430774 10.9914023c-.80625556.8062556-2.07322858 1.8593241-3.83382746 1.8593241-.80625555.0-1.46442336-.246813-1.94159501-.7239846C.691076193 11.6824785.213904536 10.8433146.493625852 9.28016602L1.26697302 4.88689594H0L.312629706 3.14275126 5.3476134.0h.49362585z"/></clipPath><clipPath id="i6"><path d="M5.59442633 266453526e-23c1.3163356.0 2.38585828.394900681999997 3.15920545 1.16824785.80625556.82270975 1.23406463 1.99095761 1.23406463 3.45538097.0 2.92884672-2.13904536 6.08805218-5.59442632 6.08805218-1.31633561.0-2.38585829-.394900700000001-3.15920546-1.16824785C.411354877 8.73717759.0 7.56892974.0 6.08805218c0-2.92884672 2.13904536-6.08805218 5.59442633-6.08805218zM26.2444412.0c1.1682478.0 2.1061369.345538097 2.7807589 1.02016009C29.6833679 1.6783279 30.028906 2.56685443 30.0124518 3.60346872c0 .3455381-.049362600000002.70753039-.1316335 1.08597688L29.8479099 4.82107916 24.0889416 7.10821227C24.3028461 7.56892974 24.796472 7.6841091 25.2078269 7.6841091c.806255499999999.0 1.8264156-.46071746 2.8136673-1.23406463l.2303587-.18099615 1.1682479 1.89223244L29.2555588 8.30936851C27.9556774 9.49407056 26.3267121 10.711681 24.1547584 10.711681c-1.2340647.0-2.2048622-.345538100000001-2.8794842-1.0201601C20.6006522 9.0168989 20.2386599 7.99673881 20.2386599 6.72976579 20.2386599 2.89593833 22.8219686.0 26.2444412.0zM5.54506374 2.46812926c-.75689297.0-1.6783279 2.08968278-1.6783279 4.50844945.0.52653425.0987251699999998.93788912.29617551 1.16824785C4.22872814 8.22709754 4.31099911 8.26000593 4.42617848 8.26000593c.75689297.0 1.67832789-2.07322858 1.67832789-4.50844945.0-.52653424-.0987251699999998-.93788912-.29617551-1.16824785C5.74251408 2.50103765 5.66024311 2.46812926 5.54506374 2.46812926zm20.25739576-.1314288L25.7837237 2.3364957c-.592351000000001.0-1.2176104.92143493-1.5631485 2.23777053l1.8428698-.77334717C26.145716 3.47183516 26.145716 3.20856804 26.1292618 3.02757189 26.1292618 2.3364957 25.8659947 2.3364957 25.7837237 2.3364957z"/></clipPath><clipPath id="i7"><path d="M5.33115921.0c1.23406463.0 2.25422472.361992292 2.9782093 1.08597688.74043878.75689297 1.15179366 1.84286984 1.15179366 3.27438482.0 2.9946635-2.15549956 5.8247851-5.33115921 5.8247851-1.23406463.0-2.25422472-.36199234-2.9782093-1.08597692C.394900682 8.3587311.0 7.25630003.0 5.82478506.0 2.83012155 2.15549956.0 5.33115921.0zM29.7162763.0329083902 29.4530092 1.59605692 29.5846428 1.49733175C30.7199822.641713608 31.6085087.0493625852 32.6615772.0493625852 33.2210199.0493625852 33.6652831.213904536 33.994367.542988438 34.4879929 1.03661429 34.6854432 1.89223243 34.5044471 2.96175511L33.6652831 7.66765491C33.5501038 8.29291432 33.7310999 8.52327305 34.2905425 8.52327305H34.3399051L34.076638 9.95478802H29.2391047l.2632671-1.43151497H29.5517344c.559442600000001.0.806255499999999-.27972132.9378891-1.0037059L31.1806997 3.6692855C31.2465165 3.32374741 31.1971539 3.09338867 31.0819745 2.96175511 31.0161577 2.89593833 30.9174326 2.86302994 30.785799 2.86302994c-.2303587.0-.444263299999999.13163356-.756893000000002.3619923L29.272013 3.80091906l-.6910761 3.86673585C28.4822117 8.29291432 28.6467536 8.52327305 29.2061963 8.52327305H29.2555588l-.2632671 1.43151497H24.12185V9.92187963l.2632671-1.43151497H24.4344797c.559442600000001.0.8062556-.279721319999998.9378891-1.0037059l.7075304-4.0148236C26.1292618 3.20856804 26.0305366 3.12629706 25.7837237 3.12629706H25.1255559L25.3394604 1.89223243 29.6010969.0329083902H29.7162763zM5.28179662 1.92514082c-1.0037059.0-1.94159502 2.30358732-1.94159502 4.77171658.0.62525941.13163356 1.06952268.36199229 1.34924399.11517937.131633559999999.26326712.21390454.47717166.21390454 1.0037059.0 1.94159502-2.30358731 1.94159502-4.77171657.0-.62525942-.13163356-1.06952268-.36199229-1.349244C5.64378891 2.0074118 5.49570116 1.92514082 5.28179662 1.92514082zM72.895 9.905 73.1553513 8.49036466H73.2047139C73.7641565 8.49036466 74.0109695 8.21064334 74.142603 7.48665876L74.8501334 3.47183516C74.899496 3.20856804 74.8007708 3.12629706 74.5539579 3.12629706H73.8957901L74.1096946 1.89223243 78.3713312.0329083902H78.4865105L78.2232434 1.59605692 78.354877 1.49733175C79.4902164.641713608 80.378743.0493625852 81.4318114.0493625852c.559442700000005.0 1.0037059.1645419508 1.3327898.4936258528C83.2582271 1.03661429 83.4556774 1.89223243 83.2746813 2.96175511L82.4355173 7.66765491C82.320338 8.29291432 82.5013341 8.52327305 83.0607768 8.52327305H83.1101393L82.8468722 9.95478802H78.0093389L78.272606 8.52327305H78.3219686C78.8814112 8.52327305 79.1282241 8.24355173 79.2598577 7.51956715L79.9180255 3.61992292C79.9838423 3.27438482 79.9344797 3.04402609 79.8193003 2.91239253 79.7534835 2.84657575 79.6547584 2.81366736 79.5231248 2.81366736 79.2927661 2.81366736 79.0788615 2.94530092 78.7662318 3.17565965L78.0093389 3.75155648 77.3182627 7.61829232C77.2195375 8.24355173 77.3840795 8.47391047 77.9435221 8.47391047H77.9928847L77.7296176 9.90542544 72.895 9.905z"/></clipPath><clipPath id="i8"><path d="M56.2075304 4.75526238c1.431515.0 2.3529499.361992290000001 3.0440261 1.05306848C59.4490068 6.0057812 59.5970946 6.18677735 59.6958197 6.40068189 60.1729914 5.41343018 61.1437889 4.91980433 62.4765787 5.03498369L62.0487696 7.47020457C61.2918767 7.30566261 60.8476134 7.42084198 60.6172547 7.66765491 59.8932701 8.39163949 60.4856211 9.54343315 59.0376519 11.0078565 58.280759 11.7647495 57.0631485 12.2254669 55.5493626 12.2254669 55.2038245 12.2254669 54.8582864 12.1761044 54.5456567 12.143196 54.2823896 12.2748295 54.1672102 12.4064631 54.1672102 12.653276c0 .4936259.559442599999997.5100801 2.9123925.7239846 1.1847021.0987252000000005 2.2213164.2139045 2.780759.7733472C60.140083 14.4303291 60.3375334 14.8087756 60.3375334 15.351764c0 2.3364957-2.2213164 4.3439075-6.6474949 4.3439075-2.0896827.0-3.5541061-.411354899999999-4.2616365-1.1188853C49.1157723 18.2477023 48.9347762 17.8857101 48.9347762 17.457901c0-1.1847021.839163899999996-1.7935073 2.5833086-2.3694041C51.3535428 14.8252298 51.2383635 14.5290543 51.2383635 14.1506078c0-1.2834272.575896800000002-2.0732286 1.7276905-2.6491254-1.0695227-.7075304-1.6618737-1.87577828-1.4150608-3.34020164C51.9129855 6.08805218 53.7723095 4.75526238 56.2075304 4.75526238zM10.3332345.0c2.6326712.0 4.4919953.559442633 5.5450638 1.61251112.658167799999998.674622 1.0037059 1.53024014 1.0037059 2.55040023.0 2.12259117-1.2998815 3.88319004-3.7680107 4.85398755C13.7886155 10.8268604 14.9568633 12.6368218 16.4048325 14.084791c2.023866 2.0074118 4.6565372 3.4060184 7.6018381 3.4060184 1.8593241.0 2.5174919-.789801399999998 2.5174919-1.5796028C26.5241625 15.1049511 25.8989031 14.677142 25.306552 14.677142h-.2961755l.2632671-1.431515H25.3230062c.559442700000002.0.8062556-.2797213.937889100000003-1.0037059l1.4808776-8.39163945C27.7911355 3.58701453 27.7088645 3.50474355 27.4455974 3.50474355H26.7874296L27.0013341 2.27067892 31.4933294.230358731H31.6085087L29.4694634 12.3735547C29.3707382 12.9988141 29.5352802 13.2291728 30.0947228 13.2291728H30.1440854l-.2632671 1.431515H28.1202194S28.087311 14.6606878 28.087311 14.677142C28.5480285 14.8745924 29.0087459 15.1214053 29.354284 15.4669434 29.6504595 15.7631189 29.8479099 16.1251112 29.8479099 16.5529202c0 1.6125112-1.513786 2.8959384-5.5121554 2.8959384-5.1830714.0-9.2143492-1.7935073-12.1431959-4.722354-1.2998815-1.3163356-2.36940414-3.0604803-3.01111775-4.96916692H7.84865105L7.20693744 13.4430774c-.19745034 1.0695227.14808776 1.431515 1.3656982 1.5137859L8.30936851 16.4541951C7.19048325 16.3719241 6.05514379 16.3061073 4.83753335 16.3061073 3.71864809 16.3061073 2.61621702 16.3719241 1.49733175 16.4541951l.26326712-1.4973318C3.04402609 14.841684 3.29083902 14.4796917 3.48828936 13.410169L5.41343018 2.45167507c-.93788912.23035873-1.71123629.54298843-2.28713312.92143492.42780908.27972132.62525942.82270976.49362586 1.41506078-.14808776.92143492-1.06952268 1.51378595-1.97450341 1.51378595-.51008005.0-.921434927-.164541959999999-1.201156243-.44426327C.164541951 5.57797213.0 5.16661725.0 4.72235399.0 2.05677438 4.47554106.0 10.3332345.0zM52.9166914 15.9605692C52.1927068 16.2896531 51.7155351 16.5364661 51.7155351 17.0300919 51.7155351 17.5237178 52.4395197 17.8034391 54.2001186 17.8034391 55.9936259 17.8034391 56.931515 17.2439964 56.931515 16.8984583 56.931515 16.618737 56.6353395 16.4871035 55.7139045 16.4048325 54.8582864 16.3225615 53.7887637 16.2402905 52.9166914 15.9605692zM40.9873999 4.75526238l-1.349244 7.61829232C39.5394308 12.9988141 39.7039727 13.2291728 40.2634154 13.2291728H40.3127779l-.2632671 1.431515H35.2119775l.2632671-1.431515H35.5246072c.559442600000004.0.806255499999999-.2797213.9378891-1.0037059L37.1371183 8.19418915C37.1864809 7.93092203 37.0877557 7.84865105 36.8409428 7.84865105H36.182775L36.3966795 6.61458642l4.4755411-1.85932404H40.9873999zM36.692855.213904536 34.5538097 12.3571005C34.4386303 12.9823599 34.6196264 13.2127186 35.1790691 13.2127186H35.2284317L34.9651645 14.6442336H30.1276312l.2632671-1.431515H30.4402609c.559442600000001.0.8062556-.2797213.937889100000003-1.0037059l1.4479692-8.37518525C32.8754818 3.57056033 32.7767566 3.48828936 32.5299437 3.48828936H31.8717759L32.0856804 2.25422473 36.5776757.213904536H36.692855zM56.2898014 6.41713608C55.664542 6.41713608 55.1050993 7.25630003 54.8911948 8.50681886 54.6772902 9.74088349 54.9405574 10.5965016 55.6151794 10.5965016 56.2404388 10.6129558 56.7505188 9.77379188 56.9808776 8.50681886 57.2112363 7.22339164 56.9644234 6.41713608 56.2898014 6.41713608zM10.1522384 2.0074118c-.31262974.0-.60880525.0-.90498077.0164541900000001L8.24355173 7.7005633C8.49036466 7.71701749 8.75363178 7.71701749 8.96753632 7.71701749c3.07693448.0 4.09709458-1.6618737 4.11354878-3.48828935.0-1.44796917-.839163999999999-2.22131634-2.9288467-2.22131634zM39.9014231.756892974C40.4608657.756892974 40.8722206.921434924 41.1354877 1.20115624 41.3987548 1.48087756 41.5468426 1.85932404 41.5468426 2.32004151c0 1.18470204-1.0695227 2.13904536-2.3694041 2.13904536C38.63445 4.47554106 38.2230952 4.29454492 37.9433739 4.0148236 37.6636525 3.73510228 37.532019 3.3566558 37.532019 2.89593833c0-1.18470204 1.0695227-2.139045356 2.3694041-2.139045356z"/></clipPath><clipPath id="i9"><path d="M7.88155944.0C10.0864216.0 10.5800474.510080047 12.6039134.444263267c-.2961755 1.069522683-.7075304 2.928846723-.9214349 4.146457163H10.0206048L10.0864216 4.22872814C10.2180551 3.53765194 10.037059 2.92884672 9.64215832 2.51749185 9.28016602 2.15549956 8.687815 1.92514082 7.93092203 1.92514082c-1.48087756.0-2.36940409.70753039-2.36940409 1.87577824.0.83916395.444263260000001 1.349244 1.29988141 2.0074118L9.00044471 7.43729618C9.44470798 7.78283427 9.83960866 8.12837237 10.1851468 8.45745627c.9378891.93788912 1.4150607 1.90868663 1.4150607 3.10984283.0 3.0440261-2.48458343 5.0678921-6.10450634 5.0678921-2.92884673.0-4.04773199-1.3821524-5.49570116-1.3163356.115179366-1.431515.148087756-3.3237474.131633561-4.7058998H1.77705307c.13163356 1.2998814.57589683 2.4023125 1.21761043 3.0440261.6910762.6910762 1.49733176 1.0037059 2.56685444 1.0037059 1.48087755.0 2.48458345-.9378891 2.48458345-2.1554995.0-.8720724-.42780907-1.3327898-1.26697302-1.9745034L4.64008301 8.90171954C4.19581975 8.55618144 3.78446487 8.21064334 3.45538097 7.89801364 2.59976282 7.04239549 2.18840795 6.17032315 2.18840795 4.85398755 2.18840795 1.94159502 4.54135784.0 7.88155944.0z"/></clipPath><clipPath id="i10"><path d="M5.21597984.0 4.77171657 2.59976282H7.74992588L6.63104062 4.32745331H4.44263267L3.6692855 8.73717759C3.50474355 9.6915209 3.70219389 9.97124222 4.14645716 9.97124222 4.57426623 9.97124222 4.95271272 9.75733768 5.6931515 9.13207827l.69107619 1.39860663c-.92143492.9214349-2.07322858 1.777053-3.63637711 1.777053-.72398459.0-1.3327898-.2139045-1.760598875-.641713599999999-.526534243-.5265342-.773347169-1.3986066-.559442633-2.61621701L1.26697302 4.3439075H0L.230358731 3.04402609 5.10080047.0h.11517937z"/></clipPath><clipPath id="i11"><path d="M25.9647198.0164541951c1.1188853.0 1.9745034.3290839019 2.5833087.9378891199C29.1239253 1.53024014 29.4694634 2.3529499 29.4694634 3.32374741 29.4694634 3.65283131 29.4201008 3.98191521 29.3378298 4.3439075L23.4801364 6.6804032C23.6282241 7.32211681 24.1383042 7.6841091 24.9281055 7.6841091c.8720724.0 1.9745035-.49362585 2.9782094-1.28342721L28.8277498 7.86510525c-1.2340647 1.13533946-2.8301216 2.33649565-4.9198044 2.33649565-1.184702.0-2.0732285-.312629660000001-2.6984879-.937889070000001C20.584198 8.63845242 20.2386599 7.7005633 20.2386599 6.48295286c0-3.70219389 2.4681293-6.4664986649 5.7260599-6.4664986649zM5.33115921.0c1.23406463.0 2.25422472.361992292 2.9782093 1.08597688.75689298.75689297 1.15179366 1.84286984 1.15179366 3.27438482.0 2.9946635-2.15549956 5.8247851-5.33115921 5.8247851-1.25051882.0-2.25422472-.36199234-2.9782093-1.08597692C.411354877 8.3587311.0 7.25630003.0 5.82478506.0 2.83012155 2.15549956.0 5.33115921.0zM5.28179662 1.92514082c-1.0037059.0-1.94159502 2.30358732-1.94159502 4.77171658.0.62525941.13163356 1.06952268.36199229 1.34924399.11517937.131633559999999.26326712.21390454.47717166.21390454.9872517.0 1.94159502-2.30358731 1.94159502-4.77171657.0-.62525942-.13163356-1.06952268-.36199229-1.349244C5.64378891 2.0074118 5.49570116 1.92514082 5.28179662 1.92514082zM25.5369108 1.79350726C24.6812926 1.80996146 23.9079454 3.10984287 23.5953157 4.75526238l2.4352209-1.0201601C26.145716 3.3566558 26.1621702 3.02757189 26.1621702 2.76430477c0-.6581678-.230358799999998-.97079751-.625259399999997-.97079751z"/></clipPath><clipPath id="i12"><path d="M5.08434628.0C6.26904832.0 7.20693744.345538097 7.88155944 1.02016009 8.60554403 1.74414468 8.96753632 2.78075897 8.96753632 4.11354877c0 2.69848799-1.94159502 5.57797213-5.08434628 5.57797213-1.18470205.0-2.12259117-.345538100000001-2.79721316-1.02016009C.361992292 7.94737622.0 6.91076193.0 5.57797213.0 2.89593833 1.94159502.0 5.08434628.0zM32.4147643.0164541951C32.9083902.0164541951 33.2868366.164541951 33.566558.444263267 34.0108212.888526534 34.1753632 1.6618737 34.0108212 2.64912541L33.1716573 7.3550252C33.1222947 7.61829232 33.0893863 7.98028461 33.3032908 8.24355173 33.4349244 8.39163949 33.6159205 8.45745627 33.7804625 8.49036466L33.6159205 9.44470798 29.272013 9.42825378 29.436555 8.47391047C30.1605396 8.39163949 30.3579899 7.83219686 30.4567151 7.27275422L31.1477913 3.42247258C31.2300623 3.0111177 31.1642455 2.69848799 30.9667951 2.50103765 30.8516158 2.38585829 30.6870738 2.32004151 30.4896235 2.32004151 30.1769938 2.32004151 29.9137267 2.48458346 29.5846428 2.73139638L28.761933 3.37310999l-.7075304 3.96546102C28.00504 7.60183813 27.9721316 7.96383042 28.1860362 8.22709754 28.3176697 8.37518529 28.4986659 8.44100208 28.6632078 8.47391047L28.4986659 9.42825378H24.1712126L24.3357545 8.47391047C25.0597391 8.39163949 25.2571894 7.83219686 25.3559146 7.27275422L26.063445 3.25793063C26.0798992 3.12629706 26.0963534 2.94530092 25.981174 2.79721316 25.8495405 2.64912541 25.6685443 2.63267121 25.5204566 2.63267121H25.1584643L25.306552 1.80996146 29.1403795.131633561 28.844204 1.94159502 29.4859176 1.41506078C30.5389861.625259413 31.4110584.0164541951 32.4147643.0164541951zm48.7702342.0C81.6786244.0164541951 82.0570709.164541951 82.3367922.444263267 82.7810554.888526534 82.9455974 1.6618737 82.7810554 2.64912541L81.9418915 7.3550252C81.8925289 7.61829232 81.8596205 7.98028461 82.0735251 8.24355173 82.2051586 8.39163949 82.3861548 8.45745627 82.5506967 8.49036466L82.3861548 9.44470798 78.0422473 9.42825378 78.2067892 8.47391047C78.9307738 8.39163949 79.1282241 7.83219686 79.2269493 7.27275422L79.9180255 3.42247258C80.0002965 3.0111177 79.9344797 2.69848799 79.7370294 2.50103765 79.62185 2.38585829 79.457308 2.32004151 79.2598577 2.32004151 78.947228 2.32004151 78.6839609 2.48458346 78.354877 2.73139638L77.5321672 3.37310999 76.8246368 7.33857101C76.7752742 7.60183813 76.7423658 7.96383042 76.9562704 8.22709754 77.0879039 8.37518529 77.2689001 8.44100208 77.433442 8.47391047L77.2689001 9.42825378H72.9414468L73.1059887 8.47391047C73.8299733 8.39163949 74.0274237 7.83219686 74.1261488 7.27275422L74.8336792 3.25793063C74.8501334 3.12629706 74.8665876 2.94530092 74.7514082 2.79721316 74.6197747 2.64912541 74.4387785 2.63267121 74.2906908 2.63267121H73.9286985L74.0767862 1.80996146 77.9106137.131633561 77.6144382 1.94159502 78.2561518 1.41506078C79.3092203.625259413 80.1812926.0164541951 81.1849985.0164541951zM5.03498369 1.44796917c-1.29988141.0-2.18840794 2.6491254-2.18840794 5.0185295.0.67462199.14808775 1.16824785.42780907 1.51378594C3.43892677 8.17773495 3.6692855 8.27646012 3.93255262 8.27646012c1.29988141.0 2.18840795-2.6491254 2.18840795-5.01852949.0-.674622-.14808776-1.16824786-.42780907-1.51378595-.16454195-.19745034-.39490068-.29617551-.65816781-.29617551z"/></clipPath><clipPath id="i13"><path d="M55.9607175 4.77171657c1.2998814.0 2.1884079.29617551 2.8630299.970797510000001C59.0047436 5.92351023 59.1363771 6.10450637 59.2186481 6.28550252L59.4490068 6.72976579 59.6629114 6.26904832c.3949006-.80625555 1.1517936-1.25051882 2.2048621-1.25051882H61.9335903L61.6045064 6.92721613C61.4564186 6.91076193 61.3083309 6.89430774 61.1766973 6.89430774c-.5265342.0-.822709799999998.18099614-.987251700000002.34553809C59.8274533 7.60183813 59.7451823 8.0296472 59.6629114 8.47391047 59.547732 9.08271568 59.4160984 9.77379188 58.6098429 10.5635932c-.7404388.7404388-1.9086867 1.1517937-3.3072932 1.1517937C54.98992 11.7153869 54.6608361 11.6824785 54.3317521 11.6331159L54.2494812 11.6166617 54.1836644 11.6495701c-.2632671.131633600000001-.5265342.3126297-.5265342.7404388.0.6910762.592351000000001.7404388 2.7643047.9378891L56.7998814 13.3608064 57.245344 13.4042685C58.1350218 13.495798 58.9953412 13.6287747 59.4325526 14.0518826 59.6958197 14.3151497 59.8274533 14.6606878 59.8274533 15.0720427 59.8109991 17.5895345 57.2935073 19.2020457 53.4103172 19.2020457 51.452268 19.2020457 50.0042988 18.8400534 49.3296768 18.1654314 49.0499555 17.8857101 48.9018678 17.5730803 48.9018678 17.2275422c0-.987251699999998.658167800000001-1.5631485 2.4187667-2.1390453L51.6332642 14.9897717 51.452268 14.7265046C51.2877261 14.4796917 51.2219093 14.2328787 51.2219093 13.920249c0-1.1517936.477171599999998-1.8757782 1.5960569-2.4352208L53.1964127 11.2875778 52.8344204 11.0572191c-1.0530685-.6910762-1.5302401-1.82641566-1.2998814-3.09338868C51.8800771 6.0222354 53.6077676 4.77171657 55.9607175 4.77171657zM10.0864216.0329083902c2.5504002.0 4.3439075.5100800478 5.3640676 1.5302401398.625259400000001.62525942.9378891 1.41506078.9378891 2.36940409.0 2.07322858-1.2834272 3.71864809-3.6034687 4.62362882L12.5545508 8.63845242 12.6368218 8.86881115c.7075304 1.87577825 1.8922325 3.70219385 3.3566558 5.15016305 2.2377705 2.2377705 5.0020753 3.4718352 7.7663801 3.4718352 1.3327898.0 2.7643048-.4771717 2.7643048-1.8264157.0-.9707975-.756892999999998-1.4808775-1.4644234-1.4808775L25.2242811 13.2291728C25.9482656 13.1469019 26.145716 12.5874592 26.2444412 12.0280166l1.4808775-8.39163949C27.7417729 3.50474355 27.7582271 3.32374741 27.6430477 3.17565965 27.5114142 3.02757189 27.330418 3.0111177 27.1823303 3.0111177H26.8367922L26.9848799 2.18840795 31.0490661.345538097 28.9758375 12.0938334C28.9264749 12.3571005 28.8935666 12.7190928 29.1074711 12.9823599 29.2391047 13.1304477 29.4201008 13.1962645 29.5846428 13.2291728L29.4201008 14.1835162H27.8734065C27.7253187 14.1835162 27.6430477 14.2822413 27.6101393 14.3809665 27.5936851 14.4632375 27.6101393 14.594871 27.7582271 14.677142c.5265342.2303587.921434900000001.4771717 1.2011562.7404388C29.2391047 15.6973021 29.3871924 16.0099318 29.3871924 16.3390157 29.3707382 18.0337978 27.49496 18.9716869 24.1053958 18.9716869c-4.8539876.0-8.8852654-1.5631485-11.978654-4.6565372-1.2834272-1.2834272-2.33649573-3.0111177-2.96175514-4.87044172L9.11562407 9.28016602H7.40438779l-.674622 3.88319008C6.61458642 13.7557071 6.6804032 14.1506078 6.89430774 14.4467833c.21390453.2797213.55944263.427809099999999 1.15179365.4936258l-.18099614 1.0201601C6.97657871 15.8947524 5.85769345 15.8289357 4.60717462 15.8289357 3.71864809 15.8289357 2.76430477 15.8618441 1.56314853 15.9605692l.16454195-1.0037059C2.9946635 14.8087756 3.29083902 14.3151497 3.48828936 13.2291728L5.47924696 1.90868663 5.11725467 2.0074118c-1.0037059.24681293-1.77705307.55944263-2.36940409.95434331l-.31262971.21390454.31262971.19745034c.34553809.23035873.49362585.6581678.37844648 1.15179366C2.9946635 5.3640676 2.13904536 5.84123925 1.39860658 5.84123925c-.42780907.0-.773347167-.13163356-1.020160093-.37844648C.131633561 5.21597984.0 4.87044174.0 4.50844945.0 1.9909576 4.42617848.0329083902 10.0864216.0329083902zM52.6369701 15.4669434 52.5546991 15.4998518C51.9294397 15.7795731 51.2054551 16.0922028 51.2054551 16.7997332c0 .904980700000003 1.4644233 1.0201601 2.7313964 1.0201601 1.8757782.0 2.9782093-.5758969 2.9782093-1.1517937C56.9150608 16.108657 56.256893 16.0099318 55.4670916 15.9276608L55.2367329 15.9112066C54.4140231 15.8289357 53.4925882 15.7466647 52.719241 15.4998518L52.6369701 15.4669434zM68.6962645.0c1.0530684.0 1.7112362.115179366 2.3529498.230358731.6088053.115179366 1.1847021.213904536 2.0403202.213904536H73.1059887C72.8427216 1.44796917 72.5136377 2.96175511 72.2997332 4.09709457H71.1314853L71.1479395 4.03127779C71.2960273 3.27438482 71.0985769 2.56685443 70.6378595 2.10613697 70.2100504 1.6783279 69.5354284 1.43151497 68.745627 1.43151497 67.1331159 1.43151497 66.12941 2.25422473 66.12941 3.55410614 66.12941 4.49199526 66.6394901 5.06789208 67.5280166 5.75896828L69.667062 7.38793359C70.0784168 7.7005633 70.4568633 8.0296472 70.8188556 8.39163949 71.7402905 9.31307441 72.1516454 10.2180551 72.1516454 11.3204862 72.1351912 14.2328787 69.7822413 16.1580196 66.2774978 16.1580196 64.6485325 16.1580196 63.6119182 15.7302105 62.7069374 15.3353098 62.1145864 15.0884969 61.6045064 14.8745924 61.0450637 14.8252298 61.1273347 13.5747109 61.1766973 11.978654 61.1602431 10.6129558h1.1847021C62.5094871 11.8634747 62.9537504 12.9329973 63.6119182 13.5747109c.7404388.7404388 1.6125111 1.0695227 2.7478506 1.0695227 1.5796027.0 2.7313963-1.0201601 2.7313963-2.4023125.0-1.0366143-.559442599999997-1.5466943-1.3656982-2.1554995L65.5864216 8.45745627C65.1257041 8.09546398 64.7308034 7.76638008 64.4346279 7.47020457 63.595464 6.63104062 63.2499259 5.79187667 63.2499259 4.60717462 63.2499259 1.84286985 65.4383338.0 68.6962645.0zm9.0168989 2.81366736L77.3018085 5.24888823H80.1154758L79.3256745 6.48295286H77.0714497L76.2651942 11.0901275C76.1500148 11.7318411 76.1829232 12.1267418 76.3803736 12.3571005 76.5120071 12.5216425 76.7094575 12.6039134 76.9727246 12.6039134 77.4005336 12.6039134 77.7954343 12.4229173 78.4371479 11.9128372L78.8978654 12.8671806C78.108064 13.6405277 77.0385414 14.4467833 75.5576638 14.4467833 74.8830418 14.4467833 74.3565076 14.2493329 73.9780611 13.8708865 73.467981 13.3608064 73.3034391 12.5545508 73.4844352 11.4850282L74.3729618 6.48295286H73.1059887L73.2705307 5.57797213l4.4426327-2.76430477zM84.854284 4.75526238C86.0389861 4.75526238 86.9768752 5.10080047 87.6514972 5.77542247 88.3754818 6.49940706 88.7374741 7.53602135 88.7374741 8.86881115 88.7210199 11.5672991 86.7794248 14.4467833 83.6531278 14.4467833 82.4684257 14.4467833 81.5305366 14.1012452 80.8559146 13.4266232 80.13193 12.7026386 79.7699377 11.6660243 79.7699377 10.3332345c0-2.68203379 1.9415951-5.57797212 5.08434630000001-5.57797212zm20.650015.0c1.036614.0 1.826415.27972131 2.418767.872072340000001C108.482508 6.18677735 108.778684 6.94367032 108.778684 7.83219686 108.778684 8.09546398 108.745775 8.37518529 108.679958 8.67136081l-5.939964 2.36940409L102.789357 11.2546694C102.970353 12.0115624 103.579158 12.4558257 104.484139 12.4558257 105.323303 12.4558257 106.376371 12.0280166 107.396531 11.2875778L108.038245 12.3406463c-1.201156 1.0530685-2.682034 2.106137-4.607175 2.106137-1.10243100000001.0-1.94159500000001-.2961755-2.517492-.8720724C100.337682 12.9988141 100.025052 12.0938334 100.025052 10.9749481c0-3.53765192 2.35294999999999-6.21968572 5.479247-6.21968572zm-65.1092501.13163356-1.2834272 7.22339166C39.0622591 12.3735547 39.0293507 12.735547 39.2432553 12.9988141 39.3748888 13.1469019 39.555885 13.2127186 39.7204269 13.245627L39.555885 14.1999704 35.2119775 14.1835162 35.3765194 13.2291728C36.100504 13.1469019 36.2979543 12.5874592 36.3966795 12.0280166L37.1042099 8.013193C37.1206641 7.88155944 37.1371183 7.7005633 37.0219389 7.55247554 36.8903054 7.40438779 36.7093092 7.38793359 36.5612215 7.38793359H36.1992292L36.3473169 6.56522384l4.047732-1.6783279zM36.1169582.345538097 34.0437296 12.0938334C33.994367 12.3571005 33.9614586 12.7190928 34.1753632 12.9823599 34.3069967 13.1304477 34.4879929 13.1962645 34.6525348 13.2291728L34.4879929 14.1835162H30.1440854L30.3086273 13.2291728C31.0326119 13.1469019 31.2300623 12.5874592 31.3287874 12.0280166L32.809665 3.63637711C32.8261192 3.50474355 32.8425734 3.32374741 32.727394 3.17565965 32.5957605 3.02757189 32.4147643 3.0111177 32.2666765 3.0111177H31.9046843L32.052772 2.18840795 36.1169582.345538097zM84.8049214 6.20323154c-1.2998814.0-2.1884079 2.64912541-2.1884079 5.01852946C82.6165135 11.896383 82.7646012 12.3900089 83.0443226 12.735547c.164541900000003.1974503.3949006.2961755.658167800000001.2961755 1.2998814.0 2.1884079-2.6491254 2.1884079-5.0185295C85.8908983 7.33857101 85.7428106 6.84494515 85.4630892 6.49940706 85.2985473 6.30195672 85.0681886 6.20323154 84.8049214 6.20323154zM56.0265342 5.93996442c-.756892899999997.0-1.3986065.90498073-1.6289653 2.30358731C54.233027 9.18144085 54.3317521 9.90542544 54.6608361 10.3003261 54.8418322 10.5142307 55.0886451 10.62941 55.3683664 10.62941 56.092351 10.62941 56.684702 9.77379188 56.9644234 8.32582271 57.1454195 7.3714794 57.0631485 6.64749481 56.7340646 6.25259413 56.5530685 6.05514379 56.3062556 5.93996442 56.0265342 5.93996442zm49.0335018.13163356c-1.085977.0-1.87577899999999 1.57960273-2.188408 3.15920546L102.789357 9.6915209 105.767566 8.44100208 105.800474 8.32582271C105.915654 7.88155944 105.932108 7.51956715 105.932108 7.28920842 105.932108 6.18677735 105.323303 6.07159798 105.060036 6.07159798zM9.87251705 1.53024014C9.57634154 1.53024014 9.26371183 1.53024014 8.95108212 1.54669434L8.75363178 1.56314853 7.66765491 7.6841091 7.93092203 7.7005633C8.19418915 7.71701749 8.45745627 7.71701749 8.67136081 7.71701749c2.76430479.0 4.36036169-1.36569819 4.36036169-3.73510228C13.0481767 2.3364957 12.0115624 1.53024014 9.87251705 1.53024014zM39.6381559.789801364C40.0988734.789801364 40.4608657.921434924 40.7076786 1.16824785 40.9215832 1.38215239 41.0367625 1.71123629 41.0367625 2.10613697 41.0532167 3.14275126 40.0988734 3.9983694 38.9141714 3.9983694 38.4534539 3.9983694 38.0914616 3.86673584 37.8446487 3.61992292 37.6307441 3.40601838 37.5155648 3.07693448 37.5155648 2.6820338c0-1.03661429.954343299999998-1.892232436 2.1225911-1.892232436z"/></clipPath></defs><g clip-path="url(#i0)"><g transform="translate(0.0 19.0)"><g clip-path="url(#i1)"><polygon points="0,0 111,0 111,21.505633 0,21.505633 0,0" stroke="none" fill="#000"/></g><g transform="translate(0.13163356062851506 0.1316335606285186)"><g clip-path="url(#i2)"><polygon points="0,0 99.9233346,0 99.9233346,19.9753928 0,19.9753928 0,0" stroke="none" fill="#fff"/></g></g><g transform="translate(16.207382152386593 0.8885265342425122)"><g clip-path="url(#i3)"><polygon points="0,-1.33226763e-15 46.9438186,-1.33226763e-15 46.9438186,19.4324044 0,19.4324044 0,-1.33226763e-15" stroke="none" fill="#fff"/></g></g><g transform="translate(61.11088052179069 0.11517936554995245)"><g clip-path="url(#i4)"><polygon points="0,0 13.2620812,0 13.2620812,17.1781797 0,17.1781797 0,0" stroke="none" fill="#fff"/></g></g><g transform="translate(73.1059887340646 2.74785057812037)"><g clip-path="url(#i5)"><polygon points="0,0 8.53972725,0 8.53972725,12.8507264 0,12.8507264 0,0" stroke="none" fill="#fff"/></g></g><g transform="translate(79.86866291135485 4.853987548176695)"><g clip-path="url(#i6)"><polygon points="0,0 30.0130133,0 30.0130133,10.711681 0,10.711681 0,0" stroke="none" fill="#fff"/></g></g><g transform="translate(0.3455380966498609 0.37844648680698967)"><g transform="translate(16.12511117699377 4.73880818262675)"><g clip-path="url(#i7)"><polygon points="0,0 83.3407751,0 83.3407751,10.1851468 0,10.1851468 0,0" stroke="none" fill="#000"/></g></g><g><g clip-path="url(#i8)"><polygon points="0,0 62.4765787,0 62.4765787,19.6956715 0,19.6956715 0,0" stroke="none" fill="#000"/></g></g><g transform="translate(61.045063741476426 8.881784197001252e-15)"><g clip-path="url(#i9)"><polygon points="0,0 12.6039134,0 12.6039134,16.6351912 0,16.6351912 0,0" stroke="none" fill="#000"/></g></g><g transform="translate(73.08953453898607 2.6326712125704166)"><g clip-path="url(#i10)"><polygon points="0,0 7.74992588,0 7.74992588,12.3077379 0,12.3077379 0,0" stroke="none" fill="#000"/></g></g><g transform="translate(79.78639193596206 4.738808182626748)"><g clip-path="url(#i11)"><polygon points="0,0 29.4694634,0 29.4694634,10.2016009 0,10.2016009 0,0" stroke="none" fill="#000"/></g></g></g><g transform="translate(0.6088052179068981 0.6088052179069106)"><g transform="translate(16.10865698191521 4.755262377705302)"><g clip-path="url(#i12)"><polygon points="0,0 82.8435525,0 82.8435525,9.6915209 0,9.6915209 0,0" stroke="none" fill="#e60019"/></g></g><g><g clip-path="url(#i13)"><polygon points="0,0 108.778684,0 108.778684,19.2020457 0,19.2020457 0,0" stroke="none" fill="#e60019"/></g></g></g></g></g></svg>