<svg xmlns="http://www.w3.org/2000/svg" xmlns:xlink="http://www.w3.org/1999/xlink" width="111" height="60" viewBox="0 0 111 60"><defs><clipPath id="i0"><path d="M111 0V60H0V0H111z"/></clipPath><clipPath id="i1"><path d="M19.885075 18.6195623C20.0444105 18.6515608 19.9806763 18.6195623 20.0125434 18.7475563c.0637343000000001.383981800000001.0.831960600000002.0 1.2159424v6.6876831c0 .799962100000002-.2230697 2.2718924.541740900000001 2.7518697C20.9366895 29.6590393 21.4784304 29.6590393 21.9245699 29.5630439 22.2751081 29.4990469 22.9443173 29.2430591 23.0717857 28.8590772 23.1036529 28.7630818 23.0717857 28.6350879 23.0717857 28.5390924V20.6994638C23.0717857 20.6354668 23.1036529 20.4434759 23.0717857 20.379479 22.9761844 20.2834835 22.6575133 20.1874881 22.561912 20.1554896 22.3707094 20.0914926 22.2113738 19.9954972 22.0201712 19.9315002 21.956437 19.8995017 21.7333672 19.8675032 21.7015001 19.8035063 21.669633 19.7715078 21.669633 19.4835214 21.7015001 19.4515229S21.7333672 19.4515229 21.7652343 19.4195244C21.9245699 19.323529 22.2113738 19.3555275 22.3707094 19.323529 23.6772608 19.0995396 25.0156793 18.8115532 26.3540978 18.6195623 26.5134333 18.5875639 26.6727689 18.5875639 26.8321044 18.6195623 26.99144 18.6515608 26.9277057 18.5875639 26.9595728 18.7475563c.0637343000000001.3199848.0.767963600000002.0 1.1199469v9.2155634C26.9595728 29.1790621 26.9277057 29.3390545 26.9595728 29.4670484 26.99144 29.5630439 26.9595728 29.5310454 27.1189084 29.5950424 27.4375795 29.7230363 27.7881176 29.8830287 28.1067887 30.0110227 28.20239 30.0430212 28.2342571 30.0430212 28.2661242 30.1070181 28.2979914 30.1710151 28.2979914 30.3950045 28.2661242 30.3950045 28.20239 30.4590014 27.883719 30.427003 27.8199847 30.4590014 27.1189084 30.5549969 26.417832 30.6189939 25.6848885 30.7149893 25.0475464 30.7789863 24.4102043 30.8749817 23.8047292 30.9389787 23.6772608 30.9709772 23.5497924 30.9709772 23.4223239 30.9389787 23.3585897 30.9389787 23.1673871 30.9389787 23.13552 30.9069802 23.1036529 30.8429833 23.13552 30.5869954 23.13552 30.5229984V29.9790242C23.13552 29.8830287 23.1992542 29.6270409 23.13552 29.5310454 23.0717857 29.43505 22.9443173 29.5630439 22.848716 29.6270409 22.5937791 29.8510303 22.3069752 30.0750196 22.0201712 30.2350121 20.9685567 30.8749817 19.6620053 31.1629681 18.4510552 30.9069802 17.5587762 30.7149893 16.7939656 30.2030136 16.4115603 29.3390545 16.1247563 28.7310833 16.0610221 28.0591151 16.0610221 27.4191455V20.6994638C16.0610221 20.6354668 16.0928892 20.4434759 16.0610221 20.379479 15.9972879 20.2834835 15.6148826 20.1874881 15.5192813 20.1234911 15.2006102 19.9954972 14.9456734 19.8995017 14.6907365 19.7715078 14.6907365 19.7075108 14.6588694 19.4515229 14.6907365 19.4195244 14.7226036 19.387526 14.7544707 19.4195244 14.7863378 19.387526 14.9775405 19.2915305 15.2324773 19.2915305 15.4555471 19.259532 16.1884906 19.1315381 16.921434 19.0035442 17.6862446 18.8755502 18.2598525 18.7795548 18.8334605 18.6515608 19.3752013 18.5875639 19.5345368 18.5555654 19.7257395 18.5555654 19.885075 18.6195623zm40.5668277-5.1197574C60.7068396 13.5318034 60.7387067 13.4678064 60.7387067 13.6917958c.0318670999999995.511975700000001.0 1.05595.0 1.5679257v14.015336C60.7387067 29.4030515 60.7068396 29.4030515 60.8024409 29.4670484 60.9936435 29.5950424 61.3123146 29.6590393 61.5035172 29.7230363 61.6309857 29.7550348 61.9815239 29.8190318 62.0452581 29.9150272 62.0771252 29.9470257 62.0771252 30.299009 62.0452581 30.3310075 62.013391 30.363006 61.8221883 30.363006 61.7903212 30.363006 61.3441817 30.427003 60.9299093 30.4909999 60.4837698 30.5229984 59.4958895 30.6509924 58.5080092 30.7789863 57.4882617 30.9069802 57.3289262 30.9389787 56.9465209 31.0029757 56.8827867 30.8749817c-.063734199999999-.1279939.0-.543974200000001.0-.671968100000001C56.8827867 30.1070181 56.9465209 29.6910378 56.8827867 29.6270409 56.8190525 29.5630439 56.1179761 30.2030136 56.0223748 30.2670105 55.6399695 30.5229984 55.2256971 30.7149893 54.7795576 30.8429833 54.0784812 31.0349742 53.2818035 31.0349742 52.5807272 30.8749817 49.5214849 30.1710151 48.8841427 26.5231879 49.1390796 23.8673137 49.266548 22.4593804 49.7126875 21.0514471 50.6687007 20.0274956 51.5609797 19.0995396 52.7719298 18.6195623 54.014747 18.5235669 54.9707602 18.4275714 55.8949063 18.4915684 56.7553182 18.8435517V15.5477079C56.7553182 15.4517124 56.7871854 15.2597215 56.7553182 15.1637261 56.7234511 15.0997291 56.5959827 15.0677306 56.5003814 15.0357321 56.2454445 14.9397367 55.9905077 14.8437412 55.7037037 14.7477458 55.5125011 14.6837488 55.4168997 14.7157473 55.4168997 14.4917579c0-.1919909-.0318670999999995-.1279939.127468499999999-.1599924C55.8949063 14.2037715 56.3091787 14.2037715 56.6597169 14.1397746 57.7113315 13.9477837 58.7310789 13.7557928 59.7826934 13.5638019 60.0057632 13.5318034 60.228833 13.4678064 60.4519027 13.4998049zM36.806509 19.0995396C37.7625222 19.5475184 38.3679973 20.3474805 38.5273328 21.371432 38.6229341 21.8834077 38.591067 22.4593804 38.591067 22.9713562V29.371053C38.591067 29.4670484 38.5273328 29.7230363 38.591067 29.7870333 38.6229341 29.8190318 38.7822697 29.8510303 38.8141368 29.8510303 39.0690737 29.9150272 39.2921434 29.9790242 39.5470803 30.0430212 39.7064158 30.0750196 39.7382829 30.0750196 39.7382829 30.2350121c0 .1599924.0318670999999995.1599924-.159335500000005.2239893C39.3558776 30.5549969 39.1328079 30.6509924 38.9097381 30.7149893 37.7306551 31.0669726 35.8823629 31.1629681 35.021951 30.0750196 34.9582168 29.9790242 34.7670142 29.5630439 34.6714128 29.5310454 34.5439444 29.4990469 34.1615391 30.0110227 34.0659378 30.1070181 33.5560641 30.5549969 32.8868548 30.8109848 32.2176456 30.9069802 30.9748284 31.0669726 29.6364099 30.8109848 28.8715993 29.7230363 28.2342571 28.7950803 28.1067887 27.3551485 28.5847953 26.331197 29.4452072 24.3792895 31.9945758 24.1872986 33.8110009 23.8673137 34.0659378 23.8353152 34.3208747 23.7713183 34.6076786 23.7393198 34.6076786 22.9073592 34.6395457 22.0434001 34.5758115 21.1794411 34.4802102 20.251485 34.2252733 19.2275335 33.1736588 19.0355426 32.8549877 18.9715457 32.2813798 18.8755502 32.05831 19.1315381 31.8352403 19.3555275 31.6759047 19.6755123 31.4847021 19.9315002l-1.6252225 2.2078954C29.7638783 22.2673895 29.668277 22.5233774 29.5408085 22.5873744 29.5089414 22.6193729 29.1902704 22.6193729 29.1902704 22.5873744 29.1584033 22.5553759 29.1902704 22.3313865 29.1902704 22.2673895V19.7075108C29.1902704 19.6115153 29.1584033 19.4515229 29.1902704 19.3555275 29.2540046 19.1955351 29.9232138 19.0995396 30.1144165 19.0355426 31.0066955 18.8115532 31.9308416 18.6515608 32.8231206 18.5875639 34.129672 18.4915684 35.5955589 18.5235669 36.806509 19.0995396zM11.7908297 14.4917579C12.2369692 14.5877533 12.6831087 14.6837488 13.0973811 14.8117427 13.1611153 14.8437412 13.4479193 14.9077382 13.4797864 14.9717352V15.0677306C13.5753877 15.4517124 13.5116535 15.9316897 13.5116535 16.3156715 13.5435206 17.3076245 13.5435206 18.331576 13.5753877 19.323529c-.1274684.0-.3505381.0319985000000003-.446139500000001.0C13.065514 19.2915305 13.0017798 19.1315381 12.9699127 19.0675411 12.7149758 18.6835593 12.460039 18.2995775 12.2369692 17.8835972 11.6952284 17.0196381 11.1216205 16.1556791 10.5798797 15.29172c-.286804-.4799773-1.0834817-.4799773-1.59335542-.4799773C8.41291635 14.8117427 7.83930842 14.9077382 7.36130181 15.1957245 6.27782015 15.8676927 5.76794644 17.1796306 5.48114247 18.3635745c-.4461395 1.8879105-.4142724 3.8718165-.31867107 5.7917256.0956013200000001 1.4719303.22306975 3.039856.79667768 4.3837923C6.30968726 29.371053 6.9151623 30.1070181 7.83930842 30.299009 8.12611238 30.363006 8.41291635 30.363006 8.73158742 30.3310075 8.92279007 30.299009 9.59199932 30.2670105 9.68760064 30.0750196c.0318671100000003-.0639968999999994.0-.2239893.0-.2879863V24.5392819C9.68760064 24.3152925 9.75133486 24.2192971 9.56013221 24.0913031 9.33706246 23.9633092 9.0821256 23.8353152 8.85905585 23.6753228 8.69972032 23.5793274 8.38104924 23.4833319 8.28544792 23.355338 8.2217137 23.291341 8.1898466 22.9393577 8.25358081 22.8753607 8.28544792 22.8113638 8.28544792 22.8433622 8.38104924 22.8433622 8.66785321 22.7793653 9.0502585 22.8433622 9.33706246 22.8433622H14.2764641c.3186711.0.6692093-.0319984000000027.987880300000001.0H15.3918129C15.42368 22.8753607 15.42368 23.3233395 15.3918129 23.3873365 15.3280787 23.4833319 15.0094076 23.6113259 14.8819391 23.6753228 14.6588694 23.8033168 14.4039325 23.9313107 14.1808628 24.0913031 13.9542522 24.2050755 13.9542522 24.2177169 13.9570499 24.4213835L13.957793 29.7230363C13.957793 29.7870333 13.9896601 29.9470257 13.957793 30.0110227 13.8940588 30.1710151 13.2248496 30.2670105 13.0336469 30.3310075 12.4919061 30.4909999 11.9182982 30.6189939 11.3446902 30.7149893 10.2293415 30.9069802 9.11399271 30.9709772 7.99864395 30.9389787 6.21408594 30.8749817 4.3339266 30.4909999 2.86803966 29.4030515 1.59335537 28.4750954.764810577 27.0671621.382405289 25.5312349.0956013221 24.6352773.0 23.6433243.0 22.6833698c0-1.7919151.350538181-3.6478272 1.33841851-5.1517559.95601322-1.4719303 2.48563438-2.4318848 4.14272396-2.9118621C7.48877023 14.0437791 9.71946775 14.1077761 11.7908297 14.4917579zm65.3913044 4.5757832C78.1381473 19.5155199 78.7436223 20.315482 78.9029579 21.3394335 78.9985592 21.8514092 78.9666921 22.4273819 78.9666921 22.9393577v6.3996968C78.9666921 29.43505 78.9029579 29.6910378 78.9666921 29.7550348 78.9985592 29.7870333 79.1578947 29.8190318 79.1897618 29.8190318 79.4446987 29.8830287 79.6677685 29.9470257 79.9227053 30.0110227 80.0820409 30.0430212 80.113908 30.0430212 80.113908 30.2030136S80.1457751 30.363006 79.9545724 30.427003C79.7315027 30.5229984 79.5084329 30.6189939 79.2853632 30.6829908 78.1062802 31.0349742 76.257988 31.1309696 75.3975761 30.0430212 75.3338419 29.9470257 75.1426392 29.5310454 75.0470379 29.4990469 74.9195695 29.4670484 74.5371642 29.9790242 74.4096957 30.0750196 73.899822 30.5229984 73.2306128 30.7789863 72.5614035 30.8749817 71.3185863 31.0349742 69.9801678 30.7789863 69.2153572 29.6910378 68.5780151 28.7630818 68.4505467 27.32315 68.9285533 26.2991985 69.7889652 24.347291 72.3383338 24.1553001 74.186626 23.8353152 74.4096957 23.8353152 74.6646326 23.7713183 74.9514366 23.7393198 74.9514366 22.9073592 74.9833037 22.0434001 74.9195695 21.1794411 74.8239681 20.251485 74.5690313 19.2275335 73.5174167 19.0355426 73.1987457 18.9715457 72.6251377 18.8755502 72.402068 19.1315381 72.1789982 19.3555275 72.0196627 19.6755123 71.82846 19.9315002L70.2032376 22.1393956C70.1076362 22.2673895 70.0120349 22.5233774 69.8845665 22.5873744 69.8526994 22.6193729 69.5340283 22.6193729 69.5340283 22.5873744 69.5021612 22.5553759 69.5340283 22.3313865 69.5340283 22.2673895V19.6755123C69.5340283 19.5795169 69.5021612 19.4195244 69.5340283 19.323529 69.5977625 19.1635366 70.2988389 19.0675411 70.4581744 19.0035442 71.3504534 18.7795548 72.2745995 18.6195623 73.1987457 18.5555654 74.5052971 18.4595699 75.971184 18.4915684 77.1821341 19.0675411zM45.1238241 18.6195623C45.1556912 18.6515608 45.1238241 18.8755502 45.1238241 18.9075487v2.8158666C45.1238241 21.8194107 45.0919569 21.9794032 45.1238241 22.0753986V22.1393956C45.2512925 22.2673895 45.2831596 21.8514092 45.3150267 21.8194107 45.6018307 20.6354668 46.1435715 19.259532 47.3545216 18.7795548 47.5775913 18.6835593 47.8006611 18.6515608 48.0237308 18.6195623 48.2149335 18.6195623 48.7566743 18.5555654 48.8522756 18.7155578 48.8841427 18.7795548 48.8522756 18.9395472 48.8522756 19.0035442v3.2638453C48.087465 22.1073971 47.2270531 22.1393956 46.4941097 22.299388 46.1435715 22.363385 45.8249004 22.4593804 45.5062293 22.6193729 45.3468938 22.6833698 45.3150267 22.6513713 45.2831596 22.7793653c-.0318670999999995.1279939.0.351983300000001.0.4799772V29.43505c0 .0639968999999994-.0318670999999995.1599924.0.2239893C45.3468938 29.7550348 45.5699636 29.8190318 45.6655649 29.8510303l.5098737.2879863C46.2391728 30.1710151 46.3347741 30.2030136 46.3666412 30.2670105 46.3985083 30.299009 46.3985083 30.6829908 46.3666412 30.7149893 46.3347741 30.7469878 46.1435715 30.7149893 46.0798373 30.7149893H40.7898974C40.6305619 30.7149893 40.3437579 30.7789863 40.2162895 30.7149893H40.1206882C40.0888211 30.6829908 40.1206882 30.3310075 40.1206882 30.299009 40.1844224 30.1070181 40.5986948 29.9790242 40.7898974 29.8830287 40.9173659 29.8190318 41.1723027 29.7230363 41.236037 29.5950424 41.2679041 29.5310454 41.236037 29.3390545 41.236037 29.2750575V20.379479C41.236037 20.3474805 41.2679041 20.1874881 41.236037 20.1554896 41.2041698 20.1234911 41.0448343 20.0914926 40.9811001 20.0914926 40.7898974 20.0274956 40.5986948 19.9634987 40.4074922 19.9315002 40.2162895 19.8675032 39.7382829 19.8355047 39.8976184 19.5155199 39.9294855 19.4195244 40.056954 19.4515229 40.1844224 19.4195244 41.5865751 19.1635366 42.9568608 18.9075487 44.3590135 18.6515608 44.4864819 18.5875639 44.6139503 18.5875639 44.7414188 18.5555654 44.805153 18.5555654 45.0919569 18.5555654 45.1238241 18.6195623zM67.3033308 18.5555654 67.373104 18.5643346 67.5132077 18.5689991C67.6031417 18.5738502 67.6811836 18.5921351 67.7176032 18.6835593 67.7494703 18.7795548 67.7176032 19.0035442 67.7176032 19.0995396V29.1150651C67.7176032 29.2430591 67.6857361 29.43505 67.7176032 29.5630439S67.8769387 29.7230363 68.0044072 29.7870333l.5417408.2879863C68.6098822 30.1070181 68.8010848 30.1710151 68.8329519 30.2670105 68.8329519 30.299009 68.8648191 30.6829908 68.8329519 30.7149893H68.7373506C68.546148 30.7469878 68.2912111 30.7149893 68.0681414 30.7149893H63.224341C63.0968726 30.7149893 62.7463344 30.7789863 62.6507331 30.7149893 62.5869989 30.6829908 62.5551318 30.299009 62.618866 30.2350121 62.6826002 30.1390166 62.90567 30.0750196 63.0012713 30.0430212 63.1924739 29.9470257 63.3836766 29.8190318 63.5748792 29.7230363 63.7342148 29.6270409 63.7023477 29.6590393 63.7023477 29.5310454c.0637342000000061-.479977300000002.0-1.0239515.0-1.5039287v-7.135662c0-.1279939.0318670999999995-.351983300000001.0-.4799772C63.6704805 20.2834835 63.511145 20.2834835 63.3836766 20.2194865 63.1606068 20.1234911 62.9694042 20.0594941 62.7463344 19.9634987 62.6826002 19.9315002 62.4276634 19.8995017 62.3639291 19.8035063 62.332062 19.7715078 62.332062 19.4515229 62.3639291 19.4195244 62.3957963 19.387526 62.4595305 19.4195244 62.4913976 19.387526 62.7463344 19.2915305 63.0331384 19.2915305 63.3199424 19.2275335 63.7342148 19.1635366 64.1166201 19.0675411 64.5308924 19.0035442 65.3275701 18.8755502 66.0923807 18.7155578 66.8890584 18.5875639 67.0483939 18.6195623 67.1758624 18.5875639 67.3033308 18.5555654zM34.6076786 24.3152925C33.6516654 24.3792895 32.6637851 24.4432864 32.3132469 25.4992364 32.05831 26.2032031 32.05831 27.0351637 32.1539113 27.7711288 32.2176456 28.2831045 32.345114 28.9230742 32.8231206 29.2430591 33.3329943 29.5950424 34.1934062 29.5310454 34.6076786 29.0510681V24.3152925zm40.343758.0C73.9954233 24.3792895 73.007543 24.4432864 72.6570048 25.4992364 72.402068 26.2032031 72.402068 27.0351637 72.4976693 27.7711288 72.5614035 28.2831045 72.6888719 28.9230742 73.1668785 29.2430591 73.6767523 29.5950424 74.5371642 29.5310454 74.9514366 29.0510681V24.3152925zM55.0026273 19.1955351C54.2696839 19.4835214 53.9191457 20.3474805 53.727943 21.0514471 53.3455378 22.3313865 53.3136707 23.7073213 53.3455378 25.0512576 53.3774049 26.2032031 53.409272 27.6111364 54.0466141 28.6350879c.573608.895957500000002 1.8801594 1.1199469 2.7087041.4159802V19.7075108C56.7553182 19.5155199 56.7234511 19.4835214 56.5003814 19.3555275 56.0542419 19.0995396 55.480634 19.0035442 55.0026273 19.1955351zm11.0897534-5.6317332C67.0483939 13.7557928 67.7494703 14.5877533 67.7494703 15.5797064 67.6857361 17.4996154 65.1045004 18.331576 63.9254174 16.8276472 63.3836766 16.1236806 63.3518095 15.1637261 63.8298161 14.4277609 64.3078227 13.6917958 65.2319688 13.371811 66.0923807 13.5638019zM52.5807272 5.8521672c2.2944317.92795604 2.676837 3.55183173 2.676837 5.7277286H49.1709467C48.8841427 11.5478974 48.5973388 11.5478974 48.3105348 11.5478974 48.374269 12.9558307 48.8204085 14.5237564 50.0950928 15.29172 50.7643021 15.6757018 51.5928469 15.8036957 52.3576574 15.7396988 53.2818035 15.6437033 54.0466141 15.1957245 54.8432918 14.7797443c0 .1279939.0318670999999995.351983299999999.0.479977199999999C54.7795576 15.3877155 54.6202221 15.5477079 54.5246207 15.6437033 54.3971523 15.7716973 54.2378168 15.9316897 54.0784812 16.0596836 53.5367404 16.5076624 52.9312654 16.8276472 52.2939232 17.0516366 51.0829731 17.4676169 49.6808204 17.4356184 48.4380032 17.1156336 47.4501229 16.8596457 46.5578439 16.3796685 45.8886346 15.6117048 45.2194254 14.8437412 44.8370201 13.8517882 44.6776845 12.8278367 44.3271464 10.6199413 44.7414188 8.09206108 46.5578439 6.62013082c1.5933554-1.27993937 4.1427239-1.53592724 6.0228833-.76796362zM36.9658446.028443097c.0318671000000066.031998484.0.15999242.0.191990904V6.8441202c1.21095-1.21594239 3.3141791-1.88791056 5.0031358-1.47193026 1.465887.35198332 1.9438936 1.72791814 1.9438936 3.13585144.0318670999999995 1.79191512.0 3.55183172.0 5.34374682V15.29172c0 .1599924-.063734199999999.543974200000001.0.703966600000001C43.9447411 16.0596836 44.0722095 16.0916821 44.1359437 16.1556791L44.8370201 16.5396609C44.8688872 16.5716594 44.9644885 16.6036578 44.9644885 16.6356563 44.9963556 16.6676548 44.9963556 16.9556412 44.9644885 16.9876397 44.9326214 17.0516366 44.9326214 17.0196381 44.8370201 17.0196381 44.4864819 17.0836351 44.1040766 17.0196381 43.7854055 17.0196381H39.1965421C39.164675 17.0196381 39.0053394 17.0516366 38.9734723 17.0196381 38.9416052 16.9876397 38.9416052 16.6356563 38.9734723 16.6036578 39.0690737 16.4756639 39.4514789 16.34767 39.5789474 16.2516745 39.6745487 16.1876776 39.9613527 16.0916821 40.0250869 15.9956866c.063734199999999-.0959954000000014.0-.4479787.0-.543974200000001V14.1397746c0-1.8559121.0318670999999995-3.7438227.0-5.59973474C40.0250869 7.99606563 39.9294855 7.35609595 39.3877447 7.06810959 39.1009408 6.90811717 38.7185355 6.87611869 38.3998644 6.87611869 38.1449275 6.87611869 37.8899907 6.94011566 37.6669209 7.00411262 37.4757183 7.06810959 37.1251801 7.19610353 36.9977117 7.35609595 36.9021103 7.48408989 36.9658446 7.67608079 36.9658446 7.83607321V15.3877155c0 .1599924-.0637343000000001.479977199999999.0.6079711C36.9977117 16.0596836 37.1251801 16.1236806 37.2207814 16.1556791 37.4438512 16.283673 37.7306551 16.4116669 37.9537249 16.5396609 37.985592 16.5716594 38.0493262 16.5716594 38.0493262 16.6036578 38.0811933 16.6356563 38.0811933 16.9236427 38.0493262 16.9556412S37.985592 16.9876397 37.9218578 16.9876397C37.5713196 17.0196381 37.1889143 16.9876397 36.8383761 16.9876397H32.2495127C32.2176456 16.9876397 32.05831 17.0196381 32.0264429 16.9876397 31.9945758 16.9556412 32.0264429 16.6356563 32.05831 16.5716594 32.1539113 16.4436654 32.5044495 16.3156715 32.631918 16.2516745 32.8549877 16.1556791 33.0143232 16.0596836 33.1736588 15.9636882V2.39633092c0-.19199091.063734199999999-.47997726.0-.67196817C33.1099246 1.50037336 32.7275193 1.46837488 32.5044495 1.37237943 32.3769811 1.34038094 31.9627087 1.24438549 31.8989745 1.11639156V.860403683H31.9945758C32.1220442.796406715 32.3769811.796406715 32.5363166.764408231 32.8231206.700411262 33.1099246.668412778 33.3648614.60441581 34.0022036.476421874 34.6714128.348427938 35.308755.252432485 35.6911603.188435517 36.0735656.0924400651 36.4559708.028443097 36.5515722.028443097 36.9339775-.0355538712 36.9658446.028443097zM19.3752013 2.26833698H31.2934994C31.3572337 2.26833698 31.6440376 2.2363385 31.7077718 2.26833698 31.7715061 2.30033547 31.739639 2.49232637 31.739639 2.58832182 31.7715061 3.00430212 31.7715061 3.45228089 31.8033732 3.86826119 31.8352403 4.79621722 31.8671074 5.69217478 31.9308416 6.62013082v.1919909C31.7715061 6.81212172 31.6440376 6.8441202 31.5165692 6.74812475 31.3891008 6.6521293 31.2934994 6.4601384 31.1978981 6.33214446 30.8154928 5.82016871 30.4330875 5.27619448 30.0188152 4.76421874L28.8715993 3.2282915C28.8078651 3.13229605 28.7122638 2.90830666 28.5847953 2.8443097 28.489194 2.78031273 28.2979914 2.81231121 28.1705229 2.81231121h-.5098737C27.596915 2.81231121 27.3419781 2.78031273 27.2782439 2.81231121 27.2463768 2.8443097 27.2782439 2.8443097 27.2463768 2.90830666c-.063734199999999.25598788.0.57597272.0.83196059V14.8757397c0 .223989399999999-.063734199999999.543974199999999.0.7679636C27.310111 15.8676927 27.8199847 16.0276851 28.0430545 16.1236806 28.2661242 16.2516745 28.6485295 16.34767 28.8397322 16.5396609 28.9034664 16.6036578 28.9672006 16.9236427 28.9034664 17.0196381 28.8715993 17.0516366 28.7122638 17.0196381 28.6803966 17.0196381H21.669633C21.6058988 17.0196381 21.3828291 17.0516366 21.3509619 17.0196381c-.031867100000003-.1279939.0-.383981800000001.0-.4799772C21.669633 16.3796685 22.0201712 16.1876776 22.3388423 16.0276851 22.4663107 15.9636882 22.9124502 15.8036957 22.9761844 15.6757018 23.0080515 15.6117048 22.9761844 15.4197139 22.9761844 15.3237185V3.0363006c0-.0319984799999999.0318670999999995-.25598787.0-.28798636C22.9443173 2.71631576 22.6893805 2.74831424 22.6575133 2.74831424H21.956437C21.7015001 2.74831424 21.7333672 2.78031273 21.5740317 2.97230363 20.9685567 3.77226573 20.3630816 4.57222784 19.7576066 5.40418842c-.286804.383981810000001-.573608.73596513-.8285448 1.11994694C18.7378591 6.78012324 18.7378591 6.81212172 18.387321 6.81212172L18.4829223 4.70022177 18.5466565 3.16429454 18.5785236 2.58832182c0-.0639969699999998-.0318670999999995-.25598787.0-.28798635C18.6422578 2.20434001 19.2158658 2.26833698 19.3752013 2.26833698zM49.2984151 6.4601384C48.374269 7.70807927 48.2468006 9.56399135 48.2468006 11.0039231 48.8841427 10.9719246 49.5214849 10.9399262 50.1906941 10.8759292 50.5730994 10.8439307 50.9873718 10.8439307 51.3697771 10.8119322 51.4335113 10.8119322 51.5928469 10.8119322 51.6565811 10.7799337 51.7521824 10.7159368 51.6884482 10.0759671 51.6884482 9.94797316 51.6565811 8.79602773 51.624714 7.38809443 50.9555047 6.39614143 50.4774981 5.69217478 49.7445546 5.82016871 49.2984151 6.4601384zM93.9123655 30.7149893C93.784897 30.7789863 93.4980931 30.7149893 93.3387575 30.7149893H88.7817612C88.5905585 30.7149893 87.8576151 30.8109848 87.7620137 30.6829908 87.7301466 30.6509924 87.7301466 30.299009 87.7620137 30.2350121 87.7938808 30.1710151 87.9850835 30.1070181 88.0488177 30.0750196l.5417408-.2879863C88.6542927 29.7550348 88.8454954 29.6910378 88.8773625 29.6270409 88.9092296 29.5630439 88.8773625 29.43505 88.8773625 29.371053V22.1073971C88.8773625 21.5954214 88.9092296 21.0194486 88.5905585 20.5714699 88.3356217 20.1874881 87.8894822 20.0914926 87.4433427 20.0594941 87.0928045 20.0594941 86.7741334 20.0914926 86.4554623 20.1874881 86.2961268 20.251485 85.8181202 20.379479 85.7225189 20.5714699c-.0318670999999995.0639968999999994.0.1919909.0.2559878v8.2876074C85.7225189 29.2110606 85.6906518 29.43505 85.7225189 29.5310454 85.754386 29.6590393 85.9455886 29.6910378 86.0411899 29.7550348L86.5510636 30.0430212C86.6147979 30.0750196 86.7422663 30.1390166 86.7741334 30.1710151 86.8060005 30.2030136 86.8060005 30.5869954 86.7741334 30.6189939c0 .0319985000000003-.0318670999999995.0-.063734199999999.0C86.5829308 30.6829908 86.2642597 30.6189939 86.1367913 30.6189939H80.7831172C80.6237817 30.6189939 80.5919146 30.6509924 80.5600475 30.5549969 80.5281804 30.4909999 80.5281804 30.2030136 80.5600475 30.1390166 80.5919146 30.0750196 80.7831172 30.0110227 80.8468514 29.9790242 81.1655225 29.9470257 81.4204594 29.7870333 81.7072633 29.6270409v-9.183565C81.7072633 20.4114775 81.7391304 20.251485 81.7072633 20.2194865 81.6753962 20.1554896 81.4841936 20.1234911 81.4204594 20.1234911L80.8468514 19.9315002C80.7512501 19.8995017 80.4963132 19.8675032 80.432579 19.7715078 80.3688448 19.7075108 80.4007119 19.5475184 80.4007119 19.4515229c0-.1919909.063734199999999-.1599924.25493689999999-.1919909L82.7588779 18.8755502 84.862107 18.4915684C84.9895754 18.4595699 85.0851767 18.4275714 85.2126451 18.4275714 85.2763794 18.4275714 85.5950504 18.4275714 85.6587846 18.4595699 85.6906518 18.4915684 85.6587846 18.6835593 85.6587846 18.7475563V19.3555275c0 .0959953999999996-.063734199999999.383981800000001.0.4799772C85.7225189 19.9634987 85.8499873 19.8355047 85.9455886 19.7395093 86.2323926 19.5155199 86.5191965 19.323529 86.8378676 19.1635366 87.9850835 18.5235669 89.3553691 18.2355805 90.6619205 18.4275714 91.5541995 18.5555654 92.287143 19.0355426 92.6058141 19.8995017 92.8288838 20.5074729 92.8607509 21.1474426 92.8607509 21.7874123v7.2956543C92.8607509 29.2110606 92.8288838 29.43505 92.8607509 29.5630439S92.9882193 29.7230363 93.1475549 29.7870333l.5098737.2879863C93.7211628 30.1070181 93.9442326 30.1710151 93.9760997 30.2670105 94.0079668 30.3310075 94.0079668 30.6509924 93.9760997 30.6829908L93.9669526 30.7053601 93.966 30.708C93.9583957 30.7043232 93.9442326 30.7043232 93.9123655 30.7149893z"/></clipPath></defs><g clip-path="url(#i0)"><g transform="translate(9.0 15.0)"><g clip-path="url(#i1)"><polygon points="0,-3.15781811e-18 94,-3.15781811e-18 94,31 0,31 0,-3.15781811e-18" stroke="none" fill="#262626"/></g></g></g></svg>