<svg xmlns="http://www.w3.org/2000/svg" xmlns:xlink="http://www.w3.org/1999/xlink" width="111" height="60" viewBox="0 0 111 60"><defs><clipPath id="i0"><path d="M111 0V60H0V0H111z"/></clipPath><clipPath id="i1"><path d="M3.65260357.0 5.77946789 5.21023674 7.93394101.0H11.4903513L6.13518744 12.3343236H2.55624322L4.02212976 9.06592222.0.0H3.65260357z"/></clipPath><clipPath id="i2"><path d="M4.47928796 88817842e-23c1.59037229.0 2.38981186.846752687999999 2.52202094 1.00070772L7.02107841 1.02457075V.207470241H10.2068497V9.19557407H7.02107841V8.33956369S6.3108553 9.4384471 4.42722477 9.4384471C1.90211716 9.4384471.0 7.34462404.0 4.70364655c0-2.34692252 1.73491187-4.70364655 4.47928796-4.70364655zm.67762921 2.88842328c-1.18955629.0-1.92431906.83405751-1.92431906 1.86477102.0 1.01633299.91347732 1.8073171 1.92431906 1.8073171 1.21965092.0 1.91971984-.91480235 1.91971984-1.84698931.0-.86569074-.65344403-1.82509881-1.91971984-1.82509881z"/></clipPath><clipPath id="i3"><path d="M3.33212079.0V4.81704811s.79146108-1.05457787 2.44907013-1.05457787c2.02759291.0 3.21554284 1.44655275 3.21554284 3.51361417V12.9568772H5.68899109V8.05427551c0-.699539010000001-.34799285-1.37532001-1.13626813-1.37532001-.80241396.0-1.22060217.68602178-1.22060217 1.37532001V12.9568772H0V0H3.33212079z"/></clipPath><clipPath id="i4"><path d="M5.01422013.0C7.59141337.0 10.0425655 1.69046275 10.0425655 4.78678343c0 2.82980496-2.34105348 4.6505998-5.01644123 4.6505998C2.2658416 9.43738323.0 7.53002968.0 4.73997502.0 2.28829253 1.87139884.0 5.01422013.0zM5.04423847 2.91381009c-1.20000214.0-1.86463686.8678306-1.86463686 1.82069432.0.98914238.79941213 1.80731709 1.86463686 1.80731709 1.16252633.0 1.87828646-.99322873 1.87828646-1.79850812.0-.94414-.76813293-1.82950329-1.87828646-1.82950329z"/></clipPath><clipPath id="i5"><path d="M5.01421565.0C7.59141337.0 10.0425655 1.69046275 10.0425655 4.78678343c0 2.82980496-2.34105797 4.6505998-5.01644572 4.6505998C2.26583711 9.43738323.0 7.53002968.0 4.73997502.0 2.28829253 1.87139884.0 5.01421565.0zM5.04423398 2.91381009c-1.20000662.0-1.86464135.8678306-1.86464135 1.82069432.0.98914238.79941662 1.80731709 1.86464135 1.80731709 1.16252185.0 1.87828197-.99322873 1.87828197-1.79850812.0-.94414-.76812844-1.82950329-1.87828197-1.82950329z"/></clipPath><clipPath id="i6"><path d="M2.21265539.0C3.43467121.0 4.42531077.948559257 4.42531077 2.1186664c0 1.17010714-.99063956 2.1186664-2.21265538 2.1186664C.99063956 4.2373328.0 3.28877354.0 2.1186664.0.948559257.99063956.0 2.21265539.0z"/></clipPath><clipPath id="i7"><path d="M7.50378136.0 3.98335271 8.13209479H0L3.53529424.0H7.50378136z"/></clipPath><clipPath id="i8"><path d="M3.86454309.0V2.9547357C3.86454309 4.59300501 3.90417943 6.05574545 3.96363394 6.25077751c.28736346 1.02391832 1.74399893 1.2872116 2.29890768.39981573C6.28326061 6.6186789 6.30209607 6.58918231 6.31924154 6.55960514L6.35133653 6.49960308c.13979648-.28742007.14361817-.72694962.1688413-3.34983532L6.54990508.0 9.14469614.000781193503C10.2728479.00507775777 10.2947769.0330054255 10.3450846.214535266 10.3883242.384745063 10.4059404 1.82035295 10.4001918 3.36210534L10.394509 4.23289443C10.3818819 5.5810958 10.3516906 6.84414778 10.3054482 7.24544102 10.156812 8.70818147 9.47308511 9.76135459 8.34344944 10.3074444 7.63990441 10.6487505 6.26254162 10.7267633 5.5589966 10.4732216 4.99417876 10.2684379 4.69690621 10.0929091 4.24108831 9.66383856l-.37654522-.34130611V10.3366992H0V0H3.86454309z"/></clipPath><clipPath id="i9"><path d="M9.29513917 1.0715148C9.84013884 1.46157892 10.5535929 2.27096197 10.5535929 2.51475204 10.5535929 2.55375845 10.3157749 2.68052929 10.0383205 2.77804532 9.75095708 2.88531295 9.09695748 3.12910303 8.59159415 3.32413509 8.07632174 3.51916715 7.5808675 3.6751928 7.48177665 3.6751928 7.3826858 3.6751928 7.16468593 3.56792516 7.00614057 3.43140272 6.84759522 3.30463188 6.58995901 3.14860623 6.43141365 3.09009662 6.02514118 2.93407097 5.06395995 2.95357418 4.72705106 3.12910303c-.49545424.25354168-1.14945384 1.12143434-.9809994 1.2969632C3.77340074 4.45298065 5.12590362 4.47989507 6.84676571 4.48402913L7.30341312 4.48457584C9.22577558 4.49432745 10.8607746 4.54308546 10.9400473 4.59184348 11.1085017 4.69911111 11.029229 6.17160316 10.8013201 7.02974422 10.3157749 8.87279719 8.89877578 10.2575248 7.02595874 10.7353534 6.2728683 10.9303854 4.84596008 10.9303854 4.1126878 10.7353534 2.29932528 10.2672764.882326143 8.98006482.267962883 7.24427949-.187855019 5.95706789-.0491278316 3.94823768.585053598 2.7195357.902144313 2.09543311 1.66514385 1.27629846 2.29932528.886234342 4.28114224-.36197084 7.36286763-.283958016 9.29513917 1.0715148zM4.41986943 6.65918331C3.71632441 6.73719613 3.64696081 6.87371857 4.08296055 7.39055353 4.64777838 8.04391093 5.60895961 8.23894299 6.39177731 7.84887887c.43599974-.22428687.7233632-.53633816.83236313-.91665068C7.28359495 6.75669934 7.23404953 6.71769293 6.91695881 6.65918331 6.43141365 6.58117049 5.19277805 6.58117049 4.41986943 6.65918331z"/></clipPath><clipPath id="i10"><path d="M6.3418143.120703778C8.21463133.569277515 9.344267 1.69071186 9.48299419 3.24121673 9.57217596 4.13836421 9.31453975 4.85023123 8.68035832 5.45483061c-.64409051.61435099-1.22872652.88739587-3.04208905 1.43348564-1.11972658.3315545-1.4368173.45832534-1.46654455.60459938C4.06272478 8.06826021 5.30136039 8.08776342 6.97599573 7.54167365c.64409051-.21453527 1.19899926-.38031252 1.21881743-.36080931C8.24435859 7.22962235 9.31453975 9.68702631 9.31453975 9.74553592 9.31453975 9.84305195 8.25426767 10.2623709 7.38226821 10.5159126c-1.22872652.3608093-2.95290729.4290705-3.98345211.1560256C1.77372619 10.2331161.931453975 9.50174585.535090581 8.16577624.108999933 6.7127874.782817702 5.29880496 2.22954409 4.65519917 2.49708938 4.52842833 3.36908885 4.25538344 4.15190655 4.05059978c1.52599906-.41931893 1.72418076-.53633816 1.49627181-.89714747C5.57881477 3.03643307 5.34099673 3.00717826 4.53836086 3.01692986c-.93145398.0-1.10981751.0390064200000002-2.01154423.37056092-.54499966.20478366-1.06027207.39006412-1.14945384.40956732C1.26836286 3.83606451 1.07018116 3.53376482.61436326 2.59761094.277454376 1.90524712.0 1.29089614.0 1.23238652.0 1.02760286 1.72418076.364493852 2.92318003.120703778c.7828177-.1657772511 2.73490741-.1560256481 3.41863427.0z"/></clipPath><clipPath id="i11"><path d="M13.7339916.0 14.0609914.897147475C14.2393549 1.39447923 15.0221726 3.64709952 15.8049903 5.89971981 16.587808 8.1523401 17.2517167 10.0734059 17.291353 10.1709219 17.352393 10.3082245 17.2599611 10.3322524 16.0011426 10.336042L15.0501512 10.3362943C14.1552477 10.3342697 13.4763554 10.3246531 13.4763554 10.3074444c0-.2535417-1.6151808-5.29512047-1.6548172-5.17810123C11.8144603 5.16417032 11.6152675 5.77613316 11.3322952 6.63117532l-.1174003.35418926C11.1339915 7.22907778 11.0481577 7.48690928 10.9594478 7.75252437l-.8323631 2.53541673L8.68035832 10.317196 7.24354102 10.3464508 6.38145064 7.74277277C5.91572365 6.31903873 5.49954209 5.18785279 5.44999666 5.2268592 5.40045124 5.29512042 4.20145197 9.07874238 3.89427034 10.1709219c-.04541664.1340846-.19907626.1616464-1.56769406.165308899999999L1.92236246 10.3366992C.782817702 10.3366992.0 10.2976928.0 10.2489347.0 10.2294315.0480024871 10.0748231.132841841 9.81704174l.096704768-.29098961C1.0046692 7.21110983 3.48061462.143788342 3.54745237.0780128239 3.58378568.0422569463 3.99314099.0222336548 4.55277087.0179429495H5.03966366C5.09648456.0183330136 5.15404533.0188530991 5.21217863.019503206L6.78772312.0487580149 7.67954075 2.71094563C8.16508591 4.16393447 8.59117656 5.36338164 8.62090381 5.36338164 8.65063107 5.36338164 9.07672171 4.16393447 9.57217596 2.70119403L10.4739027.0487580149 12.0989926.019503206 13.7339916.0z"/></clipPath></defs><g clip-path="url(#i0)"><g transform="translate(0.0 19.0)"><g transform="translate(0.0 3.9687738474855747)"><g clip-path="url(#i1)"><polygon points="0,0 11.4903513,0 11.4903513,12.3343236 0,12.3343236 0,0" stroke="none" fill="#5e01d1"/></g></g><g transform="translate(10.71590956756146 3.7613578996140857)"><g clip-path="url(#i2)"><polygon points="0,8.8817842e-16 10.2068497,8.8817842e-16 10.2068497,9.4384471 0,9.4384471 0,8.8817842e-16" stroke="none" fill="#5e01d1"/></g></g><g transform="translate(22.01992280170678 0.0)"><g clip-path="url(#i3)"><polygon points="0,0 8.99673376,0 8.99673376,12.9568772 0,12.9568772 0,0" stroke="none" fill="#5e01d1"/></g></g><g transform="translate(31.68358865773458 3.7624217782360683)"><g clip-path="url(#i4)"><polygon points="0,0 10.0425655,0 10.0425655,9.43738323 0,9.43738323 0,0" stroke="none" fill="#5e01d1"/></g></g><g transform="translate(42.2630920249241 3.7624217782360683)"><g clip-path="url(#i5)"><polygon points="0,0 10.0425655,0 10.0425655,9.43738323 0,9.43738323 0,0" stroke="none" fill="#5e01d1"/></g></g><g transform="translate(52.72228548234924 8.910367639965347)"><g clip-path="url(#i6)"><polygon points="0,0 4.42531077,0 4.42531077,4.2373328 0,4.2373328 0,0" stroke="none" fill="#5e01d1"/></g></g><g transform="translate(53.89129882430208 0.0)"><g clip-path="url(#i7)"><polygon points="0,0 7.50378136,0 7.50378136,8.13209479 0,8.13209479 0,0" stroke="none" fill="#5e01d1"/></g></g><g transform="translate(62.45807486045082 12.884661362660907) scale(1.0 -1.0)"><g transform="translate(0.0 0.26213175126621024)"><g clip-path="url(#i8)"><polygon points="0,-8.8817842e-16 10.4012484,-8.8817842e-16 10.4012484,10.6226957 0,10.6226957 0,-8.8817842e-16" stroke="none" fill="#1a1a1a"/></g></g><g transform="translate(11.444575398195232 0.0)"><g clip-path="url(#i9)"><polygon points="-1.77140748e-17,1.44228402e-16 11.0303154,1.44228402e-16 11.0303154,10.8816274 -1.77140748e-17,10.8816274 -1.77140748e-17,1.44228402e-16" stroke="none" fill="#1a1a1a"/></g></g><g transform="translate(39.041794271749964 0.034160340785312826)"><g clip-path="url(#i10)"><polygon points="0,-9.17104249e-16 9.50013087,-9.17104249e-16 9.50013087,10.8390276 0,10.8390276 0,-9.17104249e-16" stroke="none" fill="#1a1a1a"/></g></g><g transform="translate(22.19635004282231 0.26213175126621024)"><g clip-path="url(#i11)"><polygon points="0,-8.8817842e-16 17.3051944,-8.8817842e-16 17.3051944,10.3464508 0,10.3464508 0,-8.8817842e-16" stroke="none" fill="#1a1a1a"/></g></g></g></g></g></svg>